<svg width="126" height="126" viewBox="0 0 126 126" version="1.1" xmlns="http://www.w3.org/2000/svg" xmlns:xlink="http://www.w3.org/1999/xlink">
<title>Group 4.1</title>
<desc>Created using Figma</desc>
<g id="Canvas" transform="translate(-419 -965)">
<g id="Group 4.1">
<g id="Rectangle 2.1">
<use xlink:href="#path0_fill" transform="translate(419 1001)" fill="#E57F5F"/>
</g>
<g id="Rectangle 2.3">
<use xlink:href="#path0_fill" transform="translate(536 1001)" fill="#E57F5F"/>
</g>
<g id="Rectangle 2.5">
<use xlink:href="#path1_fill" transform="translate(464 965)" fill="#FF8D69"/>
</g>
<g id="Subtract">
<use xlink:href="#path2_fill" transform="translate(428 992)" fill="#FF8D69"/>
</g>
<g id="Rectangle 2.9">
<use xlink:href="#path3_fill" transform="translate(437 992)" fill="#FFB39C"/>
</g>
<g id="Rectangle 2.6">
<use xlink:href="#path4_fill" transform="translate(455 974)" fill="#FF8D69"/>
</g>
<g id="Rectangle 2.8">
<use xlink:href="#path5_fill" transform="translate(428 1082)" fill="#E57F5F"/>
</g>
<g id="Rectangle 2.7">
<use xlink:href="#path4_fill" transform="translate(500 974)" fill="#FF8D69"/>
</g>
<g id="Rectangle 2.11">
<use xlink:href="#path6_fill" transform="translate(473 1037)" fill="#FFB39C"/>
</g>
<g id="Rectangle 2.8">
<use xlink:href="#path7_fill" transform="translate(446 1055)" fill="#FFB39C"/>
</g>
<g id="Rectangle 2.12">
<use xlink:href="#path7_fill" transform="translate(446 1064)" fill="#E57F5F"/>
</g>
<g id="Rectangle 2.13">
<use xlink:href="#path8_fill" transform="translate(437 1055)" fill="#E57F5F"/>
</g>
<g id="Rectangle 2.14">
<use xlink:href="#path8_fill" transform="translate(518 1055)" fill="#E57F5F"/>
</g>
<g id="Rectangle 2.9">
<use xlink:href="#path9_fill" transform="translate(437 992)" fill="#FFB39C"/>
</g>
<g id="Rectangle 2.10">
<use xlink:href="#path9_fill" transform="translate(518 992)" fill="#FFB39C"/>
</g>
</g>
</g>
<defs>
<path id="path0_fill" d="M 0 0L 9 0L 9 81L 0 81L 0 0Z"/>
<path id="path1_fill" d="M 0 0L 36 0L 36 9L 0 9L 0 0Z"/>
<path id="path2_fill" d="M 0 0L 108 0L 108 99L 0 99L 0 0Z"/>
<path id="path3_fill" d="M 0 0L 90 0L 90 9L 0 9L 0 0Z"/>
<path id="path4_fill" d="M 0 0L 9 0L 9 27L 0 27L 0 0Z"/>
<path id="path5_fill" d="M 0 0L 108 0L 108 9L 0 9L 0 0Z"/>
<path id="path6_fill" d="M 0 0L 18 0L 18 9L 0 9L 0 0Z"/>
<path id="path7_fill" d="M 0 0L 72 0L 72 9L 0 9L 0 0Z"/>
<path id="path8_fill" d="M 0 0L 9 0L 9 9L 0 9L 0 0Z"/>
<path id="path9_fill" d="M 0 0L 9 0L 9 63L 0 63L 0 0Z"/>
</defs>
</svg>
