<svg width="84" height="84" viewBox="0 0 84 84" version="1.1" xmlns="http://www.w3.org/2000/svg" xmlns:xlink="http://www.w3.org/1999/xlink">
<title>Group 3.5</title>
<desc>Created using Figma</desc>
<g id="Canvas" transform="translate(-238 -988)">
<g id="Group 3.5" opacity="0.8">
<g id="Rectangle 2.1">
<use xlink:href="#path0_fill" transform="translate(238 1012)" fill="#FFFFFF"/>
</g>
<g id="Rectangle 2.3">
<use xlink:href="#path0_fill" transform="translate(316 1012)" fill="#FFFFFF"/>
</g>
<g id="Rectangle 2.2">
<use xlink:href="#path1_fill" transform="translate(244 1006)" fill="#FFFFFF"/>
</g>
<g id="Rectangle 2.5">
<use xlink:href="#path2_fill" transform="translate(268 988)" fill="#FFFFFF"/>
</g>
<g id="Rectangle 2.11">
<use xlink:href="#path3_fill" transform="translate(274 1036)" fill="#FFFFFF"/>
</g>
<g id="Rectangle 2.8">
<use xlink:href="#path4_fill" transform="translate(256 1048)" fill="#FFFFFF"/>
</g>
<g id="Rectangle 2.6">
<use xlink:href="#path5_fill" transform="translate(262 994)" fill="#FFFFFF"/>
</g>
<g id="Rectangle 2.9">
<use xlink:href="#path6_fill" transform="translate(250 1000)" fill="#FFFFFF"/>
</g>
<g id="Rectangle 2.10">
<use xlink:href="#path6_fill" transform="translate(304 1000)" fill="#FFFFFF"/>
</g>
<g id="Rectangle 2.7">
<use xlink:href="#path5_fill" transform="translate(292 994)" fill="#FFFFFF"/>
</g>
<g id="Rectangle 2.4">
<use xlink:href="#path1_fill" transform="translate(244 1066)" fill="#FFFFFF"/>
</g>
</g>
</g>
<defs>
<path id="path0_fill" d="M 0 0L 6 0L 6 54L 0 54L 0 0Z"/>
<path id="path1_fill" d="M 0 0L 72 0L 72 6L 0 6L 0 0Z"/>
<path id="path2_fill" d="M 0 0L 24 0L 24 6L 0 6L 0 0Z"/>
<path id="path3_fill" d="M 0 0L 12 0L 12 6L 0 6L 0 0Z"/>
<path id="path4_fill" d="M 0 0L 48 0L 48 6L 0 6L 0 0Z"/>
<path id="path5_fill" d="M 0 0L 6 0L 6 18L 0 18L 0 0Z"/>
<path id="path6_fill" d="M 0 0L 6 0L 6 48L 0 48L 0 0Z"/>
</defs>
</svg>
