<svg width="11" height="13" viewBox="0 0 11 13" version="1.1" xmlns="http://www.w3.org/2000/svg" xmlns:xlink="http://www.w3.org/1999/xlink">
<title>Line</title>
<desc>Created using Figma</desc>
<g id="Canvas" transform="translate(-26708 -917)">
<g id="Line">
<g id="Line (Stroke)">
<use xlink:href="#path0_fill" transform="matrix(1.38778e-16 1 1 -1.38778e-16 26709 918.5)" fill="#E0E0E0"/>
<use xlink:href="#path1_stroke" transform="matrix(1.38778e-16 1 1 -1.38778e-16 26709 918.5)" fill="#E0E0E0"/>
</g>
</g>
</g>
<defs>
<path id="path0_fill" fill-rule="evenodd" d="M 5.3194 0.178982L 9.79406 4.0679C 10.0686 4.30654 10.0686 4.69346 9.79406 4.9321L 5.3194 8.82102C 5.04481 9.05966 4.59962 9.05966 4.32503 8.82102C 4.05044 8.58237 4.05044 8.19546 4.32503 7.95681L 7.59938 5.11108L 0.703125 5.11108C 0.3148 5.11108 0 4.83749 0 4.5C 0 4.16251 0.3148 3.88892 0.703125 3.88892L 7.59938 3.88892L 4.32503 1.04319C 4.05044 0.804543 4.05044 0.417626 4.32503 0.178982C 4.59962 -0.0596608 5.04481 -0.0596608 5.3194 0.178982Z"/>
<path id="path1_stroke" d="M 9.79406 4.0679L 9.13808 4.82268L 9.13808 4.82268L 9.79406 4.0679ZM 5.3194 0.178982L 4.66342 0.933762L 4.66342 0.933763L 5.3194 0.178982ZM 9.79406 4.9321L 9.13808 4.17732L 9.13808 4.17732L 9.79406 4.9321ZM 5.3194 8.82102L 4.66342 8.06624L 4.66342 8.06624L 5.3194 8.82102ZM 4.32503 7.95681L 3.66905 7.20203L 4.32503 7.95681ZM 7.59938 5.11108L 8.25536 5.86586L 10.2744 4.11108L 7.59938 4.11108L 7.59938 5.11108ZM 7.59938 3.88892L 7.59938 4.88892L 10.2744 4.88892L 8.25536 3.13414L 7.59938 3.88892ZM 4.32503 1.04319L 3.66905 1.79797L 4.32503 1.04319ZM 10.45 3.31312L 5.97538 -0.575798L 4.66342 0.933763L 9.13808 4.82268L 10.45 3.31312ZM 10.45 5.68688C 11.1833 5.04959 11.1833 3.95041 10.45 3.31312L 9.13808 4.82268C 9.06679 4.76072 9 4.64607 9 4.5C 9 4.35393 9.06679 4.23928 9.13808 4.17732L 10.45 5.68688ZM 5.97538 9.5758L 10.45 5.68688L 9.13808 4.17732L 4.66342 8.06624L 5.97538 9.5758ZM 3.66905 9.5758C 4.31985 10.1414 5.32458 10.1414 5.97538 9.5758L 4.66342 8.06624C 4.72787 8.01022 4.78867 8 4.82222 8C 4.85576 8 4.91656 8.01022 4.98101 8.06624L 3.66905 9.5758ZM 3.66905 7.20203C 2.93577 7.83933 2.93577 8.9385 3.66905 9.5758L 4.98101 8.06624C 5.0523 8.1282 5.11909 8.24285 5.11909 8.38892C 5.11909 8.53498 5.0523 8.64964 4.98101 8.71159L 3.66905 7.20203ZM 6.9434 4.3563L 3.66905 7.20203L 4.98101 8.71159L 8.25536 5.86586L 6.9434 4.3563ZM 0.703125 6.11108L 7.59938 6.11108L 7.59938 4.11108L 0.703125 4.11108L 0.703125 6.11108ZM -1 4.5C -1 5.51691 -0.101141 6.11108 0.703125 6.11108L 0.703125 4.11108C 0.742183 4.11108 0.801367 4.1247 0.861918 4.17732C 0.924494 4.23171 1 4.34322 1 4.5L -1 4.5ZM 0.703125 2.88892C -0.101141 2.88892 -1 3.48309 -1 4.5L 1 4.5C 1 4.65678 0.924494 4.76829 0.861918 4.82268C 0.801367 4.8753 0.742183 4.88892 0.703125 4.88892L 0.703125 2.88892ZM 7.59938 2.88892L 0.703125 2.88892L 0.703125 4.88892L 7.59938 4.88892L 7.59938 2.88892ZM 3.66905 1.79797L 6.9434 4.6437L 8.25536 3.13414L 4.98101 0.288406L 3.66905 1.79797ZM 3.66905 -0.575798C 2.93577 0.0614973 2.93577 1.16067 3.66905 1.79797L 4.98101 0.288406C 5.0523 0.350364 5.11909 0.465015 5.11909 0.611084C 5.11909 0.757153 5.0523 0.871804 4.98101 0.933763L 3.66905 -0.575798ZM 5.97538 -0.575797C 5.32458 -1.1414 4.31985 -1.1414 3.66905 -0.575798L 4.98101 0.933763C 4.91656 0.989775 4.85576 1 4.82222 1C 4.78867 1 4.72787 0.989775 4.66342 0.933762L 5.97538 -0.575797Z"/>
</defs>
</svg>
