<svg width="39" height="41" viewBox="0 0 39 41" version="1.1" xmlns="http://www.w3.org/2000/svg" xmlns:xlink="http://www.w3.org/1999/xlink">
<title>Vector</title>
<desc>Created using Figma</desc>
<g id="Canvas" transform="translate(2350 3952)">
<g id="Vector">
<use xlink:href="#path0_fill" transform="matrix(0.965926 0.258819 -0.258819 0.965926 -2341.04 -3951.1)" fill="#FFFFFF"/>
</g>
</g>
<defs>
<path id="path0_fill" d="M 0 16.5809C 0 15.6598 0 15.6598 0.921079 15.6598L 11.974 13.8174L 9.21079 1.84232C 9.21079 1.84232 9.21079 0.921162 10.1319 0.921162L 15.6583 0L 16.5794 0.921162L 18.4216 12.8963L 29.4745 10.1328C 29.4745 10.1328 29.4745 10.1328 30.3956 11.0539L 30.3956 16.5809C 31.3167 16.5809 30.3956 16.5809 30.3956 17.5021L 19.3427 18.4232L 21.1848 31.3195C 21.1848 31.3195 21.1848 32.2407 20.2637 32.2407L 15.6583 33.1618C 14.7373 33.1618 14.7373 32.2407 14.7373 32.2407L 12.8951 20.2656L 1.84216 22.1079C 1.84216 22.1079 1.84216 22.1079 1.84216 21.1867L 0 16.5809Z"/>
</defs>
</svg>
