<svg width="42" height="42" viewBox="0 0 42 42" version="1.1" xmlns="http://www.w3.org/2000/svg" xmlns:xlink="http://www.w3.org/1999/xlink">
<title>Group 3.6</title>
<desc>Created using Figma</desc>
<g id="Canvas" transform="translate(-156 -1009)">
<g id="Group 3.6" opacity="0.6">
<g id="Rectangle 2.1">
<use xlink:href="#path0_fill" transform="translate(156 1021)" fill="#FFFFFF"/>
</g>
<g id="Rectangle 2.3">
<use xlink:href="#path0_fill" transform="translate(195 1021)" fill="#FFFFFF"/>
</g>
<g id="Rectangle 2.2">
<use xlink:href="#path1_fill" transform="translate(159 1018)" fill="#FFFFFF"/>
</g>
<g id="Rectangle 2.5">
<use xlink:href="#path2_fill" transform="translate(171 1009)" fill="#FFFFFF"/>
</g>
<g id="Rectangle 2.11">
<use xlink:href="#path3_fill" transform="translate(174 1033)" fill="#FFFFFF"/>
</g>
<g id="Rectangle 2.8">
<use xlink:href="#path4_fill" transform="translate(165 1039)" fill="#FFFFFF"/>
</g>
<g id="Rectangle 2.6">
<use xlink:href="#path5_fill" transform="translate(168 1012)" fill="#FFFFFF"/>
</g>
<g id="Rectangle 2.9">
<use xlink:href="#path6_fill" transform="translate(162 1015)" fill="#FFFFFF"/>
</g>
<g id="Rectangle 2.10">
<use xlink:href="#path6_fill" transform="translate(189 1015)" fill="#FFFFFF"/>
</g>
<g id="Rectangle 2.7">
<use xlink:href="#path5_fill" transform="translate(183 1012)" fill="#FFFFFF"/>
</g>
<g id="Rectangle 2.4">
<use xlink:href="#path1_fill" transform="translate(159 1048)" fill="#FFFFFF"/>
</g>
</g>
</g>
<defs>
<path id="path0_fill" d="M 0 0L 3 0L 3 27L 0 27L 0 0Z"/>
<path id="path1_fill" d="M 0 0L 36 0L 36 3L 0 3L 0 0Z"/>
<path id="path2_fill" d="M 0 0L 12 0L 12 3L 0 3L 0 0Z"/>
<path id="path3_fill" d="M 0 0L 6 0L 6 3L 0 3L 0 0Z"/>
<path id="path4_fill" d="M 0 0L 24 0L 24 3L 0 3L 0 0Z"/>
<path id="path5_fill" d="M 0 0L 3 0L 3 9L 0 9L 0 0Z"/>
<path id="path6_fill" d="M 0 0L 3 0L 3 24L 0 24L 0 0Z"/>
</defs>
</svg>
