<svg width="164" height="32" viewBox="0 0 164 32" version="1.1" xmlns="http://www.w3.org/2000/svg" xmlns:xlink="http://www.w3.org/1999/xlink">
<title>LogotypeMini</title>
<desc>Created using Figma</desc>
<g id="Canvas" transform="translate(2560 5106)">
<g id="LogotypeMini">
<g id="Group">
<g id="Vector">
<use xlink:href="#path0_fill" transform="translate(-2560 -5106)" fill="#ED3237"/>
</g>
</g>
<g id="Group">
<g id="Vector">
<use xlink:href="#path1_fill" transform="translate(-2558.68 -5106)" fill="#26BFD1"/>
</g>
</g>
<g id="Group">
<g id="Vector">
<use xlink:href="#path2_fill" transform="translate(-2559.56 -5106)" fill="#FEFEFE"/>
</g>
</g>
</g>
</g>
<defs>
<path id="path0_fill" fill-rule="evenodd" d="M 21.9157 24.354L 22.0628 23.0796L 25.0045 23.0796L 24.8574 24.354L 21.9157 24.354ZM 144.585 11.6106L 145.173 10.7611L 147.821 10.7611L 147.085 11.6106L 144.585 11.6106ZM 80.6028 18.4071L 80.6028 17.5575L 82.3678 17.5575L 82.3678 18.4071L 80.6028 18.4071ZM 70.3068 11.3274L 70.1597 10.1947L 66.4826 10.1947L 67.3651 11.3274L 70.3068 11.3274ZM 8.53095 13.7345L 8.53095 14.5841L 18.6798 14.5841C 18.974 14.5841 18.974 14.7257 18.974 14.8673L 18.974 17.9823C 18.8269 18.2655 18.6798 18.4071 18.3857 18.4071L 8.38386 18.1239L 8.38386 19.2566L 4.11839 19.2566L 4.11839 5.52212L 4.11839 13.7345C 4.26547 13.7345 4.55965 13.7345 4.70673 13.7345L 8.53095 13.7345ZM 8.38386 22.0885L 8.23678 26.7611L 13.3848 26.4779C 13.6789 26.4779 13.826 26.6195 13.826 26.9027L 13.9731 27.8938L 10.7372 27.8938L 10.7372 28.7434L 1.32377 28.7434L 1.17668 27.0442C 1.17668 26.7611 1.32377 26.6195 1.47085 26.6195L 3.9713 26.7611L 4.11839 22.0885L 8.38386 22.0885ZM 13.9731 28.885L 14.1202 30.1593C 14.1202 30.3009 13.9731 30.4425 13.9731 30.5841C 13.9731 30.5841 13.826 30.5841 13.6789 30.5841L 1.91211 30.8673C 1.76502 30.8673 1.61794 30.8673 1.47085 30.7257C 1.47085 30.7257 1.47085 30.5841 1.32377 30.4425L 1.32377 29.5929L 13.9731 29.5929L 13.9731 28.885ZM 41.0368 10.1947C 41.1839 10.3363 41.1839 10.3363 41.1839 10.3363L 41.0368 10.1947ZM 42.6547 13.7345C 42.8018 14.4425 42.8018 15.1504 42.8018 15.8584C 42.8018 16.708 42.8018 17.8407 42.8018 19.2566L 27.9462 19.2566C 29.7112 18.4071 32.3588 17.9823 35.8888 17.9823C 36.6242 17.9823 37.5068 18.1239 38.3893 18.1239C 38.3893 17.8407 38.3893 17.4159 38.3893 17.1327L 38.3893 16.4248C 38.3893 15.292 38.0951 14.4425 37.6538 13.7345L 42.6547 13.7345ZM 42.8018 20.1062L 42.6547 23.9292C 42.6547 24.6372 42.6547 25.3451 42.5077 26.0531L 42.5077 27.7522L 43.6843 27.7522C 44.1256 27.7522 44.5669 27.6106 45.1552 27.6106C 45.4494 27.6106 45.5965 27.7522 45.5965 28.0354L 45.4494 28.7434L 25.887 28.7434C 25.1516 27.7522 24.8574 26.4779 24.8574 25.0619C 24.8574 24.6372 24.8574 24.6372 24.8574 24.354L 27.9462 24.354L 27.7991 23.0796L 25.0045 23.0796C 25.0045 22.7965 25.1516 22.3717 25.2987 22.0885L 30.5937 22.0885C 29.7112 22.5133 29.27 23.3628 29.27 24.354C 29.27 26.7611 30.5937 27.8938 33.2413 27.8938C 34.7121 27.8938 36.4772 27.469 38.2422 26.6195C 38.2422 25.7699 38.2422 24.9204 38.2422 23.9292C 38.2422 23.2212 38.2422 22.6549 38.3893 22.0885L 42.6547 22.0885L 42.8018 20.1062ZM 45.3023 29.5929L 45.1552 31.0089C 45.1552 31.1504 45.0081 31.292 44.7139 31.292L 38.9776 31.7168C 38.8305 31.7168 38.8305 31.5752 38.8305 31.292L 38.9776 29.5929L 45.3023 29.5929ZM 38.3893 29.5929C 36.3301 30.8673 34.1238 31.5752 31.9175 31.5752C 29.8583 31.5752 28.2404 31.0089 26.9166 29.8761C 26.7695 29.7345 26.6224 29.5929 26.6224 29.5929L 38.3893 29.5929ZM 30.7408 13.7345L 30.5937 13.7345L 30.7408 14.4425C 30.7408 14.7257 30.7408 14.8673 30.7408 15.0088C 30.7408 15.292 30.5937 15.4336 30.2996 15.4336L 27.0637 15.5752C 26.7695 15.5752 26.6224 15.4336 26.6224 15.1504L 26.3283 9.62832L 26.4754 13.7345L 30.7408 13.7345ZM 60.4521 13.7345C 59.1283 14.0177 57.8045 14.5841 56.3337 15.5752L 56.3337 19.2566L 52.2153 19.2566L 52.2153 14.0177L 49.1265 14.0177C 48.9794 14.0177 48.8323 13.8761 48.8323 13.7345L 60.4521 13.7345ZM 56.4808 22.0885L 56.6279 26.9027L 58.687 26.7611C 58.9812 26.7611 58.9812 26.9027 58.9812 27.0442L 58.8341 28.7434L 49.8619 28.7434L 50.009 27.0442C 50.1561 26.7611 50.3032 26.6195 50.4503 26.6195L 52.2153 26.6195L 52.2153 22.0885L 56.4808 22.0885ZM 58.687 29.5929L 58.687 30.0177C 58.687 30.3009 58.54 30.4425 58.2458 30.4425L 50.009 30.4425C 49.7148 30.4425 49.7148 30.3009 49.7148 30.0177L 49.7148 29.5929L 58.687 29.5929ZM 68.983 13.7345C 68.983 14.4425 69.1301 15.0088 69.1301 15.5752C 69.1301 16.4248 69.1301 16.9911 69.1301 17.5575C 69.1301 18.1239 68.983 18.6903 68.983 19.2566L 64.8646 19.2566L 64.8646 17.6991C 64.8646 16.1416 64.7175 15.1504 64.4234 14.5841C 64.2763 14.1593 63.835 13.8761 63.5409 13.7345L 68.983 13.7345ZM 68.983 22.0885L 68.8359 23.3628L 68.8359 25.4867C 68.8359 26.0531 68.8359 26.6195 68.6889 27.1858L 71.0422 27.1858C 71.3364 27.1858 71.4835 27.3274 71.4835 27.6106L 71.4835 28.7434L 64.8646 28.7434C 64.8646 28.177 64.8646 27.469 64.8646 26.9027L 64.8646 23.646L 64.8646 22.0885L 68.983 22.0885ZM 71.4835 29.5929L 71.4835 30.4425C 71.4835 30.5841 71.3364 30.5841 71.3364 30.7257C 71.1893 30.7257 71.1893 30.7257 71.0422 30.7257L 65.3059 31.1504C 65.0117 31.1504 64.8646 31.0089 64.8646 30.7257L 64.8646 29.5929L 71.4835 29.5929ZM 85.4566 30.5841C 84.8682 30.7257 83.9857 30.7257 82.662 30.7257C 81.4853 30.7257 80.4557 30.5841 79.7203 30.3009C 79.1319 30.1593 78.5436 29.8761 78.1023 29.5929L 89.2808 29.5929L 89.2808 30.7257C 89.2808 31.0089 89.2808 31.1504 88.9866 31.1504L 86.0449 31.5752C 85.7507 31.5752 85.6037 31.4336 85.6037 31.292L 85.4566 30.5841ZM 77.514 28.7434C 76.7785 27.7522 76.3373 26.1947 76.3373 24.0708C 76.3373 23.3628 76.3373 22.6549 76.3373 22.0885L 80.4557 22.0885C 80.6028 23.5044 80.6028 24.354 80.6028 24.9204C 80.7498 25.4867 80.8969 26.0531 81.1911 26.3363C 81.6324 27.0442 82.662 27.3274 84.1328 27.3274C 84.5741 27.3274 84.8682 27.3274 85.1624 27.3274C 85.1624 26.9027 85.1624 26.4779 85.1624 26.3363C 85.1624 26.0531 85.3095 25.9115 85.6037 25.9115L 88.8395 25.4867C 89.1337 25.4867 89.2808 25.6283 89.2808 25.9115L 89.2808 28.7434L 77.514 28.7434ZM 76.3373 19.2566C 76.4844 18.1239 76.4844 16.9911 76.4844 16.1416C 76.4844 15.292 76.6315 14.5841 76.6315 13.7345L 80.7498 13.7345C 80.7498 15.1504 80.6028 16.2832 80.6028 17.5575L 78.2494 17.5575L 78.1023 18.4071L 80.6028 18.4071L 80.6028 19.2566L 76.3373 19.2566ZM 108.696 10.1947C 108.696 10.3363 108.843 10.3363 108.843 10.3363L 108.696 10.1947ZM 110.314 13.7345C 110.461 14.4425 110.461 15.1504 110.461 15.8584C 110.461 16.708 110.461 17.8407 110.461 19.2566L 95.6055 19.2566C 97.3705 18.4071 99.8709 17.9823 103.401 17.9823C 104.284 17.9823 105.019 18.1239 106.049 18.1239C 106.049 17.8407 106.049 17.4159 106.049 17.1327L 106.049 16.4248C 106.049 15.292 105.754 14.4425 105.166 13.7345L 110.314 13.7345ZM 110.461 20.1062L 110.314 23.9292C 110.167 24.6372 110.167 25.3451 110.167 26.0531L 110.02 27.7522L 111.197 27.7522C 111.638 27.7522 112.226 27.6106 112.814 27.6106C 112.962 27.6106 113.109 27.7522 113.109 28.0354L 113.109 28.7434L 93.5463 28.7434C 92.8108 27.7522 92.3696 26.4779 92.3696 25.0619C 92.3696 23.9292 92.5167 22.9381 92.9579 22.0885L 98.253 22.0885C 97.3705 22.5133 96.9292 23.3628 96.9292 24.354C 96.9292 26.7611 98.253 27.8938 100.901 27.8938C 102.371 27.8938 103.989 27.469 105.901 26.6195C 105.901 25.7699 105.901 24.9204 105.901 23.9292C 105.901 23.2212 105.901 22.6549 105.901 22.0885L 110.314 22.0885L 110.461 20.1062ZM 112.962 29.5929L 112.814 31.0089C 112.814 31.1504 112.667 31.292 112.373 31.292L 106.637 31.7168C 106.49 31.7168 106.343 31.5752 106.343 31.292L 106.637 29.5929L 112.962 29.5929ZM 105.901 29.5929C 103.989 30.8673 101.783 31.5752 99.4297 31.5752C 97.5176 31.5752 95.7525 31.0089 94.4288 29.8761L 94.4288 29.7345L 96.488 29.7345L 96.488 29.5929L 105.901 29.5929ZM 98.253 13.7345L 98.4001 14.4425C 98.4001 14.7257 98.4001 14.8673 98.4001 15.0088C 98.4001 15.292 98.253 15.4336 97.9588 15.4336L 94.5759 15.5752C 94.4288 15.5752 94.2817 15.4336 94.1346 15.1504L 93.8404 9.62832L 94.1346 13.7345L 98.253 13.7345ZM 126.052 30.5841C 125.464 30.7257 124.434 30.7257 123.258 30.7257C 121.934 30.7257 121.051 30.5841 120.169 30.3009C 119.58 30.1593 119.139 29.8761 118.698 29.5929L 129.876 29.5929L 129.876 30.7257C 129.876 31.0089 129.729 31.1504 129.582 31.1504L 126.64 31.5752C 126.346 31.5752 126.199 31.4336 126.052 31.292L 126.052 30.5841ZM 117.962 28.7434C 117.227 27.7522 116.786 26.1947 116.786 24.0708C 116.786 23.3628 116.786 22.6549 116.786 22.0885L 121.051 22.0885C 121.051 23.5044 121.051 24.354 121.198 24.9204C 121.198 25.4867 121.492 26.0531 121.787 26.3363C 122.228 27.0442 123.11 27.3274 124.581 27.3274C 125.023 27.3274 125.317 27.3274 125.758 27.3274C 125.758 26.9027 125.611 26.4779 125.611 26.3363C 125.611 26.0531 125.758 25.9115 126.052 25.9115L 129.288 25.4867C 129.582 25.4867 129.729 25.6283 129.729 25.9115L 129.876 28.7434L 117.962 28.7434ZM 116.933 19.2566C 116.933 18.1239 116.933 16.9911 117.08 16.1416C 117.08 15.292 117.08 14.5841 117.08 13.7345L 121.345 13.7345C 121.198 15.7168 121.051 17.5575 121.051 19.2566L 116.933 19.2566ZM 133.848 31.0089C 133.553 31.0089 133.553 30.8673 133.553 30.5841L 133.553 29.5929L 142.967 29.5929L 142.82 30.1593C 142.82 30.3009 142.82 30.4425 142.673 30.4425C 142.673 30.5841 142.526 30.5841 142.379 30.5841L 133.848 31.0089ZM 133.553 28.7434L 133.553 27.7522C 133.553 27.469 133.701 27.3274 133.848 27.3274L 136.201 27.3274L 136.348 22.0885L 140.614 22.0885L 140.614 27.3274L 142.82 27.3274C 143.114 27.3274 143.261 27.469 143.261 27.7522L 143.114 28.7434L 133.553 28.7434ZM 136.348 19.2566L 136.348 14.0177L 133.112 13.7345L 133.848 13.7345L 140.614 13.7345L 140.614 19.2566L 136.348 19.2566ZM 162.529 13.7345L 162.529 15.8584C 162.529 16.1416 162.382 16.4248 162.088 16.4248L 158.852 16.8496C 158.558 16.8496 158.411 16.708 158.411 16.4248L 158.411 13.7345L 162.382 13.7345L 162.529 13.7345ZM 152.38 13.7345C 152.086 14.0177 151.792 14.3009 151.498 14.7257C 150.91 15.7168 150.468 17.1327 150.468 19.2566L 146.203 19.2566C 146.203 17.6991 146.35 16.5664 146.497 15.7168C 146.644 15.0088 146.791 14.3009 146.938 13.7345L 152.38 13.7345ZM 150.468 22.0885C 150.762 24.7788 151.498 26.4779 152.969 26.9027C 153.41 27.0442 153.998 27.1858 154.734 27.1858C 155.763 27.1858 156.793 27.0442 158.117 26.7611L 158.264 25.4867C 158.264 25.2035 158.411 25.0619 158.558 25.0619L 161.794 25.0619C 161.941 25.2035 162.088 25.3451 162.088 25.6283L 162.235 28.7434L 148.262 28.7434L 148.115 28.6018C 146.938 27.1858 146.35 24.9204 146.203 22.0885L 150.468 22.0885ZM 162.235 29.5929L 162.382 31.5752C 162.382 31.8584 162.235 32 162.088 32L 158.264 32C 157.97 32 157.97 31.8584 157.823 31.5752L 157.97 30.4425C 153.998 31.292 151.057 30.8673 149.145 29.5929L 162.235 29.5929ZM 1.61794 28.7434L 11.1785 28.7434L 11.1785 28.885L 14.4144 28.885L 14.4144 29.5929L 1.76502 29.5929L 1.61794 28.7434ZM 26.3283 28.7434L 45.8906 28.7434L 45.7435 29.5929L 39.4189 29.5929L 39.4189 29.0265C 39.2718 29.1681 38.9776 29.4513 38.6834 29.5929L 26.9166 29.5929C 26.7695 29.3097 26.4754 29.0265 26.3283 28.7434ZM 50.1561 28.7434L 59.2754 28.7434L 59.1283 29.5929L 50.1561 29.5929L 50.1561 28.7434ZM 65.1588 28.7434L 71.7776 28.7434L 71.7776 29.5929L 65.1588 29.5929L 65.1588 28.7434ZM 77.8081 28.7434L 89.7221 28.7434L 89.7221 29.5929L 78.5436 29.5929C 78.3965 29.4513 78.2494 29.3097 78.2494 29.1681C 78.1023 29.0265 77.9552 28.885 77.8081 28.7434ZM 93.9875 28.7434L 113.403 28.7434L 113.403 29.5929L 106.931 29.5929L 107.078 29.0265C 106.784 29.1681 106.637 29.4513 106.343 29.5929L 94.5759 29.5929C 94.2817 29.3097 94.1346 29.0265 93.9875 28.7434ZM 118.404 28.7434L 130.171 28.7434L 130.171 29.5929L 118.992 29.5929C 118.992 29.4513 118.845 29.3097 118.698 29.1681C 118.551 29.0265 118.404 28.885 118.404 28.7434ZM 133.848 28.7434L 143.408 28.7434L 143.261 29.5929L 133.848 29.5929L 133.848 28.7434ZM 148.703 28.7434L 162.676 28.7434L 162.676 29.5929L 149.586 29.5929C 149.292 29.3097 148.997 29.0265 148.703 28.7434ZM 13.9731 28.885L 13.9731 27.8938L 17.0619 27.8938L 17.209 28.885L 13.9731 28.885ZM 9.70763 19.2566L 9.70763 22.0885L 5.29507 22.0885L 5.29507 19.2566L 9.70763 19.2566ZM 29.27 19.2566L 44.1256 19.2566L 44.1256 20.1062L 43.9785 22.0885L 39.566 22.0885L 39.713 20.8142C 36.183 20.8142 33.8296 21.0973 32.3588 21.8053C 32.2117 21.8053 32.0646 21.9469 31.9175 22.0885L 26.6224 22.0885C 27.0637 20.9558 27.7991 20.1062 28.9758 19.3982C 28.9758 19.3982 29.1229 19.2566 29.27 19.2566ZM 53.5391 19.2566L 57.6575 19.2566L 57.8045 22.0885L 53.5391 22.0885L 53.5391 19.2566ZM 66.1884 19.2566L 70.3068 19.2566L 70.3068 19.3982L 70.3068 21.3805L 70.3068 22.0885L 66.1884 22.0885L 66.1884 21.0973L 66.1884 19.2566ZM 77.6611 19.2566L 81.7794 19.2566C 81.7794 19.6814 81.7794 20.2478 81.7794 20.6726C 81.7794 21.0973 81.7794 21.6637 81.7794 22.0885L 77.6611 22.0885C 77.6611 21.2389 77.6611 20.531 77.6611 19.823L 77.6611 19.2566ZM 96.9292 19.2566L 111.785 19.2566L 111.638 20.1062L 111.638 22.0885L 107.225 22.0885L 107.225 20.8142C 103.842 20.8142 101.342 21.0973 100.018 21.8053C 99.8709 21.8053 99.5768 21.9469 99.4297 22.0885L 94.2817 22.0885C 94.723 20.9558 95.4584 20.1062 96.488 19.3982C 96.6351 19.3982 96.7822 19.2566 96.9292 19.2566ZM 118.257 19.2566L 122.375 19.2566C 122.375 19.6814 122.375 20.2478 122.375 20.6726C 122.375 21.0973 122.375 21.6637 122.375 22.0885L 118.11 22.0885C 118.11 21.2389 118.11 20.531 118.257 19.823L 118.257 19.2566ZM 137.672 19.2566L 141.937 19.2566L 141.937 22.0885L 137.525 22.0885L 137.672 19.2566ZM 147.527 19.2566L 151.645 19.2566C 151.645 19.5398 151.645 19.9646 151.645 20.2478C 151.645 20.8142 151.792 21.5221 151.792 22.0885L 147.527 22.0885C 147.527 21.6637 147.527 21.2389 147.527 20.9558C 147.527 20.3894 147.527 19.823 147.527 19.2566ZM 0.588341 5.80531C 0.441256 5.80531 0.294171 5.66372 0.294171 5.52212L 0.588341 1.9823C 0.588341 1.69912 0.735427 1.55752 0.882512 1.55752L 15.444 1.84071L 15.444 0.849558C 15.444 0.566372 15.591 0.424779 15.8852 0.283186L 18.974 0C 19.1211 0 19.2682 0.141593 19.4153 0.424779L 20.4449 8.49557C 20.4449 8.63717 20.2978 8.77876 20.0036 8.77876L 16.3265 9.06195C 15.8852 9.06195 15.591 8.92035 15.591 8.35398L 15.444 5.80531L 7.79552 5.52212L 7.64844 13.7345L 3.82422 13.7345C 3.67713 13.7345 3.38296 13.7345 3.23588 13.7345L 3.23588 10.4779L 6.47175 10.4779L 6.47175 9.48673L 3.23588 9.48673L 3.23588 5.66372L 0.588341 5.80531ZM 161.647 13.7345L 161.5 13.7345L 157.528 13.7345L 157.528 13.1681C 156.646 13.0265 155.763 12.885 154.881 12.885C 153.851 12.885 152.969 13.0265 152.233 13.4513C 152.086 13.4513 151.792 13.5929 151.498 13.7345L 146.056 13.7345C 146.203 13.4513 146.35 13.0265 146.497 12.7434C 146.644 12.3186 146.791 12.0354 147.085 11.6106L 149.586 11.6106L 149.586 10.7611L 147.821 10.7611C 148.409 10.1947 149.145 9.62832 149.88 9.34513C 150.762 9.06195 151.792 8.77876 153.116 8.77876C 154.293 8.77876 155.763 9.06195 157.234 9.34513L 160.911 8.77876C 161.206 8.77876 161.353 8.92035 161.353 9.20354L 161.647 13.7345ZM 139.878 13.7345L 132.965 13.7345L 132.23 13.7345C 132.083 13.7345 131.936 13.5929 131.936 13.3097L 132.377 10.1947C 132.377 9.9115 132.524 9.76991 132.818 9.76991L 139.143 9.20354C 139.29 9.20354 139.437 9.20354 139.437 9.20354C 139.584 9.34513 139.584 9.48673 139.584 9.62832L 139.878 13.0265L 139.878 13.7345ZM 120.463 13.7345L 116.197 13.7345L 116.197 12.885L 113.55 12.7434C 113.403 12.7434 113.256 12.6018 113.256 12.177L 113.256 10.0531C 113.256 9.76991 113.403 9.62832 113.697 9.62832L 116.344 9.48673C 116.492 8.92035 116.492 8.21239 116.492 7.64602L 116.639 4.81416C 116.639 4.10619 116.786 3.68142 116.786 3.68142C 116.933 3.53982 116.933 3.53982 117.227 3.39823L 120.904 2.97345C 121.051 2.97345 121.198 3.11504 121.198 3.39823C 121.198 3.82301 121.198 4.81416 121.051 6.23009L 120.757 9.48673L 128.553 9.20354C 128.847 9.20354 128.994 9.34513 128.994 9.62832L 128.994 12.7434C 128.994 13.0265 128.847 13.1681 128.553 13.1681L 120.463 12.885L 120.463 13.7345ZM 109.431 13.7345L 104.284 13.7345C 103.842 13.1681 102.96 12.7434 101.783 12.7434C 100.606 12.7434 99.1355 13.1681 97.3705 13.7345L 93.2521 13.7345L 92.9579 9.76991C 92.9579 9.34513 93.105 9.20354 93.3992 9.20354L 96.7822 8.77876C 97.0763 8.77876 97.2234 8.92035 97.2234 9.20354L 97.2234 10.7611C 99.5768 9.48673 101.636 8.92035 103.695 8.92035C 107.078 8.92035 108.843 10.4779 109.431 13.7345ZM 79.8673 13.7345L 75.7489 13.7345L 75.7489 12.885L 73.1014 12.7434C 72.8072 12.7434 72.6602 12.6018 72.6602 12.177L 72.6602 10.0531C 72.6602 9.76991 72.8072 9.62832 73.1014 9.62832L 75.896 9.48673C 75.896 8.92035 75.896 8.21239 76.0431 7.64602L 76.1902 4.81416C 76.1902 4.10619 76.1902 3.68142 76.3373 3.68142C 76.3373 3.53982 76.4844 3.53982 76.6315 3.39823L 80.3086 3.11504C 80.6028 3.11504 80.7498 3.11504 80.7498 3.39823C 80.7498 3.82301 80.6028 4.81416 80.6028 6.23009L 80.1615 9.48673L 87.957 9.20354C 88.2512 9.20354 88.3983 9.34513 88.3983 9.62832L 88.3983 12.7434C 88.3983 13.0265 88.2512 13.1681 87.957 13.1681L 80.0144 12.885L 79.8673 13.7345ZM 68.1005 13.7345L 62.6584 13.7345C 62.2171 13.5929 61.7758 13.5929 61.1875 13.5929C 60.5992 13.5929 60.1579 13.5929 59.5696 13.7345L 47.9498 13.7345L 47.9498 13.5929L 48.244 10.1947C 48.244 10.0531 48.3911 9.9115 48.6852 9.9115L 54.1274 9.06195C 54.4216 9.06195 54.5687 9.20354 54.5687 9.48673L 54.5687 12.7434C 57.2162 10.1947 60.0108 8.92035 62.5113 8.92035C 64.2763 8.92035 65.453 9.34513 66.4826 10.1947L 64.1292 10.1947L 64.4234 11.3274L 67.3651 11.3274C 67.6593 11.8938 67.8063 12.4602 67.9534 13.0265C 67.9534 13.3097 68.1005 13.5929 68.1005 13.7345ZM 41.7722 13.7345L 36.7713 13.7345C 36.183 13.1681 35.3005 12.7434 34.1238 12.7434C 32.9471 12.7434 31.4763 13.1681 29.8583 13.7345L 25.5928 13.7345L 25.4458 9.76991C 25.4458 9.34513 25.5928 9.20354 25.887 9.20354L 29.1229 8.77876C 29.4171 8.77876 29.5642 8.92035 29.5642 9.20354L 29.5642 10.7611C 31.9175 9.48673 34.1238 8.92035 36.183 8.92035C 39.4189 8.92035 41.331 10.4779 41.7722 13.7345ZM 139.143 4.81416C 138.849 5.09735 138.554 5.23894 138.113 5.23894C 137.672 5.23894 137.084 5.38053 136.495 5.38053C 135.907 5.38053 135.466 5.23894 135.171 5.23894C 134.877 5.23894 134.583 5.09735 134.436 4.95575C 134.142 4.53097 133.995 4.10619 133.995 3.25664C 133.995 2.54867 133.995 1.9823 134.142 1.55752C 134.289 1.27434 134.436 0.99115 134.583 0.849558C 135.024 0.424779 135.76 0.283186 136.642 0.283186C 137.525 0.283186 138.26 0.283186 138.554 0.424779C 138.849 0.424779 139.143 0.566372 139.29 0.707965C 139.584 0.99115 139.731 1.55752 139.731 2.26549C 139.731 3.11504 139.731 3.68142 139.584 4.10619C 139.437 4.38938 139.29 4.67257 139.143 4.81416ZM 0 10.4779L 0 9.48673L 3.23588 9.48673L 3.23588 10.4779L 0 10.4779Z"/>
<path id="path1_fill" fill-rule="evenodd" d="M 21.7686 24.354L 21.9157 23.0796L 25.0045 23.0796L 24.7103 24.354L 21.7686 24.354ZM 144.585 11.6106L 145.173 10.7611L 147.821 10.7611L 147.085 11.6106L 144.585 11.6106ZM 80.4557 18.4071L 80.4557 17.5575L 82.2207 17.5575L 82.2207 18.4071L 80.4557 18.4071ZM 70.3068 11.3274L 70.0126 10.1947L 66.3355 10.1947L 67.218 11.3274L 70.3068 11.3274ZM 8.38386 13.7345L 8.38386 14.5841L 18.6798 14.5841C 18.8269 14.5841 18.974 14.7257 18.974 14.8673L 18.8269 17.9823C 18.8269 18.2655 18.6798 18.4071 18.2386 18.4071L 8.38386 18.1239L 8.38386 19.2566L 3.9713 19.2566L 4.11839 5.52212L 4.11839 13.7345C 4.26547 13.7345 4.41256 13.7345 4.70673 13.7345L 8.38386 13.7345ZM 8.23678 22.0885L 8.23678 26.7611L 13.3848 26.4779C 13.6789 26.4779 13.826 26.6195 13.826 26.9027L 13.826 27.8938L 10.7372 27.8938L 10.7372 28.7434L 1.17668 28.7434L 1.17668 27.0442C 1.17668 26.7611 1.17668 26.6195 1.47085 26.6195L 3.9713 26.7611L 3.9713 22.0885L 8.23678 22.0885ZM 13.9731 28.885L 13.9731 30.1593C 13.9731 30.3009 13.9731 30.4425 13.9731 30.5841C 13.826 30.5841 13.826 30.5841 13.6789 30.5841L 1.76502 30.8673C 1.61794 30.8673 1.47085 30.8673 1.47085 30.7257C 1.32377 30.7257 1.32377 30.5841 1.32377 30.4425L 1.32377 29.5929L 13.9731 29.5929L 13.9731 28.885ZM 41.0368 10.1947C 41.0368 10.3363 41.1839 10.3363 41.1839 10.3363L 41.0368 10.1947ZM 42.6547 13.7345C 42.8018 14.4425 42.8018 15.1504 42.8018 15.8584C 42.8018 16.708 42.8018 17.8407 42.8018 19.2566L 27.9462 19.2566C 29.5642 18.4071 32.2117 17.9823 35.7417 17.9823C 36.6242 17.9823 37.3597 18.1239 38.2422 18.1239C 38.3893 17.8407 38.3893 17.4159 38.3893 17.1327L 38.3893 16.4248C 38.3893 15.292 38.0951 14.4425 37.5068 13.7345L 42.6547 13.7345ZM 42.6547 20.1062L 42.6547 23.9292C 42.5077 24.6372 42.5077 25.3451 42.5077 26.0531L 42.3606 27.7522L 43.5373 27.7522C 43.9785 27.7522 44.5669 27.6106 45.0081 27.6106C 45.3023 27.6106 45.4494 27.7522 45.4494 28.0354L 45.4494 28.7434L 25.887 28.7434C 25.1516 27.7522 24.7103 26.4779 24.7103 25.0619C 24.7103 24.6372 24.7103 24.6372 24.7103 24.354L 27.9462 24.354L 27.7991 23.0796L 24.8574 23.0796C 25.0045 22.7965 25.1516 22.3717 25.2987 22.0885L 30.4467 22.0885C 29.7112 22.5133 29.27 23.3628 29.27 24.354C 29.27 26.7611 30.5937 27.8938 33.2413 27.8938C 34.7121 27.8938 36.3301 27.469 38.2422 26.6195C 38.2422 25.7699 38.2422 24.9204 38.2422 23.9292C 38.2422 23.2212 38.2422 22.6549 38.2422 22.0885L 42.6547 22.0885L 42.6547 20.1062ZM 45.3023 29.5929L 45.1552 31.0089C 45.1552 31.1504 45.0081 31.292 44.7139 31.292L 38.9776 31.7168C 38.8305 31.7168 38.6834 31.5752 38.6834 31.292L 38.9776 29.5929L 45.3023 29.5929ZM 38.2422 29.5929C 36.3301 30.8673 34.1238 31.5752 31.7704 31.5752C 29.7112 31.5752 28.0933 31.0089 26.7695 29.8761C 26.7695 29.7345 26.6224 29.5929 26.4754 29.5929L 38.2422 29.5929ZM 30.5937 13.7345L 30.7408 14.4425C 30.7408 14.7257 30.7408 14.8673 30.7408 15.0088C 30.7408 15.292 30.5937 15.4336 30.2996 15.4336L 26.9166 15.5752C 26.7695 15.5752 26.6224 15.4336 26.4754 15.1504L 26.1812 9.62832L 26.4754 13.7345L 30.5937 13.7345ZM 60.305 13.7345C 59.1283 14.0177 57.6575 14.5841 56.1866 15.5752L 56.3337 19.2566L 52.0682 19.2566L 52.0682 14.0177L 49.1265 14.0177C 48.9794 14.0177 48.8323 13.8761 48.6852 13.7345L 60.305 13.7345ZM 56.3337 22.0885L 56.4808 26.9027L 58.687 26.7611C 58.8341 26.7611 58.9812 26.9027 58.9812 27.0442L 58.8341 28.7434L 49.7148 28.7434L 50.009 27.0442C 50.009 26.7611 50.1561 26.6195 50.4503 26.6195L 52.0682 26.6195L 52.0682 22.0885L 56.3337 22.0885ZM 58.687 29.5929L 58.54 30.0177C 58.54 30.3009 58.3929 30.4425 58.2458 30.4425L 49.8619 30.4425C 49.7148 30.4425 49.5678 30.3009 49.5678 30.0177L 49.7148 29.5929L 58.687 29.5929ZM 68.8359 13.7345C 68.983 14.4425 68.983 15.0088 68.983 15.5752C 68.983 16.4248 68.983 16.9911 68.983 17.5575C 68.983 18.1239 68.983 18.6903 68.983 19.2566L 64.8646 19.2566L 64.8646 17.6991C 64.8646 16.1416 64.7175 15.1504 64.4234 14.5841C 64.1292 14.1593 63.835 13.8761 63.3938 13.7345L 68.8359 13.7345ZM 68.8359 22.0885L 68.8359 23.3628L 68.6889 25.4867C 68.6889 26.0531 68.6889 26.6195 68.6889 27.1858L 70.8951 27.1858C 71.1893 27.1858 71.3364 27.3274 71.3364 27.6106L 71.3364 28.7434L 64.7175 28.7434C 64.8646 28.177 64.8646 27.469 64.8646 26.9027L 64.8646 23.646L 64.8646 22.0885L 68.8359 22.0885ZM 71.3364 29.5929L 71.3364 30.4425C 71.3364 30.5841 71.3364 30.5841 71.3364 30.7257C 71.1893 30.7257 71.0422 30.7257 70.8951 30.7257L 65.1588 31.1504C 64.8646 31.1504 64.7175 31.0089 64.7175 30.7257L 64.7175 29.5929L 71.3364 29.5929ZM 85.4566 30.5841C 84.8682 30.7257 83.8386 30.7257 82.662 30.7257C 81.4853 30.7257 80.4557 30.5841 79.7203 30.3009C 79.1319 30.1593 78.5436 29.8761 78.1023 29.5929L 89.2808 29.5929L 89.2808 30.7257C 89.2808 31.0089 89.1337 31.1504 88.9866 31.1504L 86.0449 31.5752C 85.7507 31.5752 85.6037 31.4336 85.6037 31.292L 85.4566 30.5841ZM 77.3669 28.7434C 76.6315 27.7522 76.3373 26.1947 76.3373 24.0708C 76.3373 23.3628 76.3373 22.6549 76.3373 22.0885L 80.4557 22.0885C 80.4557 23.5044 80.6028 24.354 80.6028 24.9204C 80.7498 25.4867 80.8969 26.0531 81.1911 26.3363C 81.6324 27.0442 82.5149 27.3274 83.9857 27.3274C 84.427 27.3274 84.8682 27.3274 85.1624 27.3274C 85.1624 26.9027 85.1624 26.4779 85.1624 26.3363C 85.1624 26.0531 85.1624 25.9115 85.4566 25.9115L 88.8395 25.4867C 89.1337 25.4867 89.1337 25.6283 89.1337 25.9115L 89.2808 28.7434L 77.3669 28.7434ZM 76.3373 19.2566C 76.3373 18.1239 76.4844 16.9911 76.4844 16.1416C 76.4844 15.292 76.4844 14.5841 76.4844 13.7345L 80.7498 13.7345C 80.6028 15.1504 80.6028 16.2832 80.4557 17.5575L 78.1023 17.5575L 78.1023 18.4071L 80.4557 18.4071L 80.4557 19.2566L 76.3373 19.2566ZM 108.549 10.1947C 108.696 10.3363 108.696 10.3363 108.843 10.3363L 108.549 10.1947ZM 110.314 13.7345C 110.314 14.4425 110.461 15.1504 110.461 15.8584C 110.461 16.708 110.461 17.8407 110.314 19.2566L 95.6055 19.2566C 97.2234 18.4071 99.8709 17.9823 103.401 17.9823C 104.136 17.9823 105.019 18.1239 105.901 18.1239C 105.901 17.8407 105.901 17.4159 105.901 17.1327L 105.901 16.4248C 105.901 15.292 105.754 14.4425 105.166 13.7345L 110.314 13.7345ZM 110.314 20.1062L 110.167 23.9292C 110.167 24.6372 110.167 25.3451 110.167 26.0531L 110.02 27.7522L 111.197 27.7522C 111.638 27.7522 112.079 27.6106 112.667 27.6106C 112.962 27.6106 113.109 27.7522 113.109 28.0354L 112.962 28.7434L 93.5463 28.7434C 92.6638 27.7522 92.3696 26.4779 92.3696 25.0619C 92.3696 23.9292 92.5167 22.9381 92.8108 22.0885L 98.1059 22.0885C 97.2234 22.5133 96.7822 23.3628 96.7822 24.354C 96.7822 26.7611 98.1059 27.8938 100.753 27.8938C 102.371 27.8938 103.989 27.469 105.754 26.6195C 105.901 25.7699 105.901 24.9204 105.901 23.9292C 105.901 23.2212 105.901 22.6549 105.901 22.0885L 110.314 22.0885L 110.314 20.1062ZM 112.962 29.5929L 112.814 31.0089C 112.667 31.1504 112.52 31.292 112.373 31.292L 106.637 31.7168C 106.343 31.7168 106.343 31.5752 106.343 31.292L 106.49 29.5929L 112.962 29.5929ZM 105.901 29.5929C 103.842 30.8673 101.783 31.5752 99.4297 31.5752C 97.3705 31.5752 95.7525 31.0089 94.4288 29.8761L 94.4288 29.7345L 96.3409 29.7345L 96.3409 29.5929L 105.901 29.5929ZM 98.253 13.7345L 98.253 14.4425C 98.253 14.7257 98.253 14.8673 98.253 15.0088C 98.253 15.292 98.253 15.4336 97.9588 15.4336L 94.5759 15.5752C 94.2817 15.5752 94.1346 15.4336 94.1346 15.1504L 93.8404 9.62832L 94.1346 13.7345L 98.253 13.7345ZM 125.905 30.5841C 125.317 30.7257 124.434 30.7257 123.11 30.7257C 121.934 30.7257 120.904 30.5841 120.169 30.3009C 119.58 30.1593 118.992 29.8761 118.551 29.5929L 129.729 29.5929L 129.729 30.7257C 129.729 31.0089 129.729 31.1504 129.435 31.1504L 126.493 31.5752C 126.199 31.5752 126.052 31.4336 126.052 31.292L 125.905 30.5841ZM 117.962 28.7434C 117.08 27.7522 116.786 26.1947 116.786 24.0708C 116.786 23.3628 116.786 22.6549 116.786 22.0885L 120.904 22.0885C 121.051 23.5044 121.051 24.354 121.051 24.9204C 121.198 25.4867 121.345 26.0531 121.64 26.3363C 122.081 27.0442 123.11 27.3274 124.581 27.3274C 124.875 27.3274 125.317 27.3274 125.611 27.3274C 125.611 26.9027 125.611 26.4779 125.611 26.3363C 125.611 26.0531 125.758 25.9115 126.052 25.9115L 129.288 25.4867C 129.582 25.4867 129.729 25.6283 129.729 25.9115L 129.729 28.7434L 117.962 28.7434ZM 116.786 19.2566C 116.933 18.1239 116.933 16.9911 116.933 16.1416C 116.933 15.292 116.933 14.5841 117.08 13.7345L 121.198 13.7345C 121.051 15.7168 121.051 17.5575 120.904 19.2566L 116.786 19.2566ZM 133.701 31.0089C 133.553 31.0089 133.406 30.8673 133.406 30.5841L 133.406 29.5929L 142.82 29.5929L 142.82 30.1593C 142.82 30.3009 142.673 30.4425 142.673 30.4425C 142.526 30.5841 142.526 30.5841 142.379 30.5841L 133.701 31.0089ZM 133.406 28.7434L 133.406 27.7522C 133.406 27.469 133.553 27.3274 133.848 27.3274L 136.201 27.3274L 136.201 22.0885L 140.614 22.0885L 140.614 27.3274L 142.82 27.3274C 142.967 27.3274 143.114 27.469 143.114 27.7522L 142.967 28.7434L 133.406 28.7434ZM 136.201 19.2566L 136.348 14.0177L 133.112 13.7345L 133.701 13.7345L 140.614 13.7345L 140.614 19.2566L 136.201 19.2566ZM 162.382 13.7345L 162.529 15.8584C 162.529 16.1416 162.382 16.4248 162.088 16.4248L 158.852 16.8496C 158.558 16.8496 158.411 16.708 158.411 16.4248L 158.411 13.7345L 162.235 13.7345L 162.382 13.7345ZM 152.38 13.7345C 151.939 14.0177 151.645 14.3009 151.351 14.7257C 150.762 15.7168 150.468 17.1327 150.321 19.2566L 146.203 19.2566C 146.203 17.6991 146.35 16.5664 146.497 15.7168C 146.644 15.0088 146.791 14.3009 146.938 13.7345L 152.38 13.7345ZM 150.468 22.0885C 150.615 24.7788 151.498 26.4779 152.822 26.9027C 153.41 27.0442 153.998 27.1858 154.587 27.1858C 155.616 27.1858 156.793 27.0442 158.117 26.7611L 158.117 25.4867C 158.117 25.2035 158.264 25.0619 158.558 25.0619L 161.647 25.0619C 161.941 25.2035 161.941 25.3451 161.941 25.6283L 162.235 28.7434L 148.262 28.7434C 148.115 28.7434 148.115 28.6018 148.115 28.6018C 146.938 27.1858 146.35 24.9204 146.203 22.0885L 150.468 22.0885ZM 162.235 29.5929L 162.382 31.5752C 162.382 31.8584 162.235 32 161.941 32L 158.117 32C 157.97 32 157.823 31.8584 157.823 31.5752L 157.823 30.4425C 153.851 31.292 150.91 30.8673 149.145 29.5929L 162.235 29.5929ZM 1.61794 28.7434L 11.0314 28.7434L 11.0314 28.885L 14.2673 28.885L 14.4144 29.5929L 1.61794 29.5929L 1.61794 28.7434ZM 26.1812 28.7434L 45.7435 28.7434L 45.7435 29.5929L 39.2718 29.5929L 39.4189 29.0265C 39.1247 29.1681 38.9776 29.4513 38.6834 29.5929L 26.9166 29.5929C 26.6224 29.3097 26.4754 29.0265 26.1812 28.7434ZM 50.1561 28.7434L 59.1283 28.7434L 58.9812 29.5929L 50.009 29.5929L 50.1561 28.7434ZM 65.1588 28.7434L 71.7776 28.7434L 71.7776 29.5929L 65.1588 29.5929L 65.1588 28.7434ZM 77.8081 28.7434L 89.575 28.7434L 89.575 29.5929L 78.5436 29.5929C 78.3965 29.4513 78.2494 29.3097 78.1023 29.1681C 77.9552 29.0265 77.9552 28.885 77.8081 28.7434ZM 93.8404 28.7434L 113.403 28.7434L 113.256 29.5929L 106.931 29.5929L 106.931 29.0265C 106.784 29.1681 106.49 29.4513 106.343 29.5929L 94.4288 29.5929C 94.2817 29.3097 93.9875 29.0265 93.8404 28.7434ZM 118.257 28.7434L 130.171 28.7434L 130.171 29.5929L 118.992 29.5929C 118.845 29.4513 118.698 29.3097 118.698 29.1681C 118.551 29.0265 118.404 28.885 118.257 28.7434ZM 133.848 28.7434L 143.408 28.7434L 143.261 29.5929L 133.848 29.5929L 133.848 28.7434ZM 148.703 28.7434L 162.529 28.7434L 162.676 29.5929L 149.439 29.5929C 149.145 29.3097 148.85 29.0265 148.703 28.7434ZM 13.9731 28.885L 13.826 27.8938L 17.0619 27.8938L 17.0619 28.885L 13.9731 28.885ZM 9.56055 19.2566L 9.56055 22.0885L 5.29507 22.0885L 5.29507 19.2566L 9.56055 19.2566ZM 29.27 19.2566L 43.9785 19.2566L 43.9785 20.1062L 43.9785 22.0885L 39.566 22.0885L 39.566 20.8142C 36.183 20.8142 33.6825 21.0973 32.3588 21.8053C 32.2117 21.8053 31.9175 21.9469 31.7704 22.0885L 26.6224 22.0885C 27.0637 20.9558 27.7991 20.1062 28.8287 19.3982C 28.9758 19.3982 29.1229 19.2566 29.27 19.2566ZM 53.392 19.2566L 57.6575 19.2566L 57.6575 22.0885L 53.392 22.0885L 53.392 19.2566ZM 66.1884 19.2566L 70.3068 19.2566L 70.3068 19.3982L 70.1597 21.3805L 70.1597 22.0885L 66.1884 22.0885L 66.1884 21.0973L 66.1884 19.2566ZM 77.6611 19.2566L 81.7794 19.2566C 81.7794 19.6814 81.7794 20.2478 81.7794 20.6726C 81.7794 21.0973 81.7794 21.6637 81.7794 22.0885L 77.514 22.0885C 77.514 21.2389 77.6611 20.531 77.6611 19.823L 77.6611 19.2566ZM 96.7822 19.2566L 111.638 19.2566L 111.638 20.1062L 111.491 22.0885L 107.225 22.0885L 107.225 20.8142C 103.695 20.8142 101.342 21.0973 100.018 21.8053C 99.7239 21.8053 99.5768 21.9469 99.4297 22.0885L 94.1346 22.0885C 94.5759 20.9558 95.4584 20.1062 96.488 19.3982C 96.6351 19.3982 96.7822 19.2566 96.7822 19.2566ZM 118.11 19.2566L 122.228 19.2566C 122.228 19.6814 122.228 20.2478 122.228 20.6726C 122.228 21.0973 122.228 21.6637 122.228 22.0885L 118.11 22.0885C 118.11 21.2389 118.11 20.531 118.11 19.823L 118.11 19.2566ZM 137.525 19.2566L 141.937 19.2566L 141.937 22.0885L 137.525 22.0885L 137.525 19.2566ZM 147.527 19.2566L 151.645 19.2566C 151.645 19.5398 151.645 19.9646 151.645 20.2478C 151.645 20.8142 151.645 21.5221 151.645 22.0885L 147.527 22.0885C 147.38 21.6637 147.38 21.2389 147.38 20.9558C 147.38 20.3894 147.38 19.823 147.527 19.2566ZM 0.588341 5.80531C 0.441256 5.80531 0.294171 5.66372 0.294171 5.52212L 0.588341 1.9823C 0.588341 1.69912 0.588341 1.55752 0.882512 1.55752L 15.444 1.84071L 15.2969 0.849558C 15.2969 0.566372 15.444 0.283186 15.7381 0.283186L 18.0915 0L 18.974 0C 19.1211 0 19.2682 0.141593 19.2682 0.424779L 20.4449 8.49557C 20.4449 8.63717 20.1507 8.77876 19.8565 8.77876L 16.3265 9.06195C 15.8852 9.20354 15.444 8.92035 15.444 8.35398L 15.444 5.80531L 7.64844 5.52212L 7.50135 13.7345L 3.82422 13.7345C 3.53005 13.7345 3.38296 13.7345 3.23588 13.7345L 3.23588 10.4779L 6.47175 10.4779L 6.47175 9.48673L 3.23588 9.48673L 3.23588 5.66372L 0.588341 5.80531ZM 161.5 13.7345L 161.353 13.7345L 157.528 13.7345L 157.528 13.1681C 156.646 13.0265 155.763 12.885 154.734 12.885C 153.851 12.885 152.969 13.0265 152.233 13.4513C 151.939 13.4513 151.645 13.5929 151.498 13.7345L 146.056 13.7345C 146.203 13.4513 146.203 13.0265 146.35 12.7434C 146.497 12.3186 146.791 12.0354 146.938 11.6106L 149.586 11.6106L 149.586 10.7611L 147.821 10.7611C 148.262 10.1947 148.997 9.62832 149.88 9.34513C 150.762 9.06195 151.792 8.77876 152.969 8.77876C 154.293 8.77876 155.616 9.06195 157.234 9.34513L 160.911 8.77876C 161.206 8.77876 161.353 8.92035 161.353 9.20354L 161.5 13.7345ZM 139.731 13.7345L 132.818 13.7345L 132.23 13.7345C 131.936 13.7345 131.936 13.5929 131.936 13.3097L 132.377 10.1947C 132.377 9.9115 132.524 9.76991 132.818 9.76991L 139.143 9.20354C 139.29 9.20354 139.437 9.20354 139.437 9.20354C 139.437 9.34513 139.437 9.48673 139.437 9.62832L 139.731 13.0265L 139.731 13.7345ZM 120.316 13.7345L 116.197 13.7345L 116.197 12.885L 113.55 12.7434C 113.256 12.7434 113.109 12.6018 113.109 12.177L 113.109 10.0531C 113.109 9.76991 113.256 9.62832 113.55 9.62832L 116.344 9.48673C 116.344 8.92035 116.344 8.21239 116.492 7.64602L 116.639 4.81416C 116.639 4.10619 116.639 3.68142 116.786 3.68142C 116.786 3.53982 116.933 3.53982 117.08 3.39823L 120.757 2.97345C 121.051 2.97345 121.198 3.11504 121.198 3.39823C 121.198 3.82301 121.051 4.81416 120.904 6.23009L 120.61 9.48673L 128.405 9.20354C 128.7 9.20354 128.847 9.34513 128.847 9.62832L 128.847 12.7434C 128.847 13.0265 128.7 13.1681 128.405 13.1681L 120.463 12.885L 120.316 13.7345ZM 109.431 13.7345L 104.284 13.7345C 103.695 13.1681 102.813 12.7434 101.636 12.7434C 100.459 12.7434 99.1355 13.1681 97.3705 13.7345L 93.2521 13.7345L 92.9579 9.76991C 92.9579 9.34513 93.105 9.20354 93.3992 9.20354L 96.6351 8.77876C 96.9292 8.77876 97.0763 8.92035 97.0763 9.20354L 97.0763 10.7611C 99.4297 9.48673 101.636 8.92035 103.695 8.92035C 106.931 8.92035 108.843 10.4779 109.431 13.7345ZM 79.8673 13.7345L 75.6019 13.7345L 75.7489 12.885L 73.1014 12.7434C 72.8072 12.7434 72.6602 12.6018 72.6602 12.177L 72.6602 10.0531C 72.6602 9.76991 72.8072 9.62832 73.1014 9.62832L 75.896 9.48673C 75.896 8.92035 75.896 8.21239 75.896 7.64602L 76.0431 4.81416C 76.0431 4.10619 76.1902 3.68142 76.1902 3.68142C 76.3373 3.53982 76.4844 3.53982 76.6315 3.39823L 80.1615 2.97345C 80.4557 2.83186 80.7498 3.11504 80.7498 3.39823C 80.7498 3.82301 80.6028 4.81416 80.4557 6.23009L 80.1615 9.48673L 87.2216 9.20354L 87.957 9.20354C 88.2512 9.20354 88.3983 9.34513 88.3983 9.62832L 88.3983 12.7434C 88.3983 13.0265 88.2512 13.1681 87.957 13.1681L 87.0745 13.1681L 79.8673 12.885L 79.8673 13.7345ZM 67.9534 13.7345L 62.5113 13.7345C 62.2171 13.5929 61.7758 13.5929 61.1875 13.5929C 60.5992 13.5929 60.0108 13.5929 59.4225 13.7345L 47.8027 13.7345L 47.8027 13.5929L 48.244 10.1947C 48.244 10.0531 48.3911 9.9115 48.6852 9.9115L 54.1274 9.06195C 54.4216 9.06195 54.4216 9.20354 54.4216 9.48673L 54.4216 12.7434C 57.2162 10.1947 59.8637 8.92035 62.5113 8.92035C 64.1292 8.92035 65.453 9.34513 66.3355 10.1947L 64.1292 10.1947L 64.2763 11.3274L 67.218 11.3274C 67.5122 11.8938 67.8063 12.4602 67.9534 13.0265C 67.9534 13.3097 67.9534 13.5929 67.9534 13.7345ZM 41.7722 13.7345L 36.6242 13.7345C 36.183 13.1681 35.3005 12.7434 34.1238 12.7434C 32.9471 12.7434 31.4763 13.1681 29.7112 13.7345L 25.5928 13.7345L 25.2987 9.76991C 25.2987 9.34513 25.4458 9.20354 25.7399 9.20354L 29.1229 8.77876C 29.27 8.77876 29.4171 8.92035 29.4171 9.20354L 29.4171 10.7611C 31.7704 9.48673 33.9767 8.92035 36.0359 8.92035C 39.2718 8.92035 41.1839 10.4779 41.7722 13.7345ZM 138.996 4.81416C 138.701 5.09735 138.407 5.23894 137.966 5.23894C 137.525 5.23894 137.084 5.38053 136.495 5.38053C 135.907 5.38053 135.466 5.23894 135.171 5.23894C 134.877 5.23894 134.583 5.09735 134.436 4.95575C 134.142 4.53097 133.995 4.10619 133.995 3.25664C 133.995 2.54867 133.995 1.9823 134.142 1.55752C 134.142 1.27434 134.289 0.99115 134.583 0.849558C 135.024 0.424779 135.613 0.283186 136.642 0.283186C 137.525 0.283186 138.113 0.283186 138.407 0.424779C 138.701 0.424779 138.996 0.566372 139.143 0.707965C 139.584 0.99115 139.731 1.55752 139.731 2.26549C 139.731 3.11504 139.584 3.68142 139.584 4.10619C 139.437 4.38938 139.29 4.67257 138.996 4.81416ZM 0 10.4779L 0 9.48673L 3.23588 9.48673L 3.23588 10.4779L 0 10.4779Z"/>
<path id="path2_fill" fill-rule="evenodd" d="M 21.9157 24.354L 22.0628 23.0796L 25.0045 23.0796L 24.8574 24.354L 21.9157 24.354ZM 144.732 11.6106L 145.173 10.7611L 147.968 10.7611L 147.085 11.6106L 144.732 11.6106ZM 80.6028 18.4071L 80.6028 17.5575L 82.3678 17.5575L 82.3678 18.4071L 80.6028 18.4071ZM 70.3068 11.3274L 70.1597 10.1947L 66.4826 10.1947L 67.3651 11.3274L 70.3068 11.3274ZM 8.53095 13.7345L 8.53095 14.5841L 18.6798 14.5841C 18.974 14.5841 19.1211 14.7257 19.1211 14.8673L 18.974 17.9823C 18.974 18.2655 18.6798 18.4071 18.3857 18.4071L 8.38386 18.1239L 8.38386 19.2566L 4.11839 19.2566L 4.26547 5.52212L 4.11839 13.7345C 4.26547 13.7345 4.55965 13.7345 4.70673 13.7345L 8.53095 13.7345ZM 8.38386 22.0885L 8.38386 26.7611L 13.3848 26.4779C 13.6789 26.4779 13.826 26.6195 13.826 26.9027L 13.9731 27.8938L 10.7372 27.8938L 10.7372 28.7434L 1.32377 28.7434L 1.17668 27.0442C 1.17668 26.7611 1.32377 26.6195 1.61794 26.6195L 4.11839 26.7611L 4.11839 22.0885L 8.38386 22.0885ZM 13.9731 28.885L 14.1202 30.1593C 14.1202 30.3009 14.1202 30.4425 13.9731 30.5841C 13.9731 30.5841 13.826 30.5841 13.6789 30.5841L 1.91211 30.8673C 1.76502 30.8673 1.61794 30.8673 1.61794 30.7257C 1.47085 30.7257 1.47085 30.5841 1.47085 30.4425L 1.32377 29.5929L 14.1202 29.5929L 13.9731 28.885ZM 41.0368 10.1947C 41.1839 10.3363 41.1839 10.3363 41.1839 10.3363L 41.0368 10.1947ZM 42.8018 13.7345C 42.8018 14.4425 42.9489 15.1504 42.9489 15.8584C 42.9489 16.708 42.8018 17.8407 42.8018 19.2566L 28.0933 19.2566C 29.7112 18.4071 32.3588 17.9823 35.8888 17.9823C 36.6242 17.9823 37.5068 18.1239 38.3893 18.1239C 38.3893 17.8407 38.3893 17.4159 38.3893 17.1327L 38.3893 16.4248C 38.3893 15.292 38.0951 14.4425 37.6538 13.7345L 42.8018 13.7345ZM 42.8018 20.1062L 42.6547 23.9292C 42.6547 24.6372 42.6547 25.3451 42.5077 26.0531L 42.5077 27.7522L 43.6843 27.7522C 44.1256 27.7522 44.5669 27.6106 45.1552 27.6106C 45.4494 27.6106 45.5965 27.7522 45.5965 28.0354L 45.4494 28.7434L 25.887 28.7434C 25.1516 27.7522 24.8574 26.4779 24.8574 25.0619C 24.8574 24.6372 24.8574 24.6372 24.8574 24.354L 27.9462 24.354L 27.9462 23.0796L 25.0045 23.0796C 25.1516 22.7965 25.1516 22.3717 25.2987 22.0885L 30.5937 22.0885C 29.7112 22.5133 29.27 23.3628 29.27 24.354C 29.27 26.7611 30.5937 27.8938 33.2413 27.8938C 34.8592 27.8938 36.4772 27.469 38.2422 26.6195C 38.2422 25.7699 38.3893 24.9204 38.3893 23.9292C 38.3893 23.2212 38.3893 22.6549 38.3893 22.0885L 42.8018 22.0885L 42.8018 20.1062ZM 45.4494 29.5929L 45.1552 31.0089C 45.1552 31.1504 45.0081 31.292 44.861 31.292L 39.1247 31.7168C 38.8305 31.7168 38.8305 31.5752 38.8305 31.292L 38.9776 29.5929L 45.4494 29.5929ZM 38.3893 29.5929C 36.3301 30.8673 34.2709 31.5752 31.9175 31.5752C 29.8583 31.5752 28.2404 31.0089 26.9166 29.8761C 26.7695 29.7345 26.6224 29.5929 26.6224 29.5929L 38.3893 29.5929ZM 30.7408 13.7345L 30.7408 14.4425C 30.7408 14.7257 30.7408 14.8673 30.7408 15.0088C 30.7408 15.292 30.5937 15.4336 30.2996 15.4336L 27.0637 15.5752C 26.7695 15.5752 26.6224 15.4336 26.6224 15.1504L 26.3283 9.62832L 26.4754 13.7345L 30.7408 13.7345ZM 60.4521 13.7345C 59.1283 14.0177 57.8045 14.5841 56.3337 15.5752L 56.4808 19.2566L 52.2153 19.2566L 52.2153 14.0177L 49.1265 14.0177C 48.9794 14.0177 48.8323 13.8761 48.8323 13.7345L 60.4521 13.7345ZM 56.4808 22.0885L 56.6279 26.9027L 58.687 26.7611C 58.9812 26.7611 59.1283 26.9027 59.1283 27.0442L 58.8341 28.7434L 49.8619 28.7434L 50.1561 27.0442C 50.1561 26.7611 50.3032 26.6195 50.5974 26.6195L 52.2153 26.6195L 52.2153 22.0885L 56.4808 22.0885ZM 58.687 29.5929L 58.687 30.0177C 58.687 30.3009 58.54 30.4425 58.2458 30.4425L 50.009 30.4425C 49.8619 30.4425 49.7148 30.3009 49.7148 30.0177L 49.7148 29.5929L 58.687 29.5929ZM 68.983 13.7345C 69.1301 14.4425 69.1301 15.0088 69.1301 15.5752C 69.1301 16.4248 69.1301 16.9911 69.1301 17.5575C 69.1301 18.1239 69.1301 18.6903 68.983 19.2566L 64.8646 19.2566L 64.8646 17.6991C 64.8646 16.1416 64.8646 15.1504 64.5705 14.5841C 64.2763 14.1593 63.9821 13.8761 63.5409 13.7345L 68.983 13.7345ZM 68.983 22.0885L 68.983 23.3628L 68.8359 25.4867C 68.8359 26.0531 68.8359 26.6195 68.8359 27.1858L 71.0422 27.1858C 71.3364 27.1858 71.4835 27.3274 71.4835 27.6106L 71.4835 28.7434L 64.8646 28.7434C 64.8646 28.177 64.8646 27.469 64.8646 26.9027L 64.8646 23.646L 64.8646 22.0885L 68.983 22.0885ZM 71.4835 29.5929L 71.4835 30.4425C 71.4835 30.5841 71.4835 30.5841 71.3364 30.7257C 71.3364 30.7257 71.1893 30.7257 71.0422 30.7257L 65.3059 31.1504C 65.0117 31.1504 64.8646 31.0089 64.8646 30.7257L 64.8646 29.5929L 71.4835 29.5929ZM 85.6037 30.5841C 84.8682 30.7257 83.9857 30.7257 82.809 30.7257C 81.4853 30.7257 80.4557 30.5841 79.7203 30.3009C 79.1319 30.1593 78.6907 29.8761 78.2494 29.5929L 89.2808 29.5929L 89.4279 30.7257C 89.4279 31.0089 89.2808 31.1504 89.1337 31.1504L 86.192 31.5752C 85.8978 31.5752 85.6037 31.4336 85.6037 31.292L 85.6037 30.5841ZM 77.514 28.7434C 76.7785 27.7522 76.3373 26.1947 76.3373 24.0708C 76.3373 23.3628 76.3373 22.6549 76.3373 22.0885L 80.6028 22.0885C 80.6028 23.5044 80.6028 24.354 80.7498 24.9204C 80.7498 25.4867 81.044 26.0531 81.1911 26.3363C 81.6324 27.0442 82.662 27.3274 84.1328 27.3274C 84.5741 27.3274 84.8682 27.3274 85.3095 27.3274C 85.1624 26.9027 85.1624 26.4779 85.1624 26.3363C 85.1624 26.0531 85.3095 25.9115 85.6037 25.9115L 88.8395 25.4867C 89.1337 25.4867 89.2808 25.6283 89.2808 25.9115L 89.2808 28.7434L 77.514 28.7434ZM 76.4844 19.2566C 76.4844 18.1239 76.4844 16.9911 76.4844 16.1416C 76.6315 15.292 76.6315 14.5841 76.6315 13.7345L 80.7498 13.7345C 80.7498 15.1504 80.6028 16.2832 80.6028 17.5575L 78.2494 17.5575L 78.2494 18.4071L 80.6028 18.4071L 80.6028 19.2566L 76.4844 19.2566ZM 108.696 10.1947C 108.696 10.3363 108.843 10.3363 108.843 10.3363L 108.696 10.1947ZM 110.314 13.7345C 110.461 14.4425 110.461 15.1504 110.461 15.8584C 110.461 16.708 110.461 17.8407 110.461 19.2566L 95.6055 19.2566C 97.3705 18.4071 99.8709 17.9823 103.548 17.9823C 104.284 17.9823 105.166 18.1239 106.049 18.1239C 106.049 17.8407 106.049 17.4159 106.049 17.1327L 106.049 16.4248C 106.049 15.292 105.754 14.4425 105.313 13.7345L 110.314 13.7345ZM 110.461 20.1062L 110.314 23.9292C 110.314 24.6372 110.167 25.3451 110.167 26.0531L 110.167 27.7522L 111.344 27.7522C 111.785 27.7522 112.226 27.6106 112.814 27.6106C 113.109 27.6106 113.256 27.7522 113.256 28.0354L 113.109 28.7434L 93.5463 28.7434C 92.8108 27.7522 92.3696 26.4779 92.3696 25.0619C 92.3696 23.9292 92.6638 22.9381 92.9579 22.0885L 98.253 22.0885C 97.3705 22.5133 96.9292 23.3628 96.9292 24.354C 96.9292 26.7611 98.253 27.8938 100.901 27.8938C 102.371 27.8938 104.136 27.469 105.901 26.6195C 105.901 25.7699 105.901 24.9204 105.901 23.9292C 105.901 23.2212 105.901 22.6549 105.901 22.0885L 110.314 22.0885L 110.461 20.1062ZM 112.962 29.5929L 112.814 31.0089C 112.814 31.1504 112.667 31.292 112.373 31.292L 106.637 31.7168C 106.49 31.7168 106.343 31.5752 106.343 31.292L 106.637 29.5929L 112.962 29.5929ZM 106.049 29.5929C 103.989 30.8673 101.783 31.5752 99.5768 31.5752C 97.5176 31.5752 95.7525 31.0089 94.5759 29.8761L 94.4288 29.7345L 96.488 29.7345L 96.488 29.5929L 106.049 29.5929ZM 98.4001 13.7345L 98.253 13.7345L 98.4001 14.4425C 98.4001 14.7257 98.4001 14.8673 98.4001 15.0088C 98.4001 15.292 98.253 15.4336 97.9588 15.4336L 94.5759 15.5752C 94.4288 15.5752 94.2817 15.4336 94.2817 15.1504L 93.8404 9.62832L 94.1346 13.7345L 98.4001 13.7345ZM 126.052 30.5841C 125.464 30.7257 124.434 30.7257 123.258 30.7257C 122.081 30.7257 121.051 30.5841 120.316 30.3009C 119.58 30.1593 119.139 29.8761 118.698 29.5929L 129.876 29.5929L 129.876 30.7257C 129.876 31.0089 129.729 31.1504 129.582 31.1504L 126.64 31.5752C 126.346 31.5752 126.199 31.4336 126.199 31.292L 126.052 30.5841ZM 117.962 28.7434C 117.227 27.7522 116.786 26.1947 116.786 24.0708C 116.786 23.3628 116.786 22.6549 116.933 22.0885L 121.051 22.0885C 121.051 23.5044 121.198 24.354 121.198 24.9204C 121.345 25.4867 121.492 26.0531 121.787 26.3363C 122.228 27.0442 123.11 27.3274 124.581 27.3274C 125.023 27.3274 125.464 27.3274 125.758 27.3274C 125.758 26.9027 125.758 26.4779 125.758 26.3363C 125.758 26.0531 125.758 25.9115 126.052 25.9115L 129.435 25.4867C 129.582 25.4867 129.729 25.6283 129.729 25.9115L 129.876 28.7434L 117.962 28.7434ZM 116.933 19.2566C 116.933 18.1239 117.08 16.9911 117.08 16.1416C 117.08 15.292 117.08 14.5841 117.08 13.7345L 121.345 13.7345C 121.198 15.7168 121.051 17.5575 121.051 19.2566L 116.933 19.2566ZM 133.848 31.0089C 133.701 31.0089 133.553 30.8673 133.553 30.5841L 133.553 29.5929L 142.967 29.5929L 142.82 30.1593C 142.82 30.3009 142.82 30.4425 142.673 30.4425C 142.673 30.5841 142.526 30.5841 142.379 30.5841L 133.848 31.0089ZM 133.553 28.7434L 133.553 27.7522C 133.553 27.469 133.701 27.3274 133.848 27.3274L 136.201 27.3274L 136.348 22.0885L 140.614 22.0885L 140.614 27.3274L 142.967 27.3274C 143.114 27.3274 143.261 27.469 143.261 27.7522L 143.114 28.7434L 133.553 28.7434ZM 136.348 19.2566L 136.348 14.0177L 133.259 13.7345L 133.848 13.7345L 140.761 13.7345L 140.761 19.2566L 136.348 19.2566ZM 162.529 13.7345L 162.676 15.8584C 162.529 16.1416 162.382 16.4248 162.235 16.4248L 158.852 16.8496C 158.558 16.8496 158.411 16.708 158.411 16.4248L 158.411 13.7345L 162.382 13.7345L 162.529 13.7345ZM 152.38 13.7345C 152.086 14.0177 151.792 14.3009 151.498 14.7257C 150.91 15.7168 150.468 17.1327 150.468 19.2566L 146.203 19.2566C 146.35 17.6991 146.35 16.5664 146.497 15.7168C 146.644 15.0088 146.791 14.3009 146.938 13.7345L 152.38 13.7345ZM 150.468 22.0885C 150.762 24.7788 151.498 26.4779 152.969 26.9027C 153.41 27.0442 153.998 27.1858 154.734 27.1858C 155.763 27.1858 156.94 27.0442 158.117 26.7611L 158.264 25.4867C 158.264 25.2035 158.411 25.0619 158.705 25.0619L 161.794 25.0619C 161.941 25.2035 162.088 25.3451 162.088 25.6283L 162.235 28.7434L 148.409 28.7434C 148.262 28.7434 148.262 28.6018 148.115 28.6018C 146.938 27.1858 146.35 24.9204 146.203 22.0885L 150.468 22.0885ZM 162.382 29.5929L 162.382 31.5752C 162.382 31.8584 162.235 32 162.088 32L 158.264 32C 158.117 32 157.97 31.8584 157.97 31.5752L 157.97 30.4425C 153.998 31.292 151.057 30.8673 149.145 29.5929L 162.382 29.5929ZM 1.76502 28.7434L 11.1785 28.7434L 11.1785 28.885L 14.4144 28.885L 14.4144 29.5929L 1.76502 29.5929L 1.76502 28.7434ZM 26.3283 28.7434L 45.8906 28.7434L 45.7435 29.5929L 39.4189 29.5929L 39.4189 29.0265C 39.2718 29.1681 38.9776 29.4513 38.8305 29.5929L 26.9166 29.5929C 26.7695 29.3097 26.4754 29.0265 26.3283 28.7434ZM 50.3032 28.7434L 59.2754 28.7434L 59.1283 29.5929L 50.1561 29.5929L 50.3032 28.7434ZM 65.3059 28.7434L 71.7776 28.7434L 71.7776 29.5929L 65.3059 29.5929L 65.3059 28.7434ZM 77.9552 28.7434L 89.7221 28.7434L 89.7221 29.5929L 78.5436 29.5929C 78.3965 29.4513 78.3965 29.3097 78.2494 29.1681C 78.1023 29.0265 77.9552 28.885 77.9552 28.7434ZM 93.9875 28.7434L 113.55 28.7434L 113.403 29.5929L 107.078 29.5929L 107.078 29.0265C 106.784 29.1681 106.637 29.4513 106.343 29.5929L 94.5759 29.5929C 94.2817 29.3097 94.1346 29.0265 93.9875 28.7434ZM 118.404 28.7434L 130.171 28.7434L 130.171 29.5929L 119.139 29.5929C 118.992 29.4513 118.845 29.3097 118.698 29.1681C 118.551 29.0265 118.551 28.885 118.404 28.7434ZM 133.995 28.7434L 143.408 28.7434L 143.408 29.5929L 133.995 29.5929L 133.995 28.7434ZM 148.703 28.7434L 162.676 28.7434L 162.676 29.5929L 149.586 29.5929C 149.292 29.3097 148.997 29.0265 148.703 28.7434ZM 13.9731 28.885L 13.9731 27.8938L 17.0619 27.8938L 17.209 28.885L 13.9731 28.885ZM 9.70763 19.2566L 9.70763 22.0885L 5.44216 22.0885L 5.44216 19.2566L 9.70763 19.2566ZM 29.27 19.2566L 44.1256 19.2566L 44.1256 20.1062L 43.9785 22.0885L 39.713 22.0885L 39.713 20.8142C 36.183 20.8142 33.8296 21.0973 32.5059 21.8053C 32.2117 21.8053 32.0646 21.9469 31.9175 22.0885L 26.6224 22.0885C 27.0637 20.9558 27.9462 20.1062 28.9758 19.3982C 29.1229 19.3982 29.1229 19.2566 29.27 19.2566ZM 53.5391 19.2566L 57.6575 19.2566L 57.8045 22.0885L 53.5391 22.0885L 53.5391 19.2566ZM 66.1884 19.2566L 70.3068 19.2566L 70.3068 19.3982L 70.3068 21.3805L 70.3068 22.0885L 66.1884 22.0885L 66.1884 21.0973L 66.1884 19.2566ZM 77.6611 19.2566L 81.7794 19.2566C 81.7794 19.6814 81.7794 20.2478 81.7794 20.6726C 81.7794 21.0973 81.7794 21.6637 81.7794 22.0885L 77.6611 22.0885C 77.6611 21.2389 77.6611 20.531 77.6611 19.823L 77.6611 19.2566ZM 96.9292 19.2566L 111.785 19.2566L 111.785 20.1062L 111.638 22.0885L 107.225 22.0885L 107.225 20.8142C 103.842 20.8142 101.342 21.0973 100.018 21.8053C 99.8709 21.8053 99.7239 21.9469 99.5768 22.0885L 94.2817 22.0885C 94.723 20.9558 95.4584 20.1062 96.6351 19.3982C 96.6351 19.3982 96.7822 19.2566 96.9292 19.2566ZM 118.257 19.2566L 122.375 19.2566C 122.375 19.6814 122.375 20.2478 122.375 20.6726C 122.375 21.0973 122.375 21.6637 122.375 22.0885L 118.11 22.0885C 118.11 21.2389 118.257 20.531 118.257 19.823L 118.257 19.2566ZM 137.672 19.2566L 141.937 19.2566L 141.937 22.0885L 137.672 22.0885L 137.672 19.2566ZM 147.527 19.2566L 151.792 19.2566C 151.792 19.5398 151.792 19.9646 151.792 20.2478C 151.792 20.8142 151.792 21.5221 151.792 22.0885L 147.527 22.0885C 147.527 21.6637 147.527 21.2389 147.527 20.9558C 147.527 20.3894 147.527 19.823 147.527 19.2566ZM 0.588341 5.80531C 0.441256 5.80531 0.294171 5.66372 0.294171 5.52212L 0.588341 1.9823C 0.588341 1.69912 0.735427 1.55752 1.0296 1.55752L 15.444 1.84071L 15.444 0.849558C 15.444 0.566372 15.591 0.424779 15.8852 0.283186L 18.974 0C 19.2682 0 19.4153 0.141593 19.4153 0.424779L 20.4449 8.49557C 20.4449 8.63717 20.2978 8.77876 20.0036 8.77876L 16.4736 9.06195C 15.8852 9.06195 15.591 8.92035 15.591 8.35398L 15.591 5.80531L 7.79552 5.52212L 7.64844 13.7345L 3.82422 13.7345C 3.67713 13.7345 3.53005 13.7345 3.23588 13.7345L 3.23588 10.4779L 6.47175 10.4779L 6.47175 9.48673L 3.23588 9.48673L 3.38296 5.66372L 0.588341 5.80531ZM 161.647 13.7345L 161.5 13.7345L 157.528 13.7345L 157.528 13.1681C 156.793 13.0265 155.763 12.885 154.881 12.885C 153.851 12.885 153.116 13.0265 152.38 13.4513C 152.086 13.4513 151.792 13.5929 151.645 13.7345L 146.056 13.7345C 146.203 13.4513 146.35 13.0265 146.497 12.7434C 146.644 12.3186 146.791 12.0354 147.085 11.6106L 149.733 11.6106L 149.733 10.7611L 147.821 10.7611C 148.409 10.1947 149.145 9.62832 150.027 9.34513C 150.762 9.06195 151.939 8.77876 153.116 8.77876C 154.44 8.77876 155.763 9.06195 157.234 9.34513L 161.058 8.77876C 161.206 8.77876 161.353 8.92035 161.353 9.20354L 161.647 13.7345ZM 139.878 13.7345L 132.965 13.7345L 132.377 13.7345C 132.083 13.7345 131.936 13.5929 131.936 13.3097L 132.377 10.1947C 132.377 9.9115 132.671 9.76991 132.818 9.76991L 139.29 9.20354C 139.437 9.20354 139.437 9.20354 139.437 9.20354C 139.584 9.34513 139.584 9.48673 139.584 9.62832L 139.878 13.0265L 139.878 13.7345ZM 120.463 13.7345L 116.197 13.7345L 116.344 12.885L 113.697 12.7434C 113.403 12.7434 113.256 12.6018 113.256 12.177L 113.256 10.0531C 113.256 9.76991 113.403 9.62832 113.697 9.62832L 116.492 9.48673C 116.492 8.92035 116.492 8.21239 116.492 7.64602L 116.639 4.81416C 116.639 4.10619 116.786 3.68142 116.786 3.68142C 116.933 3.53982 117.08 3.53982 117.227 3.39823L 120.904 2.97345C 121.198 2.97345 121.345 3.11504 121.345 3.39823C 121.345 3.82301 121.198 4.81416 121.051 6.23009L 120.757 9.48673L 128.553 9.20354C 128.847 9.20354 128.994 9.34513 128.994 9.62832L 128.994 12.7434C 128.994 13.0265 128.847 13.1681 128.553 13.1681L 120.463 12.885L 120.463 13.7345ZM 109.431 13.7345L 104.431 13.7345C 103.842 13.1681 102.96 12.7434 101.783 12.7434C 100.606 12.7434 99.1355 13.1681 97.5176 13.7345L 93.2521 13.7345L 92.9579 9.76991C 92.9579 9.34513 93.105 9.20354 93.3992 9.20354L 96.7822 8.77876C 97.0763 8.77876 97.2234 8.92035 97.2234 9.20354L 97.2234 10.7611C 99.5768 9.48673 101.783 8.92035 103.695 8.92035C 107.078 8.92035 108.99 10.4779 109.431 13.7345ZM 79.8673 13.7345L 75.7489 13.7345L 75.7489 12.885L 73.1014 12.7434C 72.8072 12.7434 72.8072 12.6018 72.8072 12.177L 72.6602 10.0531C 72.6602 9.76991 72.8072 9.62832 73.1014 9.62832L 75.896 9.48673C 75.896 8.92035 76.0431 8.21239 76.0431 7.64602L 76.1902 4.81416C 76.1902 4.10619 76.1902 3.68142 76.3373 3.68142C 76.3373 3.53982 76.4844 3.53982 76.6315 3.39823L 80.3086 2.97345C 80.6028 2.97345 80.7498 3.11504 80.7498 3.39823C 80.7498 3.82301 80.7498 4.81416 80.6028 6.23009L 80.3086 9.48673L 87.957 9.20354C 88.2512 9.20354 88.3983 9.34513 88.3983 9.62832L 88.3983 12.7434C 88.3983 13.0265 88.2512 13.1681 87.957 13.1681L 80.0144 12.885L 79.8673 13.7345ZM 68.1005 13.7345L 62.6584 13.7345C 62.2171 13.5929 61.7758 13.5929 61.1875 13.5929C 60.5992 13.5929 60.1579 13.5929 59.5696 13.7345L 47.9498 13.7345L 47.9498 13.5929L 48.244 10.1947C 48.244 10.0531 48.3911 9.9115 48.6852 9.9115L 54.2745 9.06195C 54.4216 9.06195 54.5687 9.20354 54.5687 9.48673L 54.5687 12.7434C 57.3633 10.1947 60.0108 8.92035 62.6584 8.92035C 64.2763 8.92035 65.6001 9.34513 66.4826 10.1947L 64.2763 10.1947L 64.4234 11.3274L 67.3651 11.3274C 67.6593 11.8938 67.8063 12.4602 67.9534 13.0265C 67.9534 13.3097 68.1005 13.5929 68.1005 13.7345ZM 41.9193 13.7345L 36.7713 13.7345C 36.183 13.1681 35.3005 12.7434 34.1238 12.7434C 32.9471 12.7434 31.6233 13.1681 29.8583 13.7345L 25.5928 13.7345L 25.4458 9.76991C 25.4458 9.34513 25.5928 9.20354 25.887 9.20354L 29.1229 8.77876C 29.4171 8.77876 29.5642 8.92035 29.5642 9.20354L 29.5642 10.7611C 31.9175 9.48673 34.1238 8.92035 36.183 8.92035C 39.4189 8.92035 41.331 10.4779 41.9193 13.7345ZM 139.143 4.81416C 138.849 5.09735 138.554 5.23894 138.113 5.23894C 137.672 5.23894 137.231 5.38053 136.642 5.38053C 136.054 5.38053 135.613 5.23894 135.171 5.23894C 134.877 5.23894 134.73 5.09735 134.436 4.95575C 134.142 4.53097 133.995 4.10619 133.995 3.25664C 133.995 2.54867 134.142 1.9823 134.142 1.55752C 134.289 1.27434 134.436 0.99115 134.583 0.849558C 135.024 0.424779 135.76 0.283186 136.642 0.283186C 137.525 0.283186 138.26 0.283186 138.554 0.424779C 138.849 0.424779 139.143 0.566372 139.29 0.707965C 139.584 0.99115 139.731 1.55752 139.731 2.26549C 139.731 3.11504 139.731 3.68142 139.584 4.10619C 139.584 4.38938 139.29 4.67257 139.143 4.81416ZM 0 10.4779L 0 9.48673L 3.23588 9.48673L 3.23588 10.4779L 0 10.4779Z"/>
</defs>
</svg>
