<svg width="328" height="328" xmlns="http://www.w3.org/2000/svg"><g fill="none"><path fill-rule="evenodd" clip-rule="evenodd" d="M152.92 151.946v5.862h67.601c1.96 0 2.94.977 2.94 1.954l-.98 21.494c0 1.954-1.96 2.93-3.919 2.93l-66.62-1.953v7.816h-28.413v-38.103H152.921zm-.979 57.643v32.24l33.31-1.953c1.96 0 2.94.977 2.94 2.93l.98 6.84h-21.554v5.862h-62.702l-.98-11.724c0-1.954.98-2.931 2.94-2.931l16.654.977v-32.241h28.412zm37.23 46.896l.98 8.793c0 .977 0 1.954-.98 2.93h-1.96l-78.377 1.955c-.98 0-1.96 0-1.96-.977-.98 0-.98-.977-.98-1.954l-.98-5.862h85.236l-.98-4.885zm-81.317-.977h62.702v.977h21.554v4.885h-84.256v-5.862zm81.317.977v-6.84h20.573l.98 6.84h-21.553zm-28.412-66.436v19.54h-28.412v-19.54h28.412zm-60.743-92.815c-.98 0-1.96-.977-1.96-1.954l1.96-24.424c0-1.954.98-2.931 2.94-2.931l96.012 1.954v-6.84c0-1.953.98-2.93 2.94-3.907l20.573-1.954c1.96 0 2.94.977 2.94 2.93l6.857 55.69c0 .976-.98 1.953-2.939 1.953l-23.513 1.954c-3.919 0-5.879-.977-5.879-4.885V97.235l-51.925-1.955-.98 56.666H117.652v-22.47h21.554v-6.84H117.65l.98-26.379-18.615.977zm-3.919 32.241v-6.839h21.554v6.84H96.097z" fill="#fff"/><path fill-rule="evenodd" clip-rule="evenodd" d="M134.864 160.397v5.862h67.6c1.96 0 1.96.977 1.96 1.954v21.494c-.98 1.954-1.96 2.93-3.919 2.93l-66.621-1.953v7.816h-28.412v-94.768 56.665h29.392zm-.98 57.643l-.98 32.24 34.29-1.953c1.96 0 2.94.977 2.94 2.93l.98 6.84h-21.555v5.862H86.857l-.98-11.724c0-1.954.98-2.931 1.96-2.931l16.655.977.98-32.241h28.412zm37.23 46.896l.98 8.793c0 .977-.98 1.954-.98 2.93h-1.96l-78.378 1.955c-.98 0-1.96 0-2.939-.977 0 0 0-.977-.98-1.954v-5.862h84.256v-4.885zm-82.297-.977h63.682v.977h21.553v4.885H89.798l-.98-5.862zm82.296.977v-6.84h20.574l.316 6.84h-20.89zM142.701 198.5v19.54H113.31V198.5H142.7zM81.96 105.686c-.98 0-1.96-.977-1.96-1.954l1.96-24.425c0-1.954.98-2.931 1.96-2.931l96.992 1.954v-6.84c0-1.953.979-2.93 2.939-3.907l20.574-1.954c.98 0 1.959.977 2.939 2.93l6.858 55.69c0 .977-.98 1.954-2.939 1.954l-24.493 1.954c-2.939 0-4.899-.977-4.899-4.885l-.979-17.586-50.946-1.954-.98 56.665H99.593V129.34h21.555v-6.84H99.594v-17.79l-17.635.977zm-3.919 23.653v-6.84h21.554v6.84H78.04z" fill="#ED3237"/><path fill-rule="evenodd" clip-rule="evenodd" d="M169.623 144.155v5.862h68.58c.98 0 1.96.977 1.96 1.954l-.98 21.494c0 1.954-.98 2.93-3.919 2.93l-65.641-1.953v7.816h-29.392l.98-94.768v56.665h28.412zm-.98 57.643v32.24l34.29-1.953c1.96 0 2.94.977 2.94 2.93v6.84h-20.575v5.862h-63.681v-11.724c0-1.954 0-2.931 1.96-2.931l16.654.977v-32.241h28.412zm38.21 46.896V260.417h-1.96l-79.357 1.955c-.98 0-1.96 0-1.96-.977-.98 0-.98-.977-.98-1.954v-5.862h84.256v-4.885zm-82.297-.977h62.702v.977h21.554l.98 4.885h-85.236v-5.862zm82.296.977l-.98-6.84h21.554v6.84h-20.574zm-29.391-66.436v19.54h-28.412v-19.54h28.412zm-59.763-92.814c-.98 0-1.96-.977-1.96-1.954l1.96-24.425c0-1.954 0-2.931 1.96-2.931l96.992 1.954-.98-6.84c0-1.953.98-3.907 2.939-3.907l15.675-1.954h5.879c.98 0 1.959.977 1.959 2.93l7.838 55.69c0 .976-1.959 1.953-3.919 1.953l-23.513 1.954c-2.939.977-5.878-.977-5.878-4.885V89.444l-51.926-1.954-.98 56.665h-28.412v-14.544h21.555v-6.838h-21.554V88.467l-17.635.977zm-3.919 40.167v-6.838h21.554v6.838h-21.554z" fill="#26BFD1"/><path fill-rule="evenodd" clip-rule="evenodd" d="M152.92 151.946v5.862h67.601c1.96 0 2.94.977 2.94 1.954l-.98 21.494c0 1.954-1.96 2.93-3.919 2.93l-66.62-1.953v7.816h-28.413v-38.103H152.921zm-.979 57.643v32.24l33.31-1.953c1.96 0 2.94.977 2.94 2.93l.98 6.84h-21.554v5.862h-62.702l-.98-11.724c0-1.954.98-2.931 2.94-2.931l16.654.977v-32.241h28.412zm37.23 46.896l.98 8.793c0 .977 0 1.954-.98 2.93h-1.96l-78.377 1.955c-.98 0-1.96 0-1.96-.977-.98 0-.98-.977-.98-1.954l-.98-5.862h85.236l-.98-4.885zm-81.317-.977h62.702v.977h21.554v4.885h-84.256v-5.862zm81.317.977v-6.84h20.573l.98 6.84h-21.553zm-28.412-66.436v19.54h-28.412v-19.54h28.412zm-60.743-92.815c-.98 0-1.96-.977-1.96-1.954l1.96-24.424c0-1.954.98-2.931 2.94-2.931l96.012 1.954v-6.84c0-1.953.98-2.93 2.94-3.907l20.573-1.954c1.96 0 2.94.977 2.94 2.93l6.857 55.69c0 .976-.98 1.953-2.939 1.953l-23.513 1.954c-3.919 0-5.879-.977-5.879-4.885V97.235l-51.925-1.955-.98 56.666H117.652v-22.47h21.554v-6.84H117.65l.98-26.379-18.615.977zm-3.919 32.241v-6.839h21.554v6.84H96.097z" fill="#FEFEFE"/></g></svg>