<svg width="160" height="157" xmlns="http://www.w3.org/2000/svg"><g fill="none"><path d="M160 84.837C160 124.69 127.54 157 87.5 157c-40.043 0-72.502-32.31-72.502-72.163 0-39.856 32.459-72.166 72.501-72.166 40.04 0 72.501 32.31 72.501 72.166z" fill="#EDC951"/><path d="M85.687 116.272h-13.2c-16.862 0-30.07-12.932-30.07-29.442a3.66 3.66 0 0 1 3.668-3.651 3.658 3.658 0 0 1 3.668 3.651c0 12.416 9.985 22.141 22.733 22.141h13.2c12.75 0 22.734-9.511 22.734-21.651a3.658 3.658 0 0 1 3.668-3.652 3.658 3.658 0 0 1 3.669 3.652c0 16.237-13.209 28.952-30.07 28.952zM61.863 55.529a3.664 3.664 0 0 1-2.592-1.07c-3.478-3.458-9.23-3.583-12.558-.267a3.681 3.681 0 0 1-5.189 0 3.635 3.635 0 0 1 0-5.16c6.146-6.118 16.646-5.994 22.934.265a3.638 3.638 0 0 1 0 5.163 3.665 3.665 0 0 1-2.595 1.069zM111.763 55.529c-.94 0-1.878-.356-2.595-1.07-3.472-3.458-9.226-3.583-12.557-.267a3.678 3.678 0 0 1-5.187 0 3.635 3.635 0 0 1 0-5.16c6.143-6.118 16.644-5.994 22.931.265a3.638 3.638 0 0 1 0 5.163 3.664 3.664 0 0 1-2.592 1.069z" fill="#000"/><path d="M76.17 151.629c-42 0-76.17-34.011-76.17-75.814C0 34.01 34.17 0 76.17 0s76.168 34.011 76.168 75.815c0 41.803-34.168 75.814-76.169 75.814zm0-144.326c-37.955 0-68.834 30.732-68.834 68.512 0 37.779 30.88 68.514 68.833 68.514 37.956 0 68.833-30.735 68.833-68.514 0-37.78-30.877-68.512-68.833-68.512z" fill="#000"/></g></svg>