<svg width="161" height="122" xmlns="http://www.w3.org/2000/svg"><g fill="none"><path d="M37.162 79.72c0 3.957-7.903 7.162-17.647 7.162-9.747 0-17.65-3.207-17.65-7.162s15.511-15.638 25.258-15.638c9.748.002 10.039 11.683 10.039 15.638z" fill="#EA81BD"/><path d="M37.162 79.72c0 3.957-7.903 7.162-17.647 7.162-9.747 0-17.65-3.207-17.65-7.162s16.335-2.302 26.081-2.302c9.748 0 9.216-1.653 9.216 2.302z" fill="#D363A9"/><path d="M19.516 88.744C10.056 88.744 0 85.581 0 79.72 0 74.15 17.029 62.22 27.124 62.22c4.445 0 11.904 2.274 11.904 17.5 0 5.86-10.053 9.024-19.512 9.024zm7.608-22.8c-9.081 0-23.085 10.99-23.392 13.796 0 2.141 6.15 5.281 15.784 5.281s15.781-3.14 15.781-5.3c-.001-9.142-2.75-13.776-8.173-13.776z" fill="#33363A"/><path d="M123.84 79.72c0 3.957 7.9 7.162 17.647 7.162 9.747 0 17.648-3.207 17.648-7.162s-15.511-15.638-25.258-15.638c-9.746.002-10.037 11.683-10.037 15.638z" fill="#EA81BD"/><path d="M123.84 79.72c0 3.957 7.9 7.162 17.647 7.162 9.747 0 17.648-3.207 17.648-7.162s-16.335-2.302-26.082-2.302-9.213-1.653-9.213 2.302z" fill="#D363A9"/><path d="M141.488 88.745c-9.46 0-19.514-3.164-19.514-9.024 0-15.226 7.458-17.5 11.902-17.5 10.095 0 27.124 11.929 27.124 17.5 0 5.86-10.053 9.024-19.513 9.024zm-7.611-22.8c-5.42 0-8.17 4.634-8.17 13.776 0 2.16 6.148 5.3 15.782 5.3 9.633 0 15.78-3.14 15.78-5.3-.308-2.786-14.31-13.776-23.392-13.776z" fill="#33363A"/><path d="M52.417 120.137c14.88 0 26.942-3.635 26.942-8.118 0-4.484-12.062-8.118-26.942-8.118s-26.943 3.634-26.943 8.118c0 4.483 12.063 8.118 26.943 8.118z" fill="#EA81BD"/><path d="M79.36 112.019c0 4.481-12.063 0-26.942 0-14.88 0-26.942 4.481-26.942 0 0-4.484 12.062-8.118 26.942-8.118 14.879 0 26.941 3.634 26.941 8.118z" fill="#D363A9"/><path d="M52.418 122c-14.317 0-28.809-3.427-28.809-9.979 0-6.551 14.492-9.979 28.809-9.979 14.315 0 28.807 3.428 28.807 9.98 0 6.551-14.492 9.979-28.807 9.979zm0-16.235c-16.225 0-25.076 4.133-25.076 6.256 0 2.124 8.85 6.257 25.076 6.257 16.225 0 25.075-4.133 25.075-6.257 0-2.123-8.851-6.256-25.075-6.256z" fill="#33363A"/><path d="M108.585 120.137c14.88 0 26.942-3.635 26.942-8.118 0-4.484-12.062-8.118-26.942-8.118s-26.943 3.634-26.943 8.118c0 4.483 12.063 8.118 26.943 8.118z" fill="#EA81BD"/><path d="M81.642 112.019c0 4.481 12.063 0 26.943 0 14.879 0 26.94 4.481 26.94 0 0-4.484-12.061-8.118-26.94-8.118-14.88 0-26.943 3.634-26.943 8.118z" fill="#D363A9"/><path d="M108.584 121.999c-14.316 0-28.808-3.428-28.808-9.98 0-6.551 14.492-9.979 28.808-9.979 14.316 0 28.808 3.428 28.808 9.98 0 6.551-14.491 9.979-28.808 9.979zm0-16.236c-16.225 0-25.076 4.133-25.076 6.256 0 2.124 8.851 6.257 25.076 6.257 16.226 0 25.075-4.133 25.075-6.257 0-2.123-8.85-6.256-25.075-6.256z" fill="#33363A"/><path d="M25.117 1.865c-7.037 9.645-8.512 22.795-2.651 34.117 5.859 11.328 17.457 17.744 29.417 17.609 7.037-9.645 8.512-22.793 2.651-34.117C48.674 8.149 37.08 1.733 25.117 1.865z" fill="#9E3256"/><path d="M25.117 1.865c-7.037 9.645 5.824 20.78 11.685 32.103 5.859 11.327 3.122 19.758 15.082 19.623 7.037-9.645 8.513-22.793 2.651-34.117C48.675 8.149 37.08 1.733 25.117 1.865z" fill="#FFCAE8"/><path d="M25.117 1.865c-7.037 9.645 5.824 20.78 11.685 32.103 5.859 11.327 3.122 19.758 15.082 19.622 7.037-9.644 3.983-14.536-1.879-25.86C44.145 16.401 37.08 1.731 25.117 1.864z" fill="#EFA3CC"/><path d="M56.193 18.618C50.175 6.989 38.272-.173 25.096.003a1.87 1.87 0 0 0-1.488.766c-7.747 10.618-8.82 24.438-2.8 36.067 5.954 11.512 17.686 18.618 30.69 18.618l.406-.002a1.87 1.87 0 0 0 1.488-.766c7.746-10.617 8.82-24.438 2.8-36.068zm-.165 11.577c.01.072.014.144.023.216.169 1.28.264 2.566.268 3.852.002.356-.02.712-.03 1.069-.01.32-.008.644-.03.964-.025.416-.076.829-.119 1.242-.027.26-.042.524-.075.783a30.517 30.517 0 0 1-.716 3.648c-.03.116-.051.236-.082.352a30.326 30.326 0 0 1-.584 1.9c-.006.02-.01.04-.018.06-.22.642-.464 1.277-.728 1.906l-.007.02a31.125 31.125 0 0 1-3.009 5.51c-6.028-.187-6.895-3-8.692-8.832-.885-2.878-1.89-6.141-3.77-9.775-1.66-3.21-3.85-6.38-5.966-9.446-5.237-7.585-9.79-14.18-6.378-19.935.577.011 1.15.047 1.722.09.122.008.245.008.366.02.597.05 1.188.127 1.776.211.102.015.206.021.306.038.603.093 1.197.21 1.788.337.085.019.172.03.256.049.629.14 1.248.304 1.863.481.046.014.092.022.138.036.596.176 1.183.375 1.764.585.063.022.127.04.188.062a30.38 30.38 0 0 1 1.693.69c.068.03.137.053.205.083.54.24 1.067.504 1.59.775.082.043.165.077.246.12.51.27 1.009.562 1.503.86.087.054.18.1.267.154.447.276.88.573 1.312.872.128.088.261.168.387.258.43.308.846.637 1.26.967.118.094.243.18.36.276.384.316.754.652 1.123.989.136.123.279.237.413.363.339.32.66.657.984.992.153.157.314.305.463.466.263.284.509.584.76.877.197.228.402.449.594.684.244.3.469.618.702.93.182.242.374.477.55.726.359.51.699 1.038 1.028 1.574.038.06.08.118.117.18a30.79 30.79 0 0 1 4.19 11.72zm-31.904 4.933c-3.701-7.15-4.38-15.224-2.188-22.657 1.375 4.433 4.448 8.91 7.483 13.308 2.05 2.972 4.172 6.044 5.725 9.042 1.726 3.338 2.679 6.432 3.52 9.162.654 2.125 1.285 4.143 2.21 5.885a30.55 30.55 0 0 1-16.75-14.74z" fill="#33363A"/><path d="M135.885 1.865c7.037 9.645 8.512 22.795 2.65 34.117-5.858 11.328-17.455 17.744-29.416 17.609-7.038-9.645-8.513-22.793-2.652-34.117 5.86-11.325 17.457-17.741 29.417-17.609z" fill="#9E3256"/><path d="M135.885 1.865c7.037 9.645-5.823 20.78-11.684 32.103-5.86 11.327-3.122 19.758-15.082 19.623-7.038-9.645-8.513-22.793-2.652-34.117 5.86-11.325 17.457-17.741 29.418-17.609z" fill="#FFCAE8"/><path d="M135.884 1.865c7.037 9.645-5.822 20.78-11.684 32.103-5.858 11.327-3.121 19.758-15.082 19.622-7.038-9.644-3.983-14.536 1.878-25.86 5.859-11.328 12.928-25.998 24.888-25.865z" fill="#EFA3CC"/><path d="M137.394.769a1.87 1.87 0 0 0-1.488-.766C122.79-.165 110.828 6.99 104.81 18.618c-6.02 11.631-4.947 25.452 2.8 36.068a1.87 1.87 0 0 0 1.489.765l.405.003c13.003 0 24.737-7.107 30.69-18.617 6.02-11.63 4.946-25.45-2.8-36.068zm-28.232 17.71c.002 0 .002 0 0 0 .365-.6.748-1.184 1.147-1.754.008-.01.017-.02.024-.031a30.621 30.621 0 0 1 2.584-3.188l.024-.024c.46-.494.934-.973 1.424-1.434l.02-.018a30.27 30.27 0 0 1 1.517-1.334l.04-.03c.514-.42 1.04-.825 1.579-1.211.057-.041.118-.077.176-.118a30.185 30.185 0 0 1 1.52-1.013c.093-.057.19-.105.282-.161.489-.295.982-.585 1.487-.853.117-.062.24-.114.358-.175.486-.25.975-.496 1.477-.72.149-.067.305-.121.454-.186.476-.203.953-.407 1.44-.587.177-.065.36-.116.538-.178.468-.163.936-.328 1.413-.468.183-.054.371-.093.555-.144.48-.132.958-.266 1.446-.374.19-.042.382-.07.571-.108.49-.1.977-.2 1.473-.278.187-.028.377-.042.565-.068.505-.068 1.01-.138 1.52-.182.158-.014.319-.014.478-.025a31.503 31.503 0 0 1 1.613-.085c3.411 5.755-1.141 12.35-6.377 19.937-2.116 3.066-4.305 6.236-5.966 9.446-1.878 3.632-2.883 6.895-3.77 9.773-1.796 5.833-2.662 8.647-8.691 8.831a31.067 31.067 0 0 1-3.008-5.507c-.02-.049-.036-.098-.056-.147-3.416-8.23-3.108-17.587 1.11-25.738.324-.63.67-1.248 1.033-1.847zm27.715 16.65c-3.615 6.99-9.622 12.153-16.747 14.739.925-1.741 1.556-3.76 2.21-5.885.84-2.73 1.793-5.823 3.52-9.16 1.553-3 3.673-6.073 5.723-9.043 3.036-4.398 6.11-8.875 7.484-13.31 2.19 7.433 1.51 15.51-2.19 22.659z" fill="#33363A"/><path d="M141.725 67.72c0 25.66-27.412 46.467-61.224 46.467-33.814 0-61.224-20.808-61.224-46.467 0-25.665 27.41-56.418 61.224-56.418 33.812 0 61.224 30.753 61.224 56.418z" fill="#FFCAE8"/><path d="M141.725 67.72c0 25.66-27.412 46.466-61.224 46.466-33.814 0-61.224-20.808-61.224-46.467 0-25.665 27.41-43.348 61.224-43.348 33.812 0 61.224 17.683 61.224 43.348z" fill="#EFA3CC"/><path d="M141.725 67.719c0 25.66-27.412 46.467-61.224 46.467-33.814 0-61.224-20.808-61.224-46.467 0-25.668 7.79 22.761 61.224 22.761 53.433-.001 61.224-48.429 61.224-22.761z" fill="#EA81BD"/><path d="M80.501 116.048c-34.788 0-63.09-21.68-63.09-48.328 0-26.398 28.143-58.28 63.09-58.28s63.09 31.882 63.09 58.28c0 26.648-28.302 48.328-63.09 48.328zm0-102.884c-32.88 0-59.358 29.845-59.358 54.556 0 24.595 26.628 44.605 59.358 44.605s59.358-20.01 59.358-44.605c0-24.712-26.477-54.556-59.358-54.556z" fill="#33363A"/><path d="M60.393 65.04c0 5.522-4.485 9.992-10.02 9.992-5.53 0-10.016-4.47-10.016-9.991 0-5.52 4.484-9.992 10.017-9.992 5.534.001 10.02 4.473 10.02 9.992z" fill="#14A594"/><g><path d="M45.394 65.865a4.077 4.077 0 0 0 4.082-4.072 4.077 4.077 0 0 0-4.082-4.072 4.077 4.077 0 0 0-4.082 4.072 4.077 4.077 0 0 0 4.082 4.072z" fill="#fff"/></g><path d="M50.374 53.189c-4.03 0-7.592 2.015-9.742 5.084-.138.186-.26.381-.376.583a11.74 11.74 0 0 0-1.765 6.185c0 6.536 5.331 11.853 11.883 11.853 6.554 0 11.885-5.317 11.885-11.853 0-6.537-5.331-11.852-11.885-11.852zm0 19.982a8.16 8.16 0 0 1-7.523-5.007c.856-.022 1.898-.248 3.071-.491a5.835 5.835 0 0 0 1.21-.236c1.018-.183 2.106-.331 3.243-.331 3.002 0 5.688 1.009 7.525 1.058a8.165 8.165 0 0 1-7.526 5.007z" fill="#33363A"/><path d="M45.392 64.003c1.223 0 2.215-.989 2.215-2.209 0-1.22-.992-2.209-2.215-2.209-1.223 0-2.214.99-2.214 2.21s.991 2.208 2.214 2.208z" fill="#fff"/><g><path d="M120.644 65.04c0 5.522-4.484 9.992-10.017 9.992-5.533 0-10.018-4.47-10.018-9.991 0-5.52 4.484-9.992 10.018-9.992 5.532.001 10.017 4.473 10.017 9.992z" fill="#14A594"/></g><g><path d="M105.645 65.863a4.076 4.076 0 0 0 4.08-4.07 4.076 4.076 0 0 0-4.08-4.071 4.076 4.076 0 0 0-4.081 4.07 4.076 4.076 0 0 0 4.08 4.071z" fill="#fff"/></g><path d="M110.627 53.189c-4.03 0-7.593 2.015-9.743 5.084-.138.186-.26.381-.375.583a11.74 11.74 0 0 0-1.766 6.185c0 6.536 5.331 11.853 11.885 11.853 6.551 0 11.882-5.317 11.882-11.853 0-6.537-5.33-11.852-11.883-11.852zm0 19.982a8.162 8.162 0 0 1-7.523-5.007c.856-.022 1.897-.248 3.07-.491a5.88 5.88 0 0 0 1.209-.235c1.019-.183 2.107-.332 3.244-.332 3.001 0 5.688 1.009 7.523 1.058a8.16 8.16 0 0 1-7.523 5.007z" fill="#33363A"/><path d="M105.645 64.003c1.223 0 2.214-.989 2.214-2.209 0-1.22-.991-2.209-2.214-2.209-1.223 0-2.215.99-2.215 2.21s.992 2.208 2.215 2.208z" fill="#fff"/><g><path d="M89.91 67.346c0 1.256-4.234 1.48-9.462 1.48-5.226 0-9.462-.225-9.462-1.48 0-1.254 4.236-4.535 9.462-4.535 5.226-.001 9.463 3.281 9.463 4.535z" fill="#FFCAE8"/></g><g><path d="M69.433 77.417c0 6.096 4.954 11.04 11.067 11.04 6.114 0 11.07-4.943 11.07-11.04H69.432z" fill="#9E3256"/></g><g><path d="M80.5 90.317c-7.132 0-12.935-5.787-12.935-12.9 0-1.028.835-1.862 1.867-1.862h22.136c1.031 0 1.866.834 1.866 1.861.001 7.114-5.802 12.901-12.934 12.901zM71.488 79.28a9.213 9.213 0 0 0 9.012 7.316 9.214 9.214 0 0 0 9.012-7.316H71.488z" fill="#33363A"/></g><g><path d="M80.5 49.548c13.2 0 23.9-10.674 23.9-23.84 0-13.168-10.7-23.842-23.9-23.842S56.6 12.54 56.6 25.707c0 13.167 10.7 23.841 23.9 23.841z" fill="#FFCAE8"/></g><g><path d="M80.5 58.984c13.2 0 23.9-10.674 23.9-23.84 0-13.168-10.7-23.842-23.9-23.842S56.6 21.976 56.6 35.143c0 13.167 10.7 23.841 23.9 23.841z" fill="#EFA3CC"/></g><path d="M80.501.003c-6.642 0-12.686 2.542-17.261 6.674-.126.07-.258.12-.368.221-10.376 9.483-11.084 25.62-1.58 35.974a20.696 20.696 0 0 0 14.427 6.71 20.67 20.67 0 0 0 14.959-5.43 16.83 16.83 0 0 0 5.501-11.766 16.834 16.834 0 0 0-4.454-12.207c-5.208-5.67-14.07-6.056-19.755-.863-4.698 4.302-5.019 11.61-.715 16.297a1.867 1.867 0 0 0 2.636.114c.76-.695.811-1.871.116-2.63-2.914-3.172-2.696-8.122.485-11.035 4.168-3.807 10.665-3.521 14.48.634a13.144 13.144 0 0 1 3.478 9.529 13.129 13.129 0 0 1-4.295 9.184c-3.359 3.071-7.716 4.649-12.273 4.455a16.978 16.978 0 0 1-11.839-5.506c-3.675-4.004-5.544-9.02-5.685-14.062.063-.186.104-.383.104-.59 0-12.12 9.885-21.981 22.036-21.981 12.149 0 22.032 9.86 22.032 21.98 0 1.028.835 1.862 1.867 1.862a1.864 1.864 0 0 0 1.866-1.861C106.267 11.534 94.708.003 80.501.003z" fill="#33363A"/></g></svg>