<svg class="t-logoIcon" width="16" height="16" xmlns="http://www.w3.org/2000/svg"><path fill-rule="evenodd" clip-rule="evenodd" d="M.586.586C0 1.172 0 2.114 0 4v8c0 1.886 0 2.828.586 3.414C1.172 16 2.114 16 4 16h8c1.886 0 2.829 0 3.414-.586C16 14.828 16 13.886 16 12V4c0-1.886 0-2.828-.586-3.414C14.83 0 13.886 0 12 0H4C2.114 0 1.172 0 .586.586zM9.089 5.05h1.656v1.812H9.09v2.968c.019.792.035 1.5.9 1.5h.852l.048 1.811s-.61.302-1.5.302c-2.206 0-3-.775-3-3.02v-3.56h-1.5V5.05h1.5V2.667h2.7V5.05z" fill="#fff"/></svg>