<svg width="157" height="160" xmlns="http://www.w3.org/2000/svg"><g fill="none"><path d="M152.654 84.887c9.143 52.417-3.385 72.94-74.154 73.374-70.77-.435-83.297-20.974-74.155-73.374C13.384 34.227 21.585 1.74 78.5 1.74c56.916 0 65.116 32.487 74.154 83.148z" fill="#9ADB61"/><path d="M94.832 2.8l-.244.157a19.556 19.556 0 0 1-9.58 1.53A74.689 74.689 0 0 0 64.072 6.54a29.667 29.667 0 0 0-16.978 11.566c-2.495 3.808-3.89 8.417-7.293 11.426-3.804 3.339-9.265 3.947-13.645 6.452a17.745 17.745 0 0 0-8.724 14.47c-.33 8.921 6.16 17.547 3.944 26.19-.977 3.792-3.49 6.957-5.235 10.435-1.57 3.252-2.512 6.957-4.868 9.618a23.206 23.206 0 0 1-5.234 4.122c-1.274.8-2.583 1.513-3.821 2.26a177.627 177.627 0 0 1 2.338-18.26C13.384 34.226 21.585 1.739 78.5 1.739c2.356 0 4.641 0 6.84.174 3.35.174 6.508.47 9.492.887z" fill="#CDE882"/><path d="M78.5 158.261a229.663 229.663 0 0 1-30.796-1.965 17.335 17.335 0 0 1 6.665-4.818c5.357-2.087 11.324-1.739 17.03-1.095 5.706.643 11.446 1.739 17.169 1.252 11.48-1.13 21.479-8.696 32.907-10.278 2.87-.183 5.721-.58 8.532-1.183a15.383 15.383 0 0 0 10.277-10.296c.785-2.765.855-5.913 2.757-8.07 1.239-1.39 3.088-2.156 4.327-3.477 2.443-2.748 1.85-6.957 1.222-10.574a195.448 195.448 0 0 1-2.862-33.044c0-4.226.297-8.835 2.547-12.174 1.553 6.957 2.967 14.522 4.38 22.47 9.143 52.278-3.385 72.817-74.155 73.252z" fill="#71BF55"/><g fill="#302A27"><path d="M78.51 160c-37.194-.228-58.595-6.082-69.41-18.977-9.469-11.293-11.406-28.169-6.475-56.434C11.985 32.141 20.655 0 78.5 0c57.846 0 66.518 32.14 75.874 84.582l.002.007c4.929 28.27 2.994 45.148-6.476 56.438-10.812 12.893-32.212 18.745-69.39 18.973zM78.5 3.478c-55.063 0-63.398 31.05-72.438 81.711-4.733 27.146-3.025 43.178 5.716 53.602 10.098 12.042 30.68 17.51 66.732 17.731 36.036-.221 56.616-5.689 66.712-17.726 8.74-10.421 10.45-26.452 5.714-53.605C141.898 34.529 133.563 3.478 78.5 3.478z"/><path d="M50.583 71.304c-8.658 0-15.703-7.022-15.703-15.652C34.88 47.022 41.925 40 50.583 40s15.704 7.022 15.704 15.652c0 8.63-7.046 15.652-15.704 15.652zm0-27.826c-6.735 0-12.214 5.461-12.214 12.174 0 6.713 5.48 12.174 12.214 12.174 6.735 0 12.214-5.46 12.214-12.174 0-6.713-5.479-12.174-12.214-12.174z"/></g><g fill="#71BF55"><path d="M50.583 78.261c8.673 0 15.704-7.007 15.704-15.652 0-8.644-7.031-15.652-15.704-15.652-8.672 0-15.703 7.008-15.703 15.652 0 8.645 7.03 15.652 15.703 15.652z"/><path d="M50.583 80c-9.62 0-17.448-7.802-17.448-17.39 0-9.59 7.828-17.392 17.448-17.392 9.621 0 17.448 7.802 17.448 17.391C68.031 72.2 60.204 80 50.583 80zm0-31.304c-7.696 0-13.958 6.242-13.958 13.913s6.262 13.913 13.958 13.913c7.697 0 13.959-6.242 13.959-13.913S58.28 48.696 50.583 48.696zM106.418 78.261c8.672 0 15.703-7.007 15.703-15.652 0-8.644-7.03-15.652-15.703-15.652-8.673 0-15.704 7.008-15.704 15.652 0 8.645 7.03 15.652 15.704 15.652z"/><path d="M106.419 80c-9.621 0-17.448-7.802-17.448-17.39 0-9.59 7.827-17.392 17.448-17.392 9.62 0 17.448 7.802 17.448 17.391 0 9.59-7.829 17.391-17.448 17.391zm0-31.304c-7.696 0-13.959 6.242-13.959 13.913s6.263 13.913 13.959 13.913 13.959-6.242 13.959-13.913-6.263-13.913-13.959-13.913zM78.5 46.957c5.782 0 10.469-4.672 10.469-10.435 0-5.763-4.687-10.435-10.469-10.435-5.782 0-10.469 4.672-10.469 10.435 0 5.763 4.687 10.435 10.47 10.435z"/><path d="M78.5 48.696c-6.735 0-12.214-5.461-12.214-12.174 0-6.713 5.48-12.174 12.214-12.174 6.735 0 12.214 5.46 12.214 12.174 0 6.713-5.479 12.174-12.214 12.174zm0-20.87c-4.81 0-8.724 3.901-8.724 8.696s3.914 8.695 8.724 8.695c4.81 0 8.724-3.9 8.724-8.695s-3.913-8.696-8.724-8.696z"/></g><g fill="#fff"><path d="M50.583 69.565c7.71 0 13.959-6.23 13.959-13.914 0-7.684-6.25-13.913-13.959-13.913s-13.958 6.23-13.958 13.913c0 7.684 6.25 13.914 13.958 13.914z"/><path d="M50.583 71.303c8.673 0 15.704-7.007 15.704-15.652C66.287 47.007 59.256 40 50.583 40c-8.672 0-15.703 7.008-15.703 15.652 0 8.645 7.03 15.652 15.703 15.652zM106.417 71.303c8.673 0 15.704-7.007 15.704-15.652 0-8.644-7.03-15.652-15.704-15.652-8.672 0-15.703 7.008-15.703 15.652 0 8.645 7.03 15.652 15.703 15.652zM78.5 40c5.782 0 10.469-4.672 10.469-10.435 0-5.763-4.687-10.435-10.469-10.435-5.782 0-10.469 4.672-10.469 10.435 0 5.762 4.687 10.434 10.47 10.434z"/></g><g fill="#302A27"><path d="M50.583 73.043c-9.62 0-17.448-7.802-17.448-17.391 0-9.59 7.828-17.391 17.448-17.391 9.621 0 17.448 7.802 17.448 17.391 0 9.59-7.827 17.391-17.448 17.391zm0-31.304c-7.696 0-13.958 6.242-13.958 13.913s6.262 13.913 13.958 13.913c7.697 0 13.959-6.242 13.959-13.913S58.28 41.739 50.583 41.739zM106.419 73.043c-9.621 0-17.448-7.802-17.448-17.391 0-9.59 7.827-17.391 17.448-17.391 9.62 0 17.448 7.802 17.448 17.391 0 9.59-7.829 17.391-17.448 17.391zm0-31.304c-7.696 0-13.959 6.242-13.959 13.913s6.263 13.913 13.959 13.913 13.959-6.242 13.959-13.913-6.263-13.913-13.959-13.913zM78.5 41.739c-6.735 0-12.214-5.461-12.214-12.174 0-6.713 5.48-12.174 12.214-12.174 6.735 0 12.214 5.46 12.214 12.174 0 6.713-5.479 12.174-12.214 12.174zm0-20.87c-4.81 0-8.724 3.901-8.724 8.696s3.914 8.696 8.724 8.696c4.81 0 8.724-3.901 8.724-8.696s-3.913-8.696-8.724-8.696z"/></g><path d="M106.417 64.348c4.818 0 8.724-3.893 8.724-8.695 0-4.803-3.906-8.696-8.724-8.696s-8.724 3.893-8.724 8.696c0 4.802 3.906 8.695 8.724 8.695z" fill="#9BE6EA"/><path d="M106.418 59.131a3.484 3.484 0 0 0 3.489-3.478 3.484 3.484 0 0 0-3.49-3.478 3.484 3.484 0 0 0-3.489 3.478 3.484 3.484 0 0 0 3.49 3.478z" fill="#302A27"/><path d="M102.927 54.782a2.613 2.613 0 0 0 2.618-2.608 2.613 2.613 0 0 0-2.618-2.61 2.613 2.613 0 0 0-2.617 2.61 2.613 2.613 0 0 0 2.617 2.608z" fill="#fff"/><path d="M78.5 34.783c2.891 0 5.235-2.336 5.235-5.218 0-2.881-2.344-5.217-5.235-5.217-2.89 0-5.234 2.336-5.234 5.217 0 2.882 2.343 5.218 5.234 5.218z" fill="#9BE6EA"/><path d="M78.5 31.304c.964 0 1.745-.779 1.745-1.74 0-.96-.781-1.738-1.745-1.738-.963 0-1.745.778-1.745 1.739 0 .96.782 1.739 1.745 1.739z" fill="#302A27"/><path d="M76.755 29.565c.964 0 1.745-.78 1.745-1.74s-.781-1.739-1.745-1.739c-.963 0-1.744.779-1.744 1.74 0 .96.78 1.739 1.744 1.739z" fill="#fff"/><path d="M50.583 64.348c4.818 0 8.724-3.893 8.724-8.695 0-4.803-3.906-8.696-8.724-8.696s-8.724 3.893-8.724 8.696c0 4.802 3.906 8.695 8.724 8.695z" fill="#9BE6EA"/><path d="M50.583 59.131a3.484 3.484 0 0 0 3.49-3.478 3.484 3.484 0 0 0-3.49-3.478 3.484 3.484 0 0 0-3.49 3.478 3.484 3.484 0 0 0 3.49 3.478z" fill="#302A27"/><path d="M47.093 54.782a2.613 2.613 0 0 0 2.618-2.608 2.613 2.613 0 0 0-2.618-2.61 2.613 2.613 0 0 0-2.617 2.61 2.613 2.613 0 0 0 2.617 2.608z" fill="#fff"/><path d="M69.776 128.696c-4.498.31-8.4-3.072-8.712-7.557a5.354 5.354 0 0 1-.012-.235 8.04 8.04 0 0 1 1.064-4.539 54.743 54.743 0 0 1 15.058-16.434 60.125 60.125 0 0 1 8.27-5.218c9.3-4.765 18.635-6.07 23.748-1.426a10.57 10.57 0 0 1 2.635 3.757c7.362 17.2-12.389 29.913-42.051 31.652z" fill="#302A27"/><g fill="#fff"><path d="M71.52 114.783l-6.036-3.478.104-.139a50.667 50.667 0 0 1 3.089-3.67 67.36 67.36 0 0 1 1.919-1.965l.925 9.252z"/><path d="M71.52 116.522c-.3 0-.601-.078-.872-.233l-6.037-3.478a1.734 1.734 0 0 1-.522-2.55l.105-.138a51.613 51.613 0 0 1 3.204-3.807 70.344 70.344 0 0 1 1.984-2.031 1.748 1.748 0 0 1 1.814-.388 1.74 1.74 0 0 1 1.138 1.462l.925 9.252a1.735 1.735 0 0 1-.79 1.632c-.29.185-.618.28-.948.28zm-3.419-5.718l1.346.776-.211-2.108c-.38.428-.758.873-1.135 1.332zM85.48 94.766v11.321l-8.271-6.174a59.85 59.85 0 0 1 8.27-5.147z"/><path d="M85.481 107.826c-.37 0-.738-.116-1.047-.346l-8.27-6.174a1.736 1.736 0 0 1 .005-2.788 61.679 61.679 0 0 1 8.512-5.299 1.74 1.74 0 0 1 2.544 1.544v11.324a1.74 1.74 0 0 1-1.744 1.74zm-5.314-7.878l3.57 2.664v-4.91a58.614 58.614 0 0 0-3.57 2.246zM103.957 90.748l-4.519 10.122-5.863-9.34a22.433 22.433 0 0 1 10.382-.782z"/><path d="M99.44 102.61a1.746 1.746 0 0 1-1.48-.818l-5.862-9.34a1.739 1.739 0 0 1-.16-1.52 1.743 1.743 0 0 1 1.105-1.057 24.326 24.326 0 0 1 11.191-.843c.536.085 1 .413 1.258.888.259.475.281 1.044.062 1.536l-4.52 10.122c-.261.588-.83.982-1.472 1.028l-.122.003zm-3.125-9.996l2.865 4.562 2.209-4.948a21.168 21.168 0 0 0-5.074.386z"/></g><path d="M69.253 130.452a9.965 9.965 0 0 1-5.018-1.358 9.882 9.882 0 0 1-4.622-6.061 9.846 9.846 0 0 1 1.024-7.53c8.34-14.736 27.999-27.458 41.137-26.77 5.63.309 9.679 2.977 11.71 7.716 2.504 5.847 2.174 11.596-.951 16.63-5.997 9.653-21.941 16.14-42.656 17.354-.207.012-.417.019-.624.019zm31.408-38.273c-11.863 0-29.545 11.88-36.99 25.04l-.012.022a6.405 6.405 0 0 0-.672 4.906 6.428 6.428 0 0 0 3.006 3.943 6.477 6.477 0 0 0 3.675.87c19.587-1.148 34.5-7.023 39.9-15.715 2.537-4.086 2.774-8.604.707-13.433-1.492-3.487-4.417-5.374-8.69-5.61a18.437 18.437 0 0 0-.924-.023z" fill="#302A27"/><g fill="#71BF55"><path d="M113.78 82.695a13.428 13.428 0 0 1 5.549 4.157 18.994 18.994 0 0 1 3.28 6.052c.695 2.16 1.07 4.41 1.117 6.678 0 1.113 0 2.226-.14 3.34a32.434 32.434 0 0 1-.592 3.251.873.873 0 0 1-1.745-.087c-.123-1.06-.175-2.087-.227-3.13-.052-1.044-.21-2.052-.349-3.044a34.24 34.24 0 0 0-1.36-5.825 25.328 25.328 0 0 0-2.531-5.218 21.516 21.516 0 0 0-3.786-4.47l-.105-.087a.869.869 0 0 1 .89-1.46v-.157zM53.183 114.991c0 1.74 0 3.478.175 5.218.125 1.692.406 3.369.837 5.009a15.617 15.617 0 0 0 2.024 4.365 17.447 17.447 0 0 0 3.49 3.582c.37.31.416.858.106 1.225a.875.875 0 0 1-.979.254 11.772 11.772 0 0 1-5.077-3.218 13.911 13.911 0 0 1-2.984-5.322 17.712 17.712 0 0 1-.663-5.895 16.408 16.408 0 0 1 1.273-5.687.89.89 0 0 1 1.746.348l.052.121z"/></g></g></svg>