<svg width="142" height="160" xmlns="http://www.w3.org/2000/svg"><g fill="none"><path d="M138.62 97.021c0 42.303-16.906 59.574-67.62 59.574-50.714 0-67.619-17.27-67.619-59.574 0-42.303 6.762-93.617 67.62-93.617 60.856 0 67.618 51.314 67.618 93.617z" fill="#E33732"/><path d="M71 139.574c-47.952 0-65.668-15.455-67.45-52.899-.111 3.485-.17 6.945-.17 10.346 0 42.303 16.905 59.574 67.62 59.574 50.714 0 67.619-17.271 67.619-59.574 0-3.404-.051-6.86-.17-10.346-1.78 37.444-19.497 52.9-67.449 52.9z" fill="#AF2E41"/><g opacity=".36" fill="#000"><path opacity=".36" d="M71 112.544c-.933 0-1.69-.76-1.69-1.702V3.608c0-.94.757-1.702 1.69-1.702.933 0 1.69.763 1.69 1.702v107.234c0 .942-.757 1.702-1.69 1.702z"/><path opacity=".36" d="M71 112.544c-.933 0-1.69-.761-1.69-1.702 0-13.792 5.791-24.04 13.123-37.018 8.045-14.24 18.059-31.96 23.949-61.43a1.69 1.69 0 0 1 1.991-1.332 1.702 1.702 0 0 1 1.324 2.005c-5.998 30.005-16.161 47.99-24.326 62.442-7.083 12.538-12.68 22.441-12.68 35.333 0 .94-.758 1.702-1.691 1.702z"/><path opacity=".36" d="M71 112.545c-.933 0-1.69-.761-1.69-1.702 0-12.892-5.596-22.797-12.68-35.335-8.166-14.45-18.327-32.437-24.327-62.44a1.7 1.7 0 0 1 1.325-2.004 1.698 1.698 0 0 1 1.991 1.333c5.892 29.469 15.905 47.19 23.95 61.43 7.33 12.975 13.12 23.223 13.12 37.016.002.94-.756 1.702-1.689 1.702zM116.643 58.076a1.68 1.68 0 0 1-1.195-.499 1.708 1.708 0 0 1 0-2.407 53.64 53.64 0 0 0 11.996-18.464 1.687 1.687 0 0 1 2.19-.964c.871.342 1.3 1.331.959 2.206a57.018 57.018 0 0 1-12.755 19.63 1.68 1.68 0 0 1-1.195.498zM25.357 58.076a1.68 1.68 0 0 1-1.195-.498 57.01 57.01 0 0 1-12.753-19.63 1.706 1.706 0 0 1 .957-2.205 1.684 1.684 0 0 1 2.19.963 53.627 53.627 0 0 0 11.996 18.465 1.708 1.708 0 0 1 0 2.407 1.68 1.68 0 0 1-1.195.498z"/><path opacity=".36" d="M83.508 158.093a1.694 1.694 0 0 1-1.67-1.453c-4.84-32.82-9.041-43.086-10.838-44.065-1.797.98-6.001 11.25-10.837 44.066a1.71 1.71 0 0 1-1.921 1.435 1.7 1.7 0 0 1-1.423-1.933C63.745 109.14 68.829 109.14 71 109.14c2.169 0 7.25 0 14.183 47a1.7 1.7 0 0 1-1.675 1.953zM107.09 153.975a1.69 1.69 0 0 1-1.656-1.376c-5.045-25.831-26.681-40.185-26.9-40.326a1.71 1.71 0 0 1-.502-2.354 1.684 1.684 0 0 1 2.338-.506c.94.61 23.064 15.294 28.38 42.53a1.704 1.704 0 0 1-1.66 2.032zM133.584 130.57a1.685 1.685 0 0 1-1.42-.775c-9.477-14.709-21.233-20.775-21.35-20.835a1.71 1.71 0 0 1-.752-2.284 1.69 1.69 0 0 1 2.267-.759c.512.257 12.663 6.495 22.671 22.026a1.707 1.707 0 0 1-.499 2.354 1.675 1.675 0 0 1-.917.274zM121.713 88.715c-.808 0-1.52-.582-1.664-1.41a1.702 1.702 0 0 1 1.375-1.969 33.6 33.6 0 0 0 15.613-7.227c.72-.601 1.789-.494 2.379.231.594.725.491 1.8-.23 2.395a36.99 36.99 0 0 1-17.182 7.956 1.92 1.92 0 0 1-.291.024zM34.91 153.975a1.704 1.704 0 0 1-1.662-2.032c5.318-27.235 27.441-41.917 28.381-42.53a1.683 1.683 0 0 1 2.336.504 1.71 1.71 0 0 1-.499 2.354c-.218.143-21.866 14.546-26.9 40.33a1.691 1.691 0 0 1-1.656 1.374zM8.417 130.57a1.67 1.67 0 0 1-.918-.274 1.709 1.709 0 0 1-.497-2.354c10.008-15.53 22.16-21.769 22.673-22.026a1.69 1.69 0 0 1 2.267.76 1.71 1.71 0 0 1-.752 2.284c-.117.06-11.873 6.128-21.35 20.834a1.694 1.694 0 0 1-1.423.776zM20.287 88.715c-.096 0-.194-.008-.292-.025a36.99 36.99 0 0 1-17.184-7.956 1.71 1.71 0 0 1-.228-2.397 1.684 1.684 0 0 1 2.38-.23 33.575 33.575 0 0 0 15.614 7.228 1.7 1.7 0 0 1 1.374 1.97 1.694 1.694 0 0 1-1.664 1.41zM43.954 88.715c-.625 0-1.225-.35-1.52-.953a1.707 1.707 0 0 1 .775-2.278c5.663-2.798 9.936-7.634 12.032-13.624.154-.437.477-.793.898-.983.42-.193.897-.203 1.325-.031 4.583 1.845 9.753-.083 12.038-4.483a1.685 1.685 0 0 1 2.28-.72 1.706 1.706 0 0 1 .716 2.296c-2.822 5.44-8.91 8.088-14.663 6.604a27.245 27.245 0 0 1-13.139 13.999 1.665 1.665 0 0 1-.742.173z"/><path opacity=".36" d="M98.046 88.715c-.249 0-.504-.054-.742-.175A27.238 27.238 0 0 1 84.165 74.54c-5.744 1.485-11.838-1.16-14.661-6.604a1.708 1.708 0 0 1 .715-2.296 1.683 1.683 0 0 1 2.28.72c2.284 4.4 7.46 6.33 12.038 4.483a1.68 1.68 0 0 1 1.328.03c.419.191.742.547.896.984 2.094 5.989 6.37 10.828 12.032 13.624a1.707 1.707 0 0 1 .773 2.278 1.684 1.684 0 0 1-1.52.955zM105.115 146.856c-.439 0-.869-.174-1.188-.492-.37-.365-9.259-8.884-21.954-1.697a1.69 1.69 0 0 1-2.18-.463 11.016 11.016 0 0 0-8.791-4.426c-.933 0-1.69-.76-1.69-1.702 0-.941.757-1.702 1.69-1.702 4.01 0 7.859 1.719 10.56 4.659 10.484-5.284 18.819-1.331 22.575 1.21 4.285-13.87 17.111-22 20.52-23.954 1.047-8.945 5.736-17.081 12.962-22.436a1.685 1.685 0 0 1 2.363.363c.553.757.39 1.823-.36 2.38-6.69 4.956-10.953 12.576-11.691 20.907a1.701 1.701 0 0 1-.908 1.361c-.17.087-16.79 8.904-20.255 24.657a1.696 1.696 0 0 1-1.652 1.335zM77.762 127.217c-.379 0-.75-.127-1.055-.37A11.052 11.052 0 0 0 71 124.468a11.063 11.063 0 0 0-5.707 2.378c-.42.336-.975.452-1.494.313a1.694 1.694 0 0 1-1.135-1.029c-1.479-3.843-5.607-6.05-9.597-5.118a1.689 1.689 0 0 1-2.027-1.277 1.703 1.703 0 0 1 1.268-2.04c4.931-1.14 9.997 1.1 12.576 5.314a14.4 14.4 0 0 1 5.957-1.946c.106-.01.216-.01.323 0 2.116.204 4.142.87 5.955 1.946 2.58-4.218 7.651-6.457 12.576-5.314a1.703 1.703 0 0 1 1.268 2.04 1.688 1.688 0 0 1-2.027 1.277c-3.987-.933-8.116 1.275-9.597 5.118a1.692 1.692 0 0 1-1.577 1.086zM71 112.544c-.02 0-.04 0-.063-.002a19.898 19.898 0 0 1-14.776-7.438 1.709 1.709 0 0 1 .25-2.393 1.683 1.683 0 0 1 2.377.252 16.523 16.523 0 0 0 12.27 6.178 1.696 1.696 0 0 1 1.628 1.762c-.031.92-.78 1.64-1.686 1.64z"/><path opacity=".36" d="M71 112.545a1.696 1.696 0 0 1-1.689-1.641 1.695 1.695 0 0 1 1.628-1.762 16.52 16.52 0 0 0 12.271-6.179 1.68 1.68 0 0 1 2.377-.251c.727.59.839 1.663.25 2.393a19.895 19.895 0 0 1-14.776 7.438c-.02.002-.04.002-.061.002zM28.736 66.587a1.695 1.695 0 0 1-1.638-1.285 1.703 1.703 0 0 1 1.226-2.068A24.449 24.449 0 0 0 44.134 50.5c.317-.626.985-.99 1.676-.925.157.014 16.215 1.514 23.995-6.318a1.68 1.68 0 0 1 2.39 0 1.708 1.708 0 0 1 0 2.407c-7.702 7.757-21.498 7.615-25.577 7.382a27.82 27.82 0 0 1-17.466 13.49 1.654 1.654 0 0 1-.416.052zM138.617 73.396c-.284 0-.573-.072-.836-.225-10.917-6.28-13.68-22.192-14.246-26.595-3.562-1.303-14.876-6.183-19.851-17.132-5.274 2.005-22.073 6.834-33.967-7.139a1.711 1.711 0 0 1 .183-2.4 1.68 1.68 0 0 1 2.383.184c12.53 14.716 31.382 5.699 31.57 5.605a1.69 1.69 0 0 1 1.366-.053c.44.177.79.533.956.98 4.688 12.482 19.26 17.015 19.405 17.059a1.7 1.7 0 0 1 1.199 1.483c.017.187 1.765 18.774 12.679 25.053a1.708 1.708 0 0 1 .628 2.322c-.31.55-.88.858-1.469.858z"/><path opacity=".36" d="M113.264 66.587c-.137 0-.277-.017-.416-.051a27.817 27.817 0 0 1-17.466-13.49c-4.08.236-17.875.373-25.577-7.382a1.708 1.708 0 0 1 0-2.406 1.68 1.68 0 0 1 2.39 0c7.797 7.85 23.835 6.336 23.994 6.318a1.694 1.694 0 0 1 1.676.924 24.446 24.446 0 0 0 15.811 12.736 1.706 1.706 0 0 1 1.226 2.068 1.696 1.696 0 0 1-1.638 1.283zM36.885 146.856a1.696 1.696 0 0 1-1.65-1.334c-3.467-15.751-20.09-24.568-20.257-24.655a1.706 1.706 0 0 1-.91-1.362c-.738-8.332-5-15.952-11.69-20.907a1.71 1.71 0 0 1-.36-2.38 1.688 1.688 0 0 1 2.362-.362c7.226 5.355 11.915 13.49 12.961 22.435 3.41 1.955 16.236 10.085 20.521 23.955 3.758-2.538 12.096-6.492 22.576-1.21 2.703-2.942 6.553-4.661 10.563-4.661.933 0 1.69.76 1.69 1.702 0 .941-.757 1.702-1.69 1.702-3.44 0-6.727 1.655-8.79 4.426-.51.684-1.441.88-2.181.463-12.77-7.224-21.866 1.605-21.956 1.697-.32.32-.75.491-1.19.491zM3.383 73.395a1.686 1.686 0 0 1-1.47-.857 1.709 1.709 0 0 1 .63-2.322C13.48 63.923 15.204 45.35 15.22 45.164a1.7 1.7 0 0 1 1.197-1.482c.147-.045 14.732-4.617 19.406-17.06.17-.445.516-.8.957-.978.44-.177.935-.156 1.365.05.772.377 19.078 9.072 31.571-5.604a1.684 1.684 0 0 1 2.384-.184 1.71 1.71 0 0 1 .182 2.4c-11.894 13.971-28.69 9.144-33.968 7.14-4.975 10.949-16.29 15.829-19.852 17.131C17.9 50.98 15.137 66.892 4.22 73.173a1.675 1.675 0 0 1-.836.222z"/></g><path d="M65.083 110.17C55.34 83.515 32.457 90.15 26.635 55.32c-23.344 28.868 2.746 88.049 38.448 54.85z" fill="#000"/><path d="M44.282 120.872c-5.455 0-10.61-2.141-15.169-6.455-13.456-12.73-17.755-41.552-3.134-59.636a.844.844 0 0 1 1.49.397c3.188 19.07 11.388 25.348 20.07 31.993 6.852 5.243 13.937 10.666 18.337 22.705a.853.853 0 0 1-.22.919c-7.203 6.698-14.524 10.077-21.374 10.077zM26.143 57.357c-12.437 17.212-8.168 44.185 4.128 55.818 9.447 8.936 21.748 7.744 33.82-3.245-4.245-11.203-11.02-16.388-17.574-21.404-8.282-6.34-16.837-12.887-20.374-31.17z" fill="#000"/><g fill="#fff"><path d="M46.716 113.192c-7.637 0-12.136-7.762-13.716-11.098a38.234 38.234 0 0 1-3.247-19.54c4.353 6.938 9.804 11.041 14.857 14.85 4.867 3.665 8.924 6.72 12.013 12.16a18.12 18.12 0 0 1-9.905 3.628h-.002z"/><path d="M46.716 114.042c-8.116 0-12.829-8.1-14.479-11.583a39.147 39.147 0 0 1-3.325-19.99.848.848 0 0 1 .646-.745.835.835 0 0 1 .91.374c4.264 6.799 9.539 10.771 14.637 14.613 4.88 3.677 9.078 6.84 12.253 12.43a.856.856 0 0 1-.227 1.104 18.91 18.91 0 0 1-10.364 3.794c-.017.003-.035.003-.05.003zm-16.28-28.95a37.42 37.42 0 0 0 3.331 16.648c1.505 3.174 5.787 10.583 12.925 10.6 3.17-.18 6.2-1.22 8.81-3.014-2.945-4.871-6.695-7.697-11.391-11.237-4.486-3.38-9.492-7.15-13.676-12.996z"/></g><path d="M76.917 110.17c9.743-26.656 32.626-20.021 38.448-54.85 23.344 28.868-2.746 88.049-38.448 54.85z" fill="#000"/><path d="M97.718 120.871c-6.85 0-14.171-3.376-21.374-10.076a.857.857 0 0 1-.22-.92c4.4-12.038 11.485-17.461 18.337-22.704 8.682-6.645 16.883-12.922 20.07-31.993a.844.844 0 1 1 1.49-.397c14.621 18.084 10.32 46.906-3.134 59.636-4.56 4.311-9.716 6.454-15.169 6.454zm-19.81-10.94c12.07 10.99 24.373 12.181 33.82 3.245 12.296-11.632 16.566-38.608 4.129-55.82-3.537 18.283-12.09 24.83-20.374 31.17-6.556 5.016-13.33 10.2-17.574 21.404z" fill="#000"/><g fill="#fff"><path d="M95.283 113.192c7.638 0 12.136-7.762 13.717-11.098a38.234 38.234 0 0 0 3.247-19.54c-4.353 6.938-9.805 11.041-14.858 14.85-4.866 3.665-8.924 6.72-12.012 12.16a18.124 18.124 0 0 0 9.906 3.628z"/><path d="M95.283 114.042l-.045-.001a18.922 18.922 0 0 1-10.368-3.794.855.855 0 0 1-.228-1.103c3.175-5.59 7.37-8.753 12.23-12.414 5.127-3.864 10.396-7.835 14.66-14.63a.839.839 0 0 1 .91-.374c.352.083.61.383.648.745a39.122 39.122 0 0 1-3.324 19.978c-1.653 3.493-6.365 11.593-14.482 11.593zm-8.785-4.716a17.218 17.218 0 0 0 8.807 3.014c7.143-.015 11.421-7.424 12.931-10.61a37.445 37.445 0 0 0 3.329-16.637c-4.182 5.843-9.183 9.612-13.648 12.977-4.724 3.557-8.476 6.383-11.419 11.256z"/></g><path d="M71 160c-51.093 0-71-17.658-71-62.979C0 51.851 8.07 0 71 0c62.931 0 71 51.85 71 97.021C142 142.342 122.095 160 71 160zM71 6.808c-56.605 0-64.238 45.604-64.238 90.213 0 41.471 16.81 56.171 64.238 56.171s64.238-14.7 64.238-56.17c0-44.61-7.633-90.214-64.238-90.214z" fill="#000"/></g></svg>