<svg class="t-twitterIcon" width="30" height="30" xmlns="http://www.w3.org/2000/svg"><g clip-path="url(#clip0)" fill="none"><path d="M26 8.013a8.622 8.622 0 0 1-2.475.675 4.306 4.306 0 0 0 1.895-2.374 8.645 8.645 0 0 1-2.736 1.04A4.312 4.312 0 0 0 19.538 6c-2.378 0-4.308 1.922-4.308 4.292 0 .336.038.663.112.978a12.246 12.246 0 0 1-8.88-4.485 4.287 4.287 0 0 0 1.333 5.73 4.29 4.29 0 0 1-1.952-.537v.054A4.298 4.298 0 0 0 9.3 16.24a4.308 4.308 0 0 1-1.945.074 4.311 4.311 0 0 0 4.025 2.98 8.666 8.666 0 0 1-5.352 1.838c-.347 0-.69-.02-1.027-.06A12.22 12.22 0 0 0 11.604 23c7.924 0 12.258-6.54 12.258-12.211 0-.186-.004-.372-.012-.555A8.718 8.718 0 0 0 26 8.013z" fill="#fff"/></g><defs><clipPath id="clip0"><path fill="#fff" d="M0 0h30v30H0z"/></clipPath></defs></svg>