<svg class="t-vkIcon" width="30" height="30" xmlns="http://www.w3.org/2000/svg"><g clip-path="url(#clip0)" fill="none"><path fill-rule="evenodd" clip-rule="evenodd" d="M14.72 22.99h1.553c.264-.03.511-.142.711-.318a1.16 1.16 0 0 0 .214-.69s-.03-2.13.938-2.44c.968-.311 2.18 2.036 3.48 2.938a2.335 2.335 0 0 0 1.728.505h3.469s1.817-.139.955-1.583a11.675 11.675 0 0 0-2.582-3.018c-2.178-2.042-1.886-1.712.738-5.245 1.597-2.15 2.236-3.465 2.036-4.027a1.556 1.556 0 0 0-1.356-.444h-3.918a.939.939 0 0 0-.505.102 1.112 1.112 0 0 0-.347.457 22.494 22.494 0 0 1-1.445 3.112c-1.742 2.987-2.438 3.145-2.722 2.96-.663-.433-.496-1.737-.496-2.664 0-2.895.434-4.102-.847-4.415a6.599 6.599 0 0 0-1.825-.184 8.36 8.36 0 0 0-3.244.336c-.445.22-.789.71-.578.738.445.039.858.248 1.156.584.27.555.404 1.169.387 1.788 0 0 .232 3.409-.537 3.83-.528.29-1.25-.302-2.803-3.013a24.59 24.59 0 0 1-1.4-2.945 1.167 1.167 0 0 0-.322-.439 1.6 1.6 0 0 0-.6-.245H2.842a1.264 1.264 0 0 0-.764.26.825.825 0 0 0-.015.668s2.91 6.93 6.204 10.398a9.014 9.014 0 0 0 2.922 2.166c1.109.515 2.31.797 3.53.828z" fill="#fff"/></g><defs><clipPath id="clip0"><path fill="#fff" d="M0 0h30v30H0z"/></clipPath></defs></svg>