<svg class="t-youTubeIcon" width="30" height="30" xmlns="http://www.w3.org/2000/svg"><g clip-path="url(#clip0)" fill="none"><path d="M14.993 6s-7.501 0-9.384.495C4.6 6.78 3.77 7.62 3.489 8.655 3 10.562 3 14.509 3 14.509s0 3.96.49 5.836a3.073 3.073 0 0 0 2.119 2.146c1.897.51 9.384.51 9.384.51s7.515 0 9.398-.495a3.001 3.001 0 0 0 2.105-2.146C27 18.47 27 14.523 27 14.523s.015-3.962-.504-5.867a2.981 2.981 0 0 0-2.105-2.13C22.508 6 14.993 6 14.993 6zm-2.387 4.862l6.24 3.646-6.24 3.63v-7.277z" fill="#fff"/></g><defs><clipPath id="clip0"><path fill="#fff" d="M0 0h30v30H0z"/></clipPath></defs></svg>