<?xml version="1.0" encoding="utf-8"?>
<!-- Generated by IcoMoon.io -->
<!DOCTYPE svg PUBLIC "-//W3C//DTD SVG 1.1//EN" "http://www.w3.org/Graphics/SVG/1.1/DTD/svg11.dtd">
<svg version="1.1" xmlns="http://www.w3.org/2000/svg" xmlns:xlink="http://www.w3.org/1999/xlink" width="32" height="32" viewBox="0 0 32 32">
<path d="M16 1.6c11.2 0 14.4 4.656 14.4 10.4s-3.2 10.4-14.4 10.4-14.4-4.656-14.4-10.4 3.2-10.4 14.4-10.4zM8.8 14.4c1.328 0 2.4-1.072 2.4-2.4s-1.072-2.4-2.4-2.4-2.4 1.072-2.4 2.4 1.072 2.4 2.4 2.4zM16 14.4c1.328 0 2.4-1.072 2.4-2.4s-1.072-2.4-2.4-2.4-2.4 1.072-2.4 2.4 1.072 2.4 2.4 2.4zM23.2 14.4c1.328 0 2.4-1.072 2.4-2.4s-1.072-2.4-2.4-2.4-2.4 1.072-2.4 2.4 1.072 2.4 2.4 2.4zM9.6 23.2c1.328 0 2.4 1.072 2.4 2.4s-1.072 2.4-2.4 2.4-2.4-1.072-2.4-2.4 1.072-2.4 2.4-2.4zM4.8 26.4c0.88 0 1.6 0.72 1.6 1.6s-0.72 1.6-1.6 1.6-1.6-0.72-1.6-1.6 0.72-1.6 1.6-1.6z"></path>
</svg>
