<svg width="24" height="24" viewBox="0 0 24 24" version="1.1" xmlns="http://www.w3.org/2000/svg" xmlns:xlink="http://www.w3.org/1999/xlink">
<g id="Canvas" transform="translate(-1793 -5605)">
<g id="iconArrow" class="t-icon">
<g id="Ellipse" class="t-svgEllipse">
<use xlink:href="#path0_fill" transform="translate(1793 5605)"/>
</g>
<g id="Vector" class="t-svgFigure">
<use xlink:href="#path1_stroke" transform="translate(1801 5613)"/>
</g>
</g>
</g>
<defs>
<path id="path0_fill" d="M 24 12C 24 18.6274 18.6274 24 12 24C 5.37258 24 0 18.6274 0 12C 0 5.37258 5.37258 0 12 0C 18.6274 0 24 5.37258 24 12Z"/>
<path id="path1_stroke" d="M 5 0C 5 -0.552285 4.55228 -1 4 -1C 3.44772 -1 3 -0.552285 3 0L 5 0ZM 4 8L 3.29289 8.70711C 3.68342 9.09763 4.31658 9.09763 4.70711 8.70711L 4 8ZM 0.707107 3.29289C 0.316583 2.90237 -0.316583 2.90237 -0.707107 3.29289C -1.09763 3.68342 -1.09763 4.31658 -0.707107 4.70711L 0.707107 3.29289ZM 8.70711 4.70711C 9.09763 4.31658 9.09763 3.68342 8.70711 3.29289C 8.31658 2.90237 7.68342 2.90237 7.29289 3.29289L 8.70711 4.70711ZM 3 0L 3 8L 5 8L 5 0L 3 0ZM -0.707107 4.70711L 3.29289 8.70711L 4.70711 7.29289L 0.707107 3.29289L -0.707107 4.70711ZM 7.29289 3.29289L 3.29289 7.29289L 4.70711 8.70711L 8.70711 4.70711L 7.29289 3.29289Z"/>
</defs>
</svg>
