<svg width="52" height="24" xmlns="http://www.w3.org/2000/svg" xmlns:xlink="http://www.w3.org/1999/xlink"><use xlink:href="#path0_fill" fill="#FFF"/><use xlink:href="#path1_stroke" transform="rotate(-90 12 4)" fill="#E0E0E0"/><defs><path id="path0_fill" d="M0 12C0 5.373 5.373 0 12 0h28c6.627 0 12 5.373 12 12s-5.373 12-12 12H12C5.373 24 0 18.627 0 12z"/><path id="path1_stroke" d="M5 0a1 1 0 0 0-2 0h2zM4 36l-.707.707a1 1 0 0 0 1.414 0L4 36zM.707 31.293a1 1 0 0 0-1.414 1.414l1.414-1.414zm8 1.414a1 1 0 1 0-1.414-1.414l1.414 1.414zM3 0v36h2V0H3zM-.707 32.707l4 4 1.414-1.414-4-4-1.414 1.414zm8-1.414l-4 4 1.414 1.414 4-4-1.414-1.414z"/></defs></svg>