<svg width="52" height="24" viewBox="0 0 52 24" version="1.1" xmlns="http://www.w3.org/2000/svg" xmlns:xlink="http://www.w3.org/1999/xlink">
<g id="Canvas" transform="translate(-1825 -5605)">
<g id="iconArrow">
<g id="Ellipse">
<use xlink:href="#path0_fill" transform="translate(1825 5605)" fill="#FFFFFF"/>
</g>
<g id="Vector">
<use xlink:href="#path1_stroke" transform="matrix(6.12323e-17 -1 1 6.12323e-17 1833 5621)" fill="#E0E0E0"/>
</g>
</g>
</g>
<defs>
<path id="path0_fill" d="M 0 12C 0 5.37258 5.37258 0 12 0L 40 0C 46.6274 0 52 5.37258 52 12C 52 18.6274 46.6274 24 40 24L 12 24C 5.37258 24 0 18.6274 0 12Z"/>
<path id="path1_stroke" d="M 5 0C 5 -0.552285 4.55228 -1 4 -1C 3.44772 -1 3 -0.552285 3 0L 5 0ZM 4 36L 3.29289 36.7071C 3.68342 37.0976 4.31658 37.0976 4.70711 36.7071L 4 36ZM 0.707107 31.2929C 0.316583 30.9024 -0.316583 30.9024 -0.707107 31.2929C -1.09763 31.6834 -1.09763 32.3166 -0.707107 32.7071L 0.707107 31.2929ZM 8.70711 32.7071C 9.09763 32.3166 9.09763 31.6834 8.70711 31.2929C 8.31658 30.9024 7.68342 30.9024 7.29289 31.2929L 8.70711 32.7071ZM 3 0L 3 36L 5 36L 5 0L 3 0ZM -0.707107 32.7071L 3.29289 36.7071L 4.70711 35.2929L 0.707107 31.2929L -0.707107 32.7071ZM 7.29289 31.2929L 3.29289 35.2929L 4.70711 36.7071L 8.70711 32.7071L 7.29289 31.2929Z"/>
</defs>
</svg>
