<svg width="24" height="24" viewBox="0 0 24 24" version="1.1" xmlns="http://www.w3.org/2000/svg" xmlns:xlink="http://www.w3.org/1999/xlink">
<g id="Canvas" transform="translate(-1729 -5605)">
<g id="iconCloser" class="t-icon">
<g id="Ellipse" class="t-svgEllipse">
<use xlink:href="#path0_fill" transform="translate(1729 5605)"/>
</g>
<g id="Vector" class="t-svgFigure">
<use xlink:href="#path1_stroke" transform="translate(1738 5614)"/>
</g>
</g>
</g>
<defs>
<path id="path0_fill" d="M 24 12C 24 18.6274 18.6274 24 12 24C 5.37258 24 0 18.6274 0 12C 0 5.37258 5.37258 0 12 0C 18.6274 0 24 5.37258 24 12Z"/>
<path id="path1_stroke" d="M 0.707107 -0.707107C 0.316583 -1.09763 -0.316583 -1.09763 -0.707107 -0.707107C -1.09763 -0.316583 -1.09763 0.316583 -0.707107 0.707107L 0.707107 -0.707107ZM 5.29289 6.70711C 5.68342 7.09763 6.31658 7.09763 6.70711 6.70711C 7.09763 6.31658 7.09763 5.68342 6.70711 5.29289L 5.29289 6.70711ZM -0.707107 5.29289C -1.09763 5.68342 -1.09763 6.31658 -0.707107 6.70711C -0.316583 7.09763 0.316583 7.09763 0.707107 6.70711L -0.707107 5.29289ZM 6.70711 0.707107C 7.09763 0.316583 7.09763 -0.316583 6.70711 -0.707107C 6.31658 -1.09763 5.68342 -1.09763 5.29289 -0.707107L 6.70711 0.707107ZM -0.707107 0.707107L 5.29289 6.70711L 6.70711 5.29289L 0.707107 -0.707107L -0.707107 0.707107ZM 0.707107 6.70711L 6.70711 0.707107L 5.29289 -0.707107L -0.707107 5.29289L 0.707107 6.70711Z"/>
</defs>
</svg>
