<svg width="24" height="24" xmlns="http://www.w3.org/2000/svg" xmlns:xlink="http://www.w3.org/1999/xlink"><use xlink:href="#path0_fillCloser" class="t-svgBg" fill="#FFF"/><use xlink:href="#path1_strokeCloser" transform="translate(9 9)" class="t-svgFigure" fill="#E0E0E0"/><defs><path id="path0_fillCloser" d="M24 12c0 6.627-5.373 12-12 12S0 18.627 0 12 5.373 0 12 0s12 5.373 12 12z"/><path id="path1_strokeCloser" d="M.707-.707A1 1 0 0 0-.707.707L.707-.707zm4.586 7.414a1 1 0 0 0 1.414-1.414L5.293 6.707zm-6-1.414A1 1 0 0 0 .707 6.707L-.707 5.293zM6.707.707A1 1 0 0 0 5.293-.707L6.707.707zm-7.414 0l6 6 1.414-1.414-6-6L-.707.707zm1.414 6l6-6L5.293-.707l-6 6L.707 6.707z"/></defs></svg>