<svg width="24" height="24" viewBox="0 0 24 24" version="1.1" xmlns="http://www.w3.org/2000/svg" xmlns:xlink="http://www.w3.org/1999/xlink">
<g id="Canvas" transform="translate(-1793 -5524)">
<g id="IconEdit">
<g id="Ellipse">
<use xlink:href="#path0_fill" transform="translate(1793 5524)" fill="#FFFFFF"/>
</g>
<g id="Icon (Stroke)">
<use xlink:href="#path1_fill" transform="matrix(1 -5.55112e-17 5.55112e-17 1 1801 5532)" fill="#E0E0E0"/>
</g>
</g>
</g>
<defs>
<path id="path0_fill" d="M 24 12C 24 18.6274 18.6274 24 12 24C 5.37258 24 0 18.6274 0 12C 0 5.37258 5.37258 0 12 0C 18.6274 0 24 5.37258 24 12Z"/>
<path id="path1_fill" fill-rule="evenodd" d="M 7.87019 0.507362C 8.09166 0.898504 8.02495 1.38935 7.70711 1.70719L 1.70711 7.70719C 1.31658 8.09772 0.683417 8.09772 0.292893 7.70719C -0.0976311 7.31667 -0.0976311 6.6835 0.292893 6.29298L 3.73974 2.84613L 3.24259 2.97045C 2.7068 3.10443 2.16385 2.7787 2.02987 2.24291C 1.89589 1.70712 2.22162 1.16417 2.75741 1.03019L 6.75741 0.0299565C 7.19348 -0.0790856 7.64871 0.116221 7.87019 0.507362Z"/>
</defs>
</svg>
