<svg width="24" height="24" viewBox="0 0 24 24" version="1.1" xmlns="http://www.w3.org/2000/svg" xmlns:xlink="http://www.w3.org/1999/xlink">
<title>iconFilter</title>
<desc>Created using Figma</desc>
<g id="Canvas" transform="translate(-3876 -8836)">
<g id="iconFilter">
<g id="Ellipse">
<use xlink:href="#path0_fill" transform="translate(3876 8836)" fill="#FFFFFF"/>
</g>
<g id="Icon">
<use xlink:href="#path1_stroke" transform="translate(3883 8845)" fill="#E0E0E0"/>
</g>
</g>
</g>
<defs>
<path id="path0_fill" d="M 24 12C 24 18.6274 18.6274 24 12 24C 5.37258 24 0 18.6274 0 12C 0 5.37258 5.37258 0 12 0C 18.6274 0 24 5.37258 24 12Z"/>
<path id="path1_stroke" d="M 10 0L 10.7071 0.707107C 10.9931 0.421109 11.0787 -0.00900904 10.9239 -0.382683C 10.7691 -0.756358 10.4045 -1 10 -1L 10 0ZM 0 0L 0 -1C -0.404462 -1 -0.769099 -0.756358 -0.92388 -0.382683C -1.07866 -0.00900904 -0.993105 0.421109 -0.707107 0.707107L 0 0ZM 4 8C 4 8.55229 4.44772 9 5 9C 5.55228 9 6 8.55229 6 8L 4 8ZM 10 -1L 0 -1L 0 1L 10 1L 10 -1ZM -0.707107 0.707107L 4.29289 5.70711L 5.70711 4.29289L 0.707107 -0.707107L -0.707107 0.707107ZM 4 5L 4 8L 6 8L 6 5L 4 5ZM 5.70711 5.70711L 10.7071 0.707107L 9.29289 -0.707107L 4.29289 4.29289L 5.70711 5.70711Z"/>
</defs>
</svg>
