<svg width="24" height="24" xmlns="http://www.w3.org/2000/svg" xmlns:xlink="http://www.w3.org/1999/xlink"><use xlink:href="#path0_fillVideoLink" class="t-svgBg" fill="#FFF"/><use xlink:href="#path1_fillVideoLink" class="t-svgFigure" transform="translate(4 6)" fill="#E0E0E0"/><defs><path id="path0_fillVideoLink" d="M24 12c0 6.627-5.373 12-12 12S0 18.627 0 12 5.373 0 12 0s12 5.373 12 12z"/><path id="path1_fillVideoLink" fill-rule="evenodd" d="M5.78 1.625A1 1 0 1 0 4.22.375l-4 5a1 1 0 0 0 0 1.25l4 5a1 1 0 1 0 1.56-1.25L2.28 6l3.5-4.375zm4.44 0a1 1 0 1 1 1.56-1.25l4 5a1 1 0 0 1 0 1.25l-4 5a1 1 0 1 1-1.56-1.25L13.72 6l-3.5-4.375z"/></defs></svg>