<svg width="24" height="24" xmlns="http://www.w3.org/2000/svg" xmlns:xlink="http://www.w3.org/1999/xlink"><use xlink:href="#path0_fillLink" class="t-svgBg" fill="#FFF"/><use xlink:href="#path1_fillLink" class="t-svgFigure" transform="translate(7 6)" fill="#E0E0E0"/><defs><path id="path0_fillLink" d="M24 12c0 6.627-5.373 12-12 12S0 18.627 0 12 5.373 0 12 0s12 5.373 12 12z"/><path id="path1_fillLink" fill-rule="evenodd" d="M8 3.5a1.5 1.5 0 1 0-3 0v.837c.725.344 1.313.93 1.66 1.655A1.5 1.5 0 0 0 8 4.5v-1zM7 7.964A3.5 3.5 0 0 0 10 4.5v-1a3.5 3.5 0 1 0-7 0v.536A3.5 3.5 0 0 0 0 7.5v1a3.5 3.5 0 1 0 7 0v-.536zM3.34 6.008c.347.724.935 1.31 1.66 1.655V8.5a1.5 1.5 0 1 1-3 0v-1a1.5 1.5 0 0 1 1.34-1.492z"/></defs></svg>