<svg width="24" height="24" xmlns="http://www.w3.org/2000/svg" xmlns:xlink="http://www.w3.org/1999/xlink"><use xlink:href="#path0_fillCamera" class="t-svgBg" fill="#FFF"/><use xlink:href="#path1_fillCamera" class="t-svgFigure" transform="translate(4 5)" fill="#E0E0E0"/><defs><path id="path0_fillCamera" d="M24 12c0 6.627-5.373 12-12 12S0 18.627 0 12 5.373 0 12 0s12 5.373 12 12z"/><path id="path1_fillCamera" fill-rule="evenodd" d="M5 0a1 1 0 0 0-.894.553L3.382 2H1a1 1 0 0 0-1 1v9a1 1 0 0 0 1 1h14a1 1 0 0 0 1-1V3a1 1 0 0 0-1-1h-2.382L11.894.553A1 1 0 0 0 11 0H5zm-.106 3.447L5.618 2h4.764l.724 1.447A1 1 0 0 0 12 4h2v7H2V4h2a1 1 0 0 0 .894-.553zM7 7a1 1 0 1 1 2 0 1 1 0 0 1-2 0zm1-3a3 3 0 1 0 0 6 3 3 0 0 0 0-6z"/></defs></svg>