<svg width="24" height="24" xmlns="http://www.w3.org/2000/svg" xmlns:xlink="http://www.w3.org/1999/xlink"><use xlink:href="#path0_fill" fill="#FFF"/><use xlink:href="#path1_stroke" transform="translate(6.85 7.93)" fill="#E0E0E0"/><defs><path id="path0_fill" d="M24 12c0 6.627-5.373 12-12 12S0 18.627 0 12 5.373 0 12 0s12 5.373 12 12z"/><path id="path1_stroke" d="M10.147 4.066l.97.243-.97-.243zm-5 5l-.391.92a1 1 0 0 0 .783 0l-.392-.92zm-5-5l-.97.243.97-.243zm5-2l-.928.371a1 1 0 0 0 1.857 0l-.929-.37zm-3-2l-.242-.97.242.97zm6 0l.243-.97-.243.97zm1.03 3.757c-.317 1.269-1.34 2.343-2.425 3.144A11.781 11.781 0 0 1 4.9 8.079a6.101 6.101 0 0 1-.142.065l-.004.002.392.92.393.92.002-.001.004-.002.014-.006a5.036 5.036 0 0 0 .197-.09 13.78 13.78 0 0 0 2.182-1.31c1.214-.896 2.691-2.322 3.178-4.268l-1.94-.486zm-4.03 5.243l.393-.92-.004-.002a3.079 3.079 0 0 1-.142-.065 11.785 11.785 0 0 1-1.85-1.113c-1.085-.8-2.108-1.874-2.427-3.143l-1.94.486c.489 1.946 1.966 3.371 3.179 4.267a13.784 13.784 0 0 0 2.181 1.31 8.056 8.056 0 0 0 .211.097l.005.002h.002l.392-.919zm-4.03-5.243c-.206-.822-.12-1.461.1-1.898.212-.421.59-.743 1.173-.889l-.485-1.94C.794-.626-.079.052-.569 1.026c-.482.956-.55 2.106-.254 3.283l1.94-.486zM2.39 1.036c.485-.12.88.08 1.26.507a3.495 3.495 0 0 1 .567.89l.003.008V2.44a.115.115 0 0 1-.001-.002l.928-.372c.929-.37.929-.371.929-.372l-.001-.002-.002-.004a1.532 1.532 0 0 0-.018-.044 5.473 5.473 0 0 0-.219-.443 5.49 5.49 0 0 0-.69-.987C4.525-.483 3.42-1.283 1.904-.904l.485 1.94zm2.757 1.03c.929.372.929.372.928.373a.06.06 0 0 1 0 .001v.002h-.001a.705.705 0 0 1 .027-.061 3.502 3.502 0 0 1 .544-.838c.38-.428.776-.628 1.26-.507l.485-1.94C6.875-1.283 5.77-.483 5.15.214a5.498 5.498 0 0 0-.928 1.473l-.002.004v.002c0 .001-.001.001.927.373zm2.758-1.03c.583.146.96.468 1.172.889.22.437.306 1.076.1 1.898l1.94.486c.295-1.178.228-2.327-.253-3.284C10.374.052 9.5-.626 8.39-.904l-.485 1.94z"/></defs></svg>