<svg width="24" height="24" viewBox="0 0 24 24" version="1.1" xmlns="http://www.w3.org/2000/svg" xmlns:xlink="http://www.w3.org/1999/xlink">
<g id="Canvas" transform="translate(-1825 -5565)">
<g id="iconMinus" class="t-icon">
<g id="Ellipse" class="t-svgEllipse">
<use xlink:href="#path0_fill" transform="translate(1825 5565)"/>
</g>
<g id="Union" class="t-svgFigure">
<use xlink:href="#path1_fill" transform="translate(1832 5576)"/>
</g>
</g>
</g>
<defs>
<path id="path0_fill" d="M 24 12C 24 18.6274 18.6274 24 12 24C 5.37258 24 0 18.6274 0 12C 0 5.37258 5.37258 0 12 0C 18.6274 0 24 5.37258 24 12Z"/>
<path id="path1_fill" d="M 9 0C 9.55229 -3.38177e-17 10 0.447715 10 1C 10 1.55228 9.55229 2 9 2L 1 2C 0.447715 2 3.38177e-17 1.55228 0 1C -3.38177e-17 0.447715 0.447715 3.38177e-17 1 0L 9 0Z"/>
</defs>
</svg>
