<svg width="24" height="24" viewBox="0 0 24 24" version="1.1" xmlns="http://www.w3.org/2000/svg" xmlns:xlink="http://www.w3.org/1999/xlink">
<g id="Canvas" transform="translate(-1761 -5605)">
<g id="iconMore" class="t-icon">
<g id="Ellipse" class="t-svgEllipse">
<use xlink:href="#path0_fill" transform="translate(1761 5605)"/>
</g>
<g id="Union" class="t-svgFigure">
<use xlink:href="#path1_fill" transform="translate(1768 5616)"/>
</g>
</g>
</g>
<defs>
<path id="path0_fill" d="M 24 12C 24 18.6274 18.6274 24 12 24C 5.37258 24 0 18.6274 0 12C 0 5.37258 5.37258 0 12 0C 18.6274 0 24 5.37258 24 12Z"/>
<path id="path1_fill" fill-rule="evenodd" d="M 2 1C 2 1.55225 1.55078 2 1 2C 0.449219 2 0 1.55225 0 1C 0 0.447754 0.449219 0 1 0C 1.55078 0 2 0.447754 2 1ZM 6 1C 6 1.55225 5.55078 2 5 2C 4.44922 2 4 1.55225 4 1C 4 0.447754 4.44922 0 5 0C 5.55078 0 6 0.447754 6 1ZM 9 2C 9.55078 2 10 1.55225 10 1C 10 0.447754 9.55078 0 9 0C 8.44922 0 8 0.447754 8 1C 8 1.55225 8.44922 2 9 2Z"/>
</defs>
</svg>
