<svg width="24" height="24" xmlns="http://www.w3.org/2000/svg" xmlns:xlink="http://www.w3.org/1999/xlink"><use xlink:href="#path0_fill" fill="#FFF"/><use xlink:href="#path1_fill" transform="translate(7 7)" fill="#E0E0E0"/><defs><path id="path0_fill" d="M24 12c0 6.627-5.373 12-12 12S0 18.627 0 12 5.373 0 12 0s12 5.373 12 12z"/><path id="path1_fill" fill-rule="evenodd" d="M5 0c-.55 0-1 .448-1 1v3H1a1.001 1.001 0 0 0 0 2h3v3a1.001 1.001 0 0 0 2 0V6h3a1.001 1.001 0 0 0 0-2H6V1c0-.552-.45-1-1-1z"/></defs></svg>