<svg width="24" height="24" viewBox="0 0 24 24" version="1.1" xmlns="http://www.w3.org/2000/svg" xmlns:xlink="http://www.w3.org/1999/xlink">
<g id="Canvas" transform="translate(-1729 -5565)">
<g id="iconProfile">
<g id="Ellipse">
<use xlink:href="#path0_fill" transform="translate(1729 5565)" fill="#FFFFFF"/>
</g>
<g id="Union">
<use xlink:href="#path1_fill" transform="translate(1736 5571)" fill="#E0E0E0"/>
</g>
</g>
</g>
<defs>
<path id="path0_fill" d="M 24 12C 24 18.6274 18.6274 24 12 24C 5.37258 24 0 18.6274 0 12C 0 5.37258 5.37258 0 12 0C 18.6274 0 24 5.37258 24 12Z"/>
<path id="path1_fill" fill-rule="evenodd" d="M 7.00519 4C 7.00519 5.10449 6.11066 6 5.00519 6C 3.89972 6 3.00519 5.10449 3.00519 4C 3.00519 2.89551 3.89972 2 5.00519 2C 6.11066 2 7.00519 2.89551 7.00519 4ZM 7.91925 6.74219C 8.59503 6.02588 9.00519 5.06152 9.00519 4C 9.00519 1.79102 7.21613 0 5.00519 0C 2.79425 0 1.00519 1.79102 1.00519 4C 1.00519 5.06152 1.41534 6.02588 2.09113 6.74219C 1.34503 7.15479 0.708314 7.72461 0.200501 8.40186C -0.13153 8.84375 -0.0416863 9.4707 0.39972 9.80176C 0.841126 10.1333 1.47003 10.0439 1.80206 9.60205C 2.53253 8.62744 3.69269 8 5.00128 8C 6.31378 8 7.47394 8.62744 8.20441 9.60205C 8.53644 10.0439 9.16535 10.1333 9.60675 9.80176C 10.0482 9.4707 10.138 8.84375 9.80597 8.40186C 9.30206 7.73047 8.65753 7.15381 7.91925 6.74219Z"/>
</defs>
</svg>
