<svg width="11" height="11" viewBox="0 0 11 11" version="1.1" xmlns="http://www.w3.org/2000/svg" xmlns:xlink="http://www.w3.org/1999/xlink">
<title>Union</title>
<desc>Created using Figma</desc>
<g id="Canvas" transform="translate(-3285 -8870)">
<g id="Union">
<use xlink:href="#path0_fill" transform="translate(3285 8870)" fill="#E0E0E0"/>
</g>
</g>
<defs>
<path id="path0_fill" fill-rule="evenodd" d="M 7.00055 4C 7.00055 5.10449 6.10504 6 5.00055 6C 3.89606 6 3.00055 5.10449 3.00055 4C 3.00055 2.89551 3.89606 2 5.00055 2C 6.10504 2 7.00055 2.89551 7.00055 4ZM 7.90631 6.74902C 8.58454 6.03223 9.00055 5.06445 9.00055 4C 9.00055 1.79102 7.20978 0 5.00055 0C 2.79132 0 1.00055 1.79102 1.00055 4C 1.00055 5.06543 1.41706 6.0332 2.09577 6.75C 1.3526 7.16211 0.706606 7.72754 0.200259 8.40234C -0.131284 8.84375 -0.0419289 9.4707 0.399966 9.80176C 0.841616 10.1338 1.46857 10.0439 1.79987 9.60254C 2.53131 8.62793 3.69318 8 5.00202 8C 6.31085 8 7.47272 8.62793 8.20392 9.60254C 8.53546 10.0439 9.16242 10.1338 9.60407 9.80176C 10.0457 9.4707 10.1353 8.84375 9.80377 8.40234C 9.29718 7.72656 8.65021 7.16113 7.90631 6.74902Z"/>
</defs>
</svg>
