<svg width="24" height="24" viewBox="0 0 24 24" version="1.1" xmlns="http://www.w3.org/2000/svg" xmlns:xlink="http://www.w3.org/1999/xlink">
<g id="Canvas" transform="translate(-1697 -5485)">
<g id="IconViews">
<g id="Ellipse">
<use xlink:href="#path0_fill" transform="translate(1697 5485)" fill="#FFFFFF"/>
</g>
<g id="Union">
<use xlink:href="#path1_fill" transform="translate(1702.34 5492)" fill="#E0E0E0"/>
</g>
</g>
</g>
<defs>
<path id="path0_fill" d="M 24 12C 24 18.6274 18.6274 24 12 24C 5.37258 24 0 18.6274 0 12C 0 5.37258 5.37258 0 12 0C 18.6274 0 24 5.37258 24 12Z"/>
<path id="path1_fill" fill-rule="evenodd" d="M 2.87109 3.73462C 2.46875 4.2002 2.15234 4.74121 1.94141 5.33325C 1.75781 5.854 1.1875 6.12695 0.667969 5.94287C 0.144531 5.75879 -0.125 5.1875 0.0585938 4.66675C 1.01953 1.94922 3.60938 0 6.66016 0C 9.70703 0 12.3008 1.94922 13.2617 4.66675C 13.4453 5.1875 13.1719 5.75879 12.6523 5.94287C 12.1289 6.12695 11.5586 5.854 11.375 5.33325C 11.168 4.74878 10.8555 4.21436 10.4609 3.75269C 10.5859 4.14209 10.6602 4.5686 10.6602 5C 10.6602 7.20923 8.87109 9 6.66016 9C 4.44922 9 2.66016 7.20923 2.66016 5C 2.66016 4.55981 2.73828 4.13062 2.87109 3.73462ZM 8.66016 5C 8.66016 6.10449 7.76562 7 6.66016 7C 5.55469 7 4.66016 6.10449 4.66016 5C 4.66016 3.89551 5.55469 3 6.66016 3C 7.76562 3 8.66016 3.89551 8.66016 5Z"/>
</defs>
</svg>
