<svg width="40" height="40" xmlns="http://www.w3.org/2000/svg" xmlns:xlink="http://www.w3.org/1999/xlink"><use xlink:href="#path0_fillVk" fill="#4C75A3"/><use xlink:href="#path1_fillVk" transform="translate(9.07 12.9)" fill="#FFF"/><defs><path id="path0_fillVk" d="M20 0C9 0 0 9 0 20s9 20 20 20 20-9 20-20S31 0 20 0z"/><path id="path1_fillVk" d="M18.633 14.1h2.4c.7 0 1-.4.8-1.3-.2-.7-1-1.8-2-3-.3-.4-.7-.8-1-1.1-.3-.3-.6-.6-.7-.8-.4-.4-.3-.7 0-1.1 0 0 2.9-4.4 3.2-5.9.2-.5 0-.9-.7-.9h-2.4c-.6 0-.8.3-1 .7 0 0-1.3 3.2-3 5.3-.5.6-.8.8-1.1.8-.2 0-.4-.2-.4-.7V1c0-.6-.2-.9-.7-.9h-3.8c-.4 0-.6.3-.6.6 0 .2.1.4.3.6.3.4.6.8.7 1.9V7c0 .8-.1 1-.4 1-.8 0-2.8-3.2-4-6.9-.3-.7-.5-1-1.1-1h-2.4c-.7 0-.8.3-.7.7 0 .7.8 4.1 3.8 8.6 1.9 3 4.8 4.7 7.3 4.7 1.5 0 1.7-.4 1.7-1v-2.3c0-.8.1-.9.6-.9.4 0 1 .2 2.4 1.7.4.5.8.9 1.1 1.3.7.8 1.1 1.2 1.7 1.2z"/></defs></svg>