<svg width="24" height="24" xmlns="http://www.w3.org/2000/svg" xmlns:xlink="http://www.w3.org/1999/xlink"><use xlink:href="#path0_fill"/><use xlink:href="#path1_fill" transform="translate(6 7)"/><defs><path id="path0_fill" d="M24 12c0 6.627-5.373 12-12 12S0 18.627 0 12 5.373 0 12 0s12 5.373 12 12z"/><path id="path1_fill" fill-rule="evenodd" d="M0 1a1 1 0 0 1 1-1h10a1 1 0 0 1 1 1v7a1 1 0 0 1-1 1H8.414l-1.707 1.707a1 1 0 0 1-1.414 0L3.586 9H1a1 1 0 0 1-1-1V1zm2 1v5h2a1 1 0 0 1 .707.293L6 8.586l1.293-1.293A1 1 0 0 1 8 7h2V2H2z"/></defs></svg>