<svg width="163" height="20" viewBox="0 0 163 20" version="1.1" xmlns="http://www.w3.org/2000/svg" xmlns:xlink="http://www.w3.org/1999/xlink">
<g id="Canvas" transform="translate(-713 2229)">
<g id="&#208;&#148;&#209;&#131;&#208;&#179;&#208;&#176;" opacity="0.2">
<use xlink:href="#path0_strokeArc" transform="translate(714.774 -2227.23)"/>
</g>
</g>
<defs>
<path id="path0_strokeArc" d="M -0.400372 15.7254C -0.906459 15.9465 -1.13747 16.536 -0.916353 17.0421C -0.695234 17.5482 -0.105716 17.7792 0.400372 17.5581L -0.400372 15.7254ZM 159.6 17.5581C 160.106 17.7792 160.695 17.5482 160.916 17.0421C 161.137 16.536 160.906 15.9465 160.4 15.7254L 159.6 17.5581ZM 0.400372 17.5581C 24.775 6.90838 51.6962 1 80 1L 80 -1C 51.4154 -1 24.222 4.96742 -0.400372 15.7254L 0.400372 17.5581ZM 80 1C 108.304 1 135.225 6.90838 159.6 17.5581L 160.4 15.7254C 135.778 4.96742 108.585 -1 80 -1L 80 1Z"/>
</defs>
</svg>
