<svg width="25" height="8" viewBox="0 0 25 8" version="1.1" xmlns="http://www.w3.org/2000/svg" xmlns:xlink="http://www.w3.org/1999/xlink">
<g id="Canvas" transform="translate(-10431 -1991)">
<g id="Arrow">
<use xlink:href="#path0_strokeArrowLeft" transform="matrix(-1 1.22465e-16 -1.22465e-16 -1 10456 1995)" fill="#CCCCCC"/>
</g>
</g>
<defs>
<path id="path0_strokeArrowLeft" d="M 24.3536 0.353553C 24.5488 0.158291 24.5488 -0.158291 24.3536 -0.353553L 21.1716 -3.53553C 20.9763 -3.7308 20.6597 -3.7308 20.4645 -3.53553C 20.2692 -3.34027 20.2692 -3.02369 20.4645 -2.82843L 23.2929 0L 20.4645 2.82843C 20.2692 3.02369 20.2692 3.34027 20.4645 3.53553C 20.6597 3.7308 20.9763 3.7308 21.1716 3.53553L 24.3536 0.353553ZM 0 0.5L 24 0.5L 24 -0.5L 0 -0.5L 0 0.5Z"/>
</defs>
</svg>
