<svg xmlns="http://www.w3.org/2000/svg" aria-labelledby="title" width="729.6" height="250.8" viewBox="0 0 729.6 250.8"><title id="title">Vectors and Paths: An SVG Example</title><g id="back-wires"><path class="st0" d="M3.6 125.3C106.2 106 176.4 70.7 183.2 3.7 304 52.1 424.8 52.1 545.4 3.5 552.2 70.2 622 105.6 725.5 124c-135.3 22-231.9 60.2-271.2 122.6-60-25-120.2-24.9-180.6-.5-50.1-70.9-150-103.6-270.1-120.8zM3.6 125.3C154.7 105.9 282.4 70.5 364.8 3.9M364.8 3.9c-19.8 103.5-44 197.4-91.1 242.2M364.8 3.9c20.7 109.3 46.4 203.3 89.5 242.7M364.8 5.1C440.4 69 567.1 105.5 725.4 125.2"/></g><g id="logo-text-shadow"><path class="st1" d="M119.5 153.5L102.7 108h15.6l9.8 30.6L138 108h15.6l-16.8 45.5h-17.3zM149.5 137c0-9.6 7.3-17.3 18-17.3 9.7 0 17.1 7 17.1 18.6v2.5h-22.4c.7 2.1 3.1 4.2 7.1 4.2 1.8 0 5.9-.9 7.6-2.3l5.1 7.6c-3.3 2.8-9.1 4.1-14.1 4.1-10.4-.1-18.4-6.6-18.4-17.4zm17.9-7.9c-3.8 0-5 2.5-5.4 4h10.9c-.4-1.5-1.5-4-5.5-4zM186.5 137c0-10.4 8.1-17.3 18.5-17.3 7.5 0 12.1 3.4 14 6.2l-7.9 7.4c-1-1.6-2.9-2.8-5.5-2.8-3.5 0-6.5 2.2-6.5 6.4s3 6.5 6.5 6.5c2.6 0 4.5-1.4 5.5-2.9l7.9 7.5c-1.8 2.7-6.5 6.2-14 6.2-10.4.1-18.5-6.7-18.5-17.2zM225.6 143.9v-12.8h-5.5v-10.6h5.5v-9h12.3v9h6.7v10.6h-6.7v9.2c0 1.7 1.1 3.1 2.7 3.1 1.1 0 2.2-.3 2.5-.6l2.2 9.3c-1.3 1.2-4.2 2.2-8.3 2.2-7.4 0-11.4-3.5-11.4-10.4zM246.9 137c0-9.2 6.8-17.3 18.5-17.3S284 127.8 284 137c0 9.2-6.8 17.3-18.6 17.3-11.7 0-18.5-8.1-18.5-17.3zm24.4 0c0-3.6-2.1-6.4-5.9-6.4-3.8 0-5.9 2.8-5.9 6.4 0 3.7 2.1 6.5 5.9 6.5 3.8 0 5.9-2.8 5.9-6.5zM288.5 153.5v-33h12.3v3.6c2-2.4 6.3-4.6 10.1-4.6v11.7c-.6-.2-1.6-.3-2.8-.3-2.6 0-5.9.7-7.3 2.3v20.2h-12.3zM312.3 149.3l4.9-8.3c2.6 2 8.2 4.2 11.9 4.2 2.5 0 3.3-.6 3.3-1.4 0-1-2-1.3-4.6-1.6-5.5-.8-14.1-1.9-14.1-11.1 0-5.9 5.2-11.3 14.7-11.3 5.5 0 10.4 1.7 14.3 4.2l-4.5 8c-2-1.7-5.9-3.4-9.7-3.4-1.8 0-3.1.6-3.1 1.4 0 .9 1 1 4.2 1.5 5.5.8 14.5 2.1 14.5 11.6 0 6.6-5.9 11.3-15.6 11.3-6.1-.1-12.6-2.2-16.2-5.1zM393 149.5c-4.6 3.5-9.6 5.3-14.7 5.3-3.5 0-6.4-1-8.6-3.1-2.2-2.1-3.3-4.8-3.3-8.2 0-6.5 4.6-11.8 13.8-16.1-1.4-3.6-2.1-6.5-2.1-8.7 0-3.3 1.1-6 3.4-8.2 2.3-2.2 5.1-3.3 8.5-3.3 5 0 7.5 2.2 7.5 6.6 0 4.1-4 8.3-12 12.7.2.5.4.9.4 1l.9 1.8c.8 1.6 1.3 2.7 1.7 3.3 3.4-3.5 8.5-5.3 15.6-5.3h7c3.9 0 6.7-.5 8.4-1.4 1.7-1 2.5-2.6 2.5-4.9 0-1.3-.7-2.7-2-4l3.7-3.7c.9 1.2 1.4 2.8 1.4 4.7 0 4.2-1.8 7.6-5.4 10.1-3.6 2.5-8.4 3.8-14.4 3.8h-.6c-1.1 5.2-3.8 9.9-8 14.1 2.2 3.1 4.3 4.7 6.2 4.7 1.5 0 3.1-1.2 4.8-3.5.4.3.5.7.5 1.1 0 1.2-.9 2.5-2.8 4s-3.6 2.3-5 2.3c-2.1.2-4.5-1.5-7.4-5.1zm-.9-1.1l-.8-1.1c-3.6-5.1-6.8-10.9-9.7-17.3l-.6-1.3c-5.8 2.8-8.7 7-8.7 12.7 0 3.1 1 5.6 3 7.5 2 2 4.6 3 7.7 3 3.1 0 6.1-1.2 9.1-3.5zm-7.1-23c5.2-3.1 7.8-6.6 7.8-10.5 0-1.5-.5-2.9-1.6-4s-2.3-1.7-3.8-1.7c-3.4 0-5.1 2.1-5.1 6.3 0 2.4.9 5.7 2.7 9.9zm10.7 19.5c3-4.3 4.6-8.6 5-12.9h-1c-4.8 0-8.3.6-10.6 1.8.4.7.6 1.2.7 1.3l2.3 3.9c1.7 2.9 2.9 4.9 3.6 5.9zM444 153.5V108h24.3c10.6 0 16.4 7.1 16.4 15.6s-5.7 15.6-16.4 15.6h-10.5v14.3H444zm26.7-29.9c0-2.5-1.8-3.6-4.2-3.6h-8.7v7.2h8.7c2.4-.1 4.2-1.2 4.2-3.6zM506.6 153.5v-3.1c-1.8 2.3-5.9 4-10 4-4.9 0-11.3-3.3-11.3-10.9 0-8.2 6.4-10.5 11.3-10.5 4.3 0 8.2 1.4 10 3.6v-3.4c0-2.3-2.1-4.1-6.1-4.1-3.1 0-6.6 1.2-9.1 3.2l-4.2-7.6c4.4-3.5 10.6-5 15.6-5 8.2 0 16.2 2.9 16.2 13.9v19.9h-12.4zm0-9v-1.8c-.8-1.2-2.9-1.8-4.8-1.8-2 0-4.3.7-4.3 2.7s2.3 2.7 4.3 2.7c1.9 0 4-.6 4.8-1.8zM528.2 143.9v-12.8h-5.5v-10.6h5.5v-9h12.3v9h6.7v10.6h-6.7v9.2c0 1.7 1.1 3.1 2.7 3.1 1.1 0 2.2-.3 2.5-.6l2.2 9.3c-1.3 1.2-4.2 2.2-8.3 2.2-7.4 0-11.4-3.5-11.4-10.4zM574.2 153.5v-18.4c0-3.4-1.8-4.6-4.8-4.6-2.8 0-4.2 1.4-5.3 2.6v20.3h-12.3V108h12.3v16.3c1.9-2.2 5.5-4.6 11.3-4.6 7.6 0 11 4.5 11 10.2v23.5h-12.2zM590.5 149.3l4.9-8.3c2.6 2 8.2 4.2 11.9 4.2 2.5 0 3.3-.6 3.3-1.4 0-1-2-1.3-4.6-1.6-5.5-.8-14.1-1.9-14.1-11.1 0-5.9 5.2-11.3 14.7-11.3 5.5 0 10.4 1.7 14.3 4.2l-4.5 8c-2-1.7-5.9-3.4-9.7-3.4-1.8 0-3.1.6-3.1 1.4 0 .9 1 1 4.2 1.5 5.5.8 14.5 2.1 14.5 11.6 0 6.6-5.9 11.3-15.6 11.3-6.1-.1-12.7-2.2-16.2-5.1z"/></g><g id="logo-text"><path class="st2" d="M108.9 142.9L92.2 97.4h15.6l9.8 30.6 9.8-30.6H143l-16.8 45.5h-17.3zM138.9 126.4c0-9.6 7.3-17.3 18-17.3 9.7 0 17.1 7 17.1 18.6v2.5h-22.4c.7 2.1 3.1 4.2 7.1 4.2 1.8 0 5.9-.9 7.6-2.3l5.1 7.6c-3.3 2.8-9.1 4.1-14.1 4.1-10.3-.1-18.4-6.5-18.4-17.4zm18-7.9c-3.8 0-5 2.5-5.4 4h10.9c-.4-1.5-1.6-4-5.5-4zM176 126.4c0-10.4 8.1-17.3 18.5-17.3 7.5 0 12.1 3.4 14 6.2l-7.9 7.4c-1-1.6-2.9-2.8-5.5-2.8-3.5 0-6.5 2.2-6.5 6.4s3 6.5 6.5 6.5c2.6 0 4.5-1.4 5.5-2.9l7.9 7.5c-1.8 2.7-6.5 6.2-14 6.2-10.5.1-18.5-6.7-18.5-17.2zM215 133.4v-12.8h-5.5V110h5.5v-9h12.3v9h6.7v10.6h-6.7v9.2c0 1.7 1.1 3.1 2.7 3.1 1.1 0 2.2-.3 2.5-.6l2.2 9.3c-1.3 1.2-4.2 2.2-8.3 2.2-7.4-.1-11.4-3.5-11.4-10.4zM236.3 126.4c0-9.2 6.8-17.3 18.5-17.3s18.6 8.1 18.6 17.3c0 9.2-6.8 17.3-18.6 17.3-11.7 0-18.5-8.1-18.5-17.3zm24.4 0c0-3.6-2.1-6.4-5.9-6.4-3.8 0-5.9 2.8-5.9 6.4 0 3.7 2.1 6.5 5.9 6.5 3.8 0 5.9-2.8 5.9-6.5zM277.9 142.9v-33h12.3v3.6c2-2.4 6.3-4.6 10.1-4.6v11.7c-.6-.2-1.6-.3-2.8-.3-2.6 0-5.9.7-7.3 2.3v20.2h-12.3zM301.7 138.7l4.9-8.3c2.6 2 8.2 4.2 11.9 4.2 2.5 0 3.3-.6 3.3-1.4 0-1-2-1.3-4.6-1.6-5.5-.8-14.1-1.9-14.1-11.1 0-5.9 5.2-11.3 14.7-11.3 5.5 0 10.4 1.7 14.3 4.2l-4.5 8c-2-1.7-5.9-3.4-9.7-3.4-1.8 0-3.1.6-3.1 1.4 0 .9 1 1 4.2 1.5 5.5.8 14.5 2.1 14.5 11.6 0 6.6-5.9 11.3-15.6 11.3-6.1-.1-12.6-2.2-16.2-5.1zM382.5 139c-4.6 3.5-9.6 5.3-14.7 5.3-3.5 0-6.4-1-8.6-3.1-2.2-2.1-3.3-4.8-3.3-8.2 0-6.5 4.6-11.8 13.8-16.1-1.4-3.6-2.1-6.5-2.1-8.7 0-3.3 1.1-6 3.4-8.2 2.3-2.2 5.1-3.3 8.5-3.3 5 0 7.5 2.2 7.5 6.6 0 4.1-4 8.3-12 12.7.2.5.4.9.4 1l.9 1.8c.8 1.6 1.3 2.7 1.7 3.3 3.4-3.5 8.5-5.3 15.6-5.3h7c3.9 0 6.7-.5 8.4-1.4 1.7-1 2.5-2.6 2.5-4.9 0-1.3-.7-2.7-2-4l3.7-3.7c.9 1.2 1.4 2.8 1.4 4.7 0 4.2-1.8 7.6-5.4 10.1-3.6 2.5-8.4 3.8-14.4 3.8h-.6c-1.1 5.2-3.8 9.9-8 14.1 2.2 3.1 4.3 4.7 6.2 4.7 1.5 0 3.1-1.2 4.8-3.5.4.3.5.7.5 1.1 0 1.2-.9 2.5-2.8 4s-3.6 2.3-5 2.3c-2.1.2-4.6-1.6-7.4-5.1zm-.9-1.2l-.8-1.1c-3.6-5.1-6.8-10.9-9.7-17.3l-.6-1.3c-5.8 2.8-8.7 7-8.7 12.7 0 3.1 1 5.6 3 7.5 2 2 4.6 3 7.7 3 3 0 6-1.1 9.1-3.5zm-7.2-22.9c5.2-3.1 7.8-6.6 7.8-10.5 0-1.5-.5-2.9-1.6-4s-2.3-1.7-3.8-1.7c-3.4 0-5.1 2.1-5.1 6.3.1 2.4.9 5.6 2.7 9.9zm10.8 19.5c3-4.3 4.6-8.6 5-12.9h-1c-4.8 0-8.3.6-10.6 1.8.4.7.6 1.2.7 1.3l2.3 3.9c1.6 2.9 2.8 4.8 3.6 5.9zM433.4 142.9V97.4h24.3c10.6 0 16.4 7.1 16.4 15.6s-5.7 15.6-16.4 15.6h-10.5v14.3h-13.8zm26.7-29.9c0-2.5-1.8-3.6-4.2-3.6h-8.7v7.2h8.7c2.4 0 4.2-1.2 4.2-3.6zM496 142.9v-3.1c-1.8 2.3-5.9 4-10 4-4.9 0-11.3-3.3-11.3-10.9 0-8.2 6.4-10.5 11.3-10.5 4.3 0 8.2 1.4 10 3.6v-3.4c0-2.3-2.1-4.1-6.1-4.1-3.1 0-6.6 1.2-9.1 3.2l-4.2-7.6c4.4-3.5 10.6-5 15.6-5 8.2 0 16.2 2.9 16.2 13.9v19.9H496zm0-8.9v-1.8c-.8-1.2-2.9-1.8-4.8-1.8-2 0-4.3.7-4.3 2.7s2.3 2.7 4.3 2.7c1.9 0 4-.7 4.8-1.8zM517.7 133.4v-12.8h-5.5V110h5.5v-9H530v9h6.7v10.6H530v9.2c0 1.7 1.1 3.1 2.7 3.1 1.1 0 2.2-.3 2.5-.6l2.2 9.3c-1.3 1.2-4.2 2.2-8.3 2.2-7.4-.1-11.4-3.5-11.4-10.4zM563.6 142.9v-18.4c0-3.4-1.8-4.6-4.8-4.6-2.8 0-4.2 1.4-5.3 2.6v20.3h-12.3V97.4h12.3v16.3c1.9-2.2 5.5-4.6 11.3-4.6 7.6 0 11 4.5 11 10.2v23.5h-12.2zM579.9 138.7l4.9-8.3c2.6 2 8.2 4.2 11.9 4.2 2.5 0 3.3-.6 3.3-1.4 0-1-2-1.3-4.6-1.6-5.5-.8-14.1-1.9-14.1-11.1 0-5.9 5.2-11.3 14.7-11.3 5.5 0 10.4 1.7 14.3 4.2l-4.5 8c-2-1.7-5.9-3.4-9.7-3.4-1.8 0-3.1.6-3.1 1.4 0 .9 1 1 4.2 1.5 5.5.8 14.5 2.1 14.5 11.6 0 6.6-5.9 11.3-15.6 11.3-6.1-.1-12.7-2.2-16.2-5.1z"/></g><g id="logo-front-wires"><path class="st0" d="M3.6 125.6L184.4 3.9M184.4 3.9l90.2 242.9M274.6 246.8L364.8 3.9M364.8 3.9L455 246.8M455 246.8L545.3 3.9M545.3 3.9l180.4 121.5M725.7 125.4L455 246.8M455.1 247.1h-181M274.3 246.4L3.6 125.6"/></g><g id="logo-dots"><circle class="st3" cx="3.9" cy="125.4" r="3.9"/><circle class="st3" cx="725.7" cy="125.4" r="3.9"/><circle class="st3" cx="274.6" cy="246.8" r="3.9"/><circle class="st3" cx="455" cy="246.8" r="3.9"/><circle class="st3" cx="364.8" cy="3.9" r="3.9"/><circle class="st3" cx="545.3" cy="3.9" r="3.9"/><circle class="st3" cx="184.4" cy="3.9" r="3.9"/></g></svg>
