<svg width="22" height="22" viewBox="0 0 22 22" version="1.1" xmlns="http://www.w3.org/2000/svg" xmlns:xlink="http://www.w3.org/1999/xlink">
<title>instagram</title>
<desc>Created using Figma</desc>
<g id="Canvas" transform="translate(4190 -3865)">
<g id="instagram">
<use xlink:href="#path0_fill" transform="translate(-4190 3865)" fill="#FFFFFF"/>
</g>
</g>
<defs>
<path id="path0_fill" d="M 11.001 0C 8.01358 0 7.63866 0.0130627 6.46532 0.0664585C 5.29426 0.120084 4.49492 0.305479 3.7955 0.5775C 3.07201 0.858458 2.4583 1.23429 1.84687 1.84594C 1.23499 2.45735 0.859155 3.07106 0.577277 3.79431C 0.304565 4.49396 0.118939 5.29352 0.0662298 6.4641C 0.01375 7.63744 0 8.01258 0 11C 0 13.9874 0.013292 14.3612 0.0664592 15.5345C 0.120314 16.7056 0.305712 17.5049 0.577506 18.2043C 0.858697 18.9278 1.23453 19.5415 1.84619 20.1529C 2.45738 20.7648 3.07109 21.1415 3.79412 21.4225C 4.49401 21.6945 5.29358 21.8799 6.4644 21.9335C 7.63775 21.9869 8.01244 22 10.9997 22C 13.9873 22 14.3611 21.9869 15.5345 21.9335C 16.7055 21.8799 17.5058 21.6945 18.2056 21.4225C 18.9289 21.1415 19.5417 20.7648 20.1529 20.1529C 20.7648 19.5415 21.1406 18.9278 21.4225 18.2045C 21.6929 17.5049 21.8785 16.7053 21.9335 15.5347C 21.9862 14.3614 22 13.9874 22 11C 22 8.01258 21.9862 7.63767 21.9335 6.46433C 21.8785 5.29329 21.6929 4.49396 21.4225 3.79454C 21.1406 3.07106 20.7648 2.45735 20.1529 1.84594C 19.541 1.23406 18.9291 0.858229 18.205 0.5775C 17.5037 0.305479 16.7039 0.120084 15.5328 0.0664585C 14.3595 0.0130627 13.986 0 10.9976 0L 11.001 0ZM 10.0142 1.98229C 10.3071 1.98183 10.6339 1.98229 11.001 1.98229C 13.9381 1.98229 14.2862 1.99283 15.446 2.04554C 16.5185 2.09458 17.1006 2.27379 17.4883 2.42435C 18.0017 2.62373 18.3677 2.86206 18.7524 3.24706C 19.1374 3.63206 19.3758 3.99873 19.5756 4.51206C 19.7262 4.89935 19.9056 5.48144 19.9544 6.55394C 20.0071 7.71352 20.0186 8.06185 20.0186 10.9975C 20.0186 13.9331 20.0071 14.2814 19.9544 15.441C 19.9054 16.5135 19.7262 17.0956 19.5756 17.4829C 19.3762 17.9962 19.1374 18.3617 18.7524 18.7465C 18.3674 19.1315 18.0019 19.3699 17.4883 19.5692C 17.1011 19.7205 16.5185 19.8992 15.446 19.9483C 14.2864 20.001 13.9381 20.0124 11.001 20.0124C 8.06377 20.0124 7.71566 20.001 6.55607 19.9483C 5.48356 19.8988 4.90147 19.7196 4.51348 19.569C 4.00015 19.3696 3.63348 19.1313 3.24847 18.7463C 2.86347 18.3613 2.62513 17.9955 2.4253 17.482C 2.27473 17.0947 2.09529 16.5126 2.04648 15.4401C 1.99377 14.2805 1.98323 13.9322 1.98323 10.9947C 1.98323 8.05727 1.99377 7.71077 2.04648 6.55119C 2.09552 5.47869 2.27473 4.8966 2.4253 4.50885C 2.62467 3.99552 2.86347 3.62885 3.24847 3.24385C 3.63348 2.85885 4.00015 2.62052 4.51348 2.42069C 4.90124 2.26944 5.48356 2.09069 6.55607 2.04142C 7.57083 1.99558 7.96408 1.98183 10.0142 1.97954L 10.0142 1.98229ZM 16.8728 3.80875C 16.144 3.80875 15.5528 4.39931 15.5528 5.12829C 15.5528 5.85704 16.144 6.44829 16.8728 6.44829C 17.6016 6.44829 18.1928 5.85704 18.1928 5.12829C 18.1928 4.39954 17.6016 3.80829 16.8728 3.80829L 16.8728 3.80875ZM 11.001 5.35104C 7.88135 5.35104 5.35201 7.88035 5.35201 11C 5.35201 14.1196 7.88135 16.6478 11.001 16.6478C 14.1207 16.6478 16.6491 14.1196 16.6491 11C 16.6491 7.88035 14.1205 5.35104 11.0008 5.35104L 11.001 5.35104ZM 11.001 7.33333C 13.026 7.33333 14.6677 8.97485 14.6677 11C 14.6677 13.0249 13.026 14.6667 11.001 14.6667C 8.97586 14.6667 7.33433 13.0249 7.33433 11C 7.33433 8.97485 8.97586 7.33333 11.001 7.33333Z"/>
</defs>
</svg>
