<?xml version="1.0" encoding="utf-8"?>
<!-- Generator: Adobe Illustrator 21.1.0, SVG Export Plug-In . SVG Version: 6.00 Build 0)  -->
<svg version="1.1" id="Rectangle_Rounded_3.5_X_2.5_1_"
	 xmlns="http://www.w3.org/2000/svg" xmlns:xlink="http://www.w3.org/1999/xlink" x="0px" y="0px" viewBox="0 0 99.2 70.9"
	 style="enable-background:new 0 0 99.2 70.9;" xml:space="preserve">
<style type="text/css">
	.st0{fill:#73D9E5;}
	.st1{font-family:'Georgia';}
	.st2{font-size:4.8189px;}
	.st3{fill-opacity:0.1;}
	.st4{fill:#EDC951;}
</style>
<path id="Pad" class="st0" d="M0,11.3C0,5.1,5.1,0,11.3,0h76.5c6.3,0,11.3,5.1,11.3,11.3v48.2c0,6.3-5.1,11.3-11.3,11.3H11.3
	C5.1,70.9,0,65.8,0,59.5V11.3z"/>
<text transform="matrix(1 0 0 1 4.2518 61.9164)" class="st1 st2">ММММММММММММММММММММ</text>
<text transform="matrix(1 0 0 1 4.2518 51.9965)" class="st1 st2">ММММММММММММММММММММ</text>
<rect id="Frame_Icon" x="37.7" y="11.9" class="st3" width="23.8" height="23.8"/>
<g id="Icon">
	<path id="path_1_46" class="st4" d="M61.5,24.9c0,5.8-4.8,10.6-10.8,10.6c-6,0-10.8-4.7-10.8-10.6c0-5.8,4.8-10.6,10.8-10.6
		C56.7,14.3,61.5,19.1,61.5,24.9z"/>
	<path id="path_2_46" d="M50.5,29.5h-2c-2.5,0-4.5-1.9-4.5-4.3c0-0.3,0.2-0.5,0.5-0.5c0.3,0,0.5,0.2,0.5,0.5c0,1.8,1.5,3.2,3.4,3.2
		h2c1.9,0,3.4-1.4,3.4-3.2c0-0.3,0.2-0.5,0.5-0.5c0.3,0,0.5,0.2,0.5,0.5C54.9,27.6,53,29.5,50.5,29.5z"/>
	<path id="path_3_46" d="M46.9,20.6c-0.1,0-0.3-0.1-0.4-0.2c-0.5-0.5-1.4-0.5-1.9,0c-0.2,0.2-0.6,0.2-0.8,0c-0.2-0.2-0.2-0.5,0-0.8
		c0.9-0.9,2.5-0.9,3.4,0c0.2,0.2,0.2,0.5,0,0.8C47.2,20.5,47,20.6,46.9,20.6z"/>
	<path id="path_4_46" d="M54.3,20.6c-0.1,0-0.3-0.1-0.4-0.2c-0.5-0.5-1.4-0.5-1.9,0c-0.2,0.2-0.6,0.2-0.8,0c-0.2-0.2-0.2-0.5,0-0.8
		c0.9-0.9,2.5-0.9,3.4,0c0.2,0.2,0.2,0.5,0,0.8C54.6,20.5,54.5,20.6,54.3,20.6z"/>
	<path id="path_5_46" d="M49,34.6c-6.3,0-11.3-5-11.3-11.1c0-6.1,5.1-11.1,11.3-11.1c6.3,0,11.3,5,11.3,11.1
		C60.4,29.7,55.3,34.6,49,34.6z M49,13.5c-5.6,0-10.2,4.5-10.2,10c0,5.5,4.6,10,10.2,10c5.6,0,10.2-4.5,10.2-10
		C59.3,18,54.7,13.5,49,13.5z"/>
</g>
</svg>
