<svg version="1.1" id="Rectangle_4.5_X_1.5_1_" xmlns="http://www.w3.org/2000/svg" xmlns:xlink="http://www.w3.org/1999/xlink"
	 x="0px" y="0px" viewBox="0 0 127.6 28.3" style="enable-background:new 0 0 127.6 28.3;" xml:space="preserve">
<style type="text/css">
	.st0{fill:#73D9E5;}
	.st1{font-family:'Georgia';}
	.st2{font-size:4.8189px;}
	.st3{fill-opacity:0.1;}
	.st4{fill:#EDC951;}
</style>
<rect id="Pad" class="st0" width="127.6" height="28.3"/>
<text transform="matrix(1 0 0 1 28.3474 20.8155)" class="st1 st2">ММММММММММММММММММММ</text>
<text transform="matrix(1 0 0 1 28.3474 10.8946)" class="st1 st2">ММММММММММММММММММММ</text>
<rect id="Rectangle" x="5.1" y="5.1" class="st3" width="18.1" height="18.1"/>
<g id="Icon">
	<path id="path_1_46" class="st4" d="M23.2,14.9c0,4.5-3.7,8.1-8.2,8.1c-4.5,0-8.2-3.6-8.2-8.1c0-4.5,3.7-8.1,8.2-8.1
		C19.6,6.8,23.2,10.4,23.2,14.9z"/>
	<path id="path_2_46" d="M14.8,18.4h-1.5c-1.9,0-3.4-1.4-3.4-3.3c0-0.2,0.2-0.4,0.4-0.4c0.2,0,0.4,0.2,0.4,0.4
		c0,1.4,1.1,2.5,2.6,2.5h1.5c1.4,0,2.6-1.1,2.6-2.4c0-0.2,0.2-0.4,0.4-0.4c0.2,0,0.4,0.2,0.4,0.4C18.2,17,16.7,18.4,14.8,18.4z"/>
	<path id="path_3_46" d="M12.1,11.6c-0.1,0-0.2,0-0.3-0.1c-0.4-0.4-1-0.4-1.4,0c-0.2,0.2-0.4,0.2-0.6,0c-0.2-0.2-0.2-0.4,0-0.6
		c0.7-0.7,1.9-0.7,2.6,0c0.2,0.2,0.2,0.4,0,0.6C12.3,11.6,12.2,11.6,12.1,11.6z"/>
	<path id="path_4_46" d="M17.8,11.6c-0.1,0-0.2,0-0.3-0.1c-0.4-0.4-1-0.4-1.4,0c-0.2,0.2-0.4,0.2-0.6,0c-0.2-0.2-0.2-0.4,0-0.6
		c0.7-0.7,1.9-0.7,2.6,0c0.2,0.2,0.2,0.4,0,0.6C18,11.6,17.9,11.6,17.8,11.6z"/>
	<path id="path_5_46" d="M13.7,22.4c-4.8,0-8.6-3.8-8.6-8.5c0-4.7,3.9-8.5,8.6-8.5c4.8,0,8.6,3.8,8.6,8.5
		C22.4,18.6,18.5,22.4,13.7,22.4z M13.7,6.2c-4.3,0-7.8,3.4-7.8,7.7c0,4.2,3.5,7.7,7.8,7.7c4.3,0,7.8-3.4,7.8-7.7
		C21.5,9.6,18,6.2,13.7,6.2z"/>
</g>
</svg>
