<svg version="1.1" id="Rectangle_5_X_1.5_1_" xmlns="http://www.w3.org/2000/svg" xmlns:xlink="http://www.w3.org/1999/xlink"
	 x="0px" y="0px" viewBox="0 0 141.7 42.5" style="enable-background:new 0 0 141.7 42.5;" xml:space="preserve">
<style type="text/css">
	.st0{fill:#73D9E5;}
	.st1{font-family:'Georgia';}
	.st2{font-size:4.8189px;}
	.st3{fill-opacity:0.1;}
	.st4{fill:#EDC951;}
</style>
<rect id="Pad" class="st0" width="141.7" height="42.5"/>
<text transform="matrix(1 0 0 1 39.9682 27.9014)" class="st1 st2">ММММММММММММММММММММ</text>
<text transform="matrix(1 0 0 1 39.9682 17.9795)" class="st1 st2">ММММММММММММММММММММ</text>
<rect id="Frame_Icon" x="11.3" y="11.3" class="st3" width="19.8" height="19.8"/>
<g id="Icon">
	<path id="path_1_46" class="st4" d="M31.2,22c0,4.9-4,8.9-9,8.9c-5,0-9-4-9-8.9c0-4.9,4-8.9,9-8.9C27.2,13.2,31.2,17.1,31.2,22z"/>
	<path id="path_2_46" d="M22,25.9h-1.6c-2.1,0-3.7-1.6-3.7-3.6c0-0.2,0.2-0.4,0.5-0.4c0.3,0,0.5,0.2,0.5,0.4c0,1.5,1.2,2.7,2.8,2.7
		H22c1.6,0,2.8-1.2,2.8-2.7c0-0.2,0.2-0.4,0.5-0.4c0.3,0,0.5,0.2,0.5,0.4C25.7,24.3,24.1,25.9,22,25.9z"/>
	<path id="path_3_46" d="M19,18.4c-0.1,0-0.2,0-0.3-0.1c-0.4-0.4-1.1-0.4-1.6,0c-0.2,0.2-0.5,0.2-0.6,0c-0.2-0.2-0.2-0.5,0-0.6
		c0.8-0.8,2.1-0.7,2.8,0c0.2,0.2,0.2,0.5,0,0.6C19.2,18.4,19.1,18.4,19,18.4z"/>
	<path id="path_4_46" d="M25.2,18.4c-0.1,0-0.2,0-0.3-0.1c-0.4-0.4-1.1-0.4-1.6,0c-0.2,0.2-0.5,0.2-0.6,0c-0.2-0.2-0.2-0.5,0-0.6
		c0.8-0.8,2.1-0.7,2.8,0c0.2,0.2,0.2,0.5,0,0.6C25.4,18.4,25.3,18.4,25.2,18.4z"/>
	<path id="path_5_46" d="M20.8,30.2c-5.2,0-9.4-4.2-9.4-9.3c0-5.1,4.2-9.3,9.4-9.3c5.2,0,9.4,4.2,9.4,9.3
		C30.2,26.1,26,30.2,20.8,30.2z M20.8,12.5c-4.7,0-8.5,3.8-8.5,8.4c0,4.6,3.8,8.4,8.5,8.4c4.7,0,8.5-3.8,8.5-8.4
		C29.3,16.3,25.5,12.5,20.8,12.5z"/>
</g>
</svg>
