<svg version="1.1" id="Rectangle_Rounded_5_X_2.5_1_"
	 xmlns="http://www.w3.org/2000/svg" xmlns:xlink="http://www.w3.org/1999/xlink" x="0px" y="0px" viewBox="0 0 141.7 70.9"
	 style="enable-background:new 0 0 141.7 70.9;" xml:space="preserve">
<style type="text/css">
	.st0{fill:#73D9E5;}
	.st1{font-family:'Georgia';}
	.st2{font-size:4.8169px;}
	.st3{fill-opacity:0.1;}
	.st4{fill:#EDC951;}
</style>
<path id="Pad" class="st0" d="M0,11.3C0,5.1,5.1,0,11.3,0h119.1c6.3,0,11.3,5.1,11.3,11.3v48.2c0,6.3-5.1,11.3-11.3,11.3H11.3
	C5.1,70.9,0,65.8,0,59.5V11.3z"/>
<text transform="matrix(1 0 0 1 45.3539 42.643)" class="st1 st2">ММММММММММММММММММММ</text>
<text transform="matrix(1 0 0 1 45.3539 31.5873)" class="st1 st2">ММММММММММММММММММММ</text>
<rect id="Frame_Icon" x="11.9" y="23.5" class="st3" width="23.8" height="23.8"/>
<g id="Icon">
	<path id="path_1_46" class="st4" d="M35.7,36.5c0,5.8-4.8,10.6-10.8,10.6c-6,0-10.8-4.7-10.8-10.6c0-5.8,4.8-10.6,10.8-10.6
		C30.9,25.9,35.7,30.7,35.7,36.5z"/>
	<path id="path_2_46" d="M24.7,41.1h-2c-2.5,0-4.5-1.9-4.5-4.3c0-0.3,0.2-0.5,0.5-0.5c0.3,0,0.5,0.2,0.5,0.5c0,1.8,1.5,3.2,3.4,3.2
		h2c1.9,0,3.4-1.4,3.4-3.2c0-0.3,0.2-0.5,0.5-0.5c0.3,0,0.5,0.2,0.5,0.5C29.1,39.2,27.2,41.1,24.7,41.1z"/>
	<path id="path_3_46" d="M21.1,32.2c-0.1,0-0.3-0.1-0.4-0.2c-0.5-0.5-1.4-0.5-1.9,0c-0.2,0.2-0.6,0.2-0.8,0c-0.2-0.2-0.2-0.5,0-0.8
		c0.9-0.9,2.5-0.9,3.4,0c0.2,0.2,0.2,0.5,0,0.8C21.4,32.2,21.3,32.2,21.1,32.2z"/>
	<path id="path_4_46" d="M28.5,32.2c-0.1,0-0.3-0.1-0.4-0.2c-0.5-0.5-1.4-0.5-1.9,0c-0.2,0.2-0.6,0.2-0.8,0c-0.2-0.2-0.2-0.5,0-0.8
		c0.9-0.9,2.5-0.9,3.4,0c0.2,0.2,0.2,0.5,0,0.8C28.8,32.2,28.7,32.2,28.5,32.2z"/>
	<path id="path_5_46" d="M23.2,46.3c-6.3,0-11.3-5-11.3-11.1c0-6.1,5.1-11.1,11.3-11.1c6.3,0,11.3,5,11.3,11.1
		C34.6,41.3,29.5,46.3,23.2,46.3z M23.2,25.2c-5.6,0-10.2,4.5-10.2,10c0,5.5,4.6,10,10.2,10c5.6,0,10.2-4.5,10.2-10
		C33.5,29.7,28.9,25.2,23.2,25.2z"/>
</g>
</svg>
