<svg class="svgStickerOne svgSticker" version="1.1" id="Circle_3_1_" xmlns="http://www.w3.org/2000/svg" xmlns:xlink="http://www.w3.org/1999/xlink" x="0px"
	 y="0px" viewBox="0 0 85 85" style="enable-background:new 0 0 85 85;" xml:space="preserve" width='353px' height='353px'>
<style type="text/css">
	.st0{fill:#73D9E5;}
	.st1{fill:none;}
	.st2{fill-opacity:0.1;}
	.st3{fill:#EDC951;}
</style>
<circle id="Pad" class="st0" cx="42.5" cy="42.5" r="42.5"/>
<path id="SVGID_x5F_1_x5F_" class="st1" d="M74.9,45.1H10.1c1.1,17,15.2,30.3,32.4,30.3S73.8,62.1,74.9,45.1z"/>
<text text-anchor="middle"><textPath  xlink:href="#SVGID_x5F_1_x5F_" startOffset="113">
<tspan class="textSvgTwo" style="font-family:'Georgia'; font-size:4.7061px;">ММММММММММММММММММММ</tspan></textPath>
</text>
<path id="SVGID_x5F_2_x5F_" class="st1" d="M13.1,40.5C14.1,25.1,26.9,13,42.5,13s28.4,12.2,29.4,27.5H13.1z"/>
<text text-anchor="middle"><textPath  xlink:href="#SVGID_x5F_2_x5F_" startOffset="45">
<tspan class="textSvgOne" style="font-family:'Georgia'; font-size:4.8189px;">ММММММММММММММММММММ</tspan></textPath>
</text>
<rect id="Frame_Icon" x="27.1" y="26.6" class="st2" width="31.7" height="31.7"/>
<g id="Icon">
	<path id="path_1_46" class="st3" d="M58.8,43.9c0,7.8-6.4,14.2-14.4,14.2c-7.9,0-14.4-6.4-14.4-14.2s6.4-14.2,14.4-14.2
		S58.8,36.1,58.8,43.9z"/>
	<path id="path_2_46" d="M44.1,50.1h-2.6c-3.3,0-6-2.5-6-5.8c0-0.4,0.3-0.7,0.7-0.7s0.7,0.3,0.7,0.7c0,2.4,2,4.4,4.5,4.4H44
		c2.5,0,4.5-1.9,4.5-4.3c0-0.4,0.3-0.7,0.7-0.7s0.7,0.3,0.7,0.7C50.1,47.6,47.4,50.1,44.1,50.1z"/>
	<path id="path_3_46" d="M39.4,38.1c-0.2,0-0.4-0.1-0.5-0.2c-0.7-0.7-1.8-0.7-2.5-0.1c-0.3,0.3-0.7,0.3-1,0s-0.3-0.7,0-1
		c1.2-1.2,3.3-1.2,4.6,0.1c0.3,0.3,0.3,0.7,0,1C39.7,38.1,39.5,38.1,39.4,38.1z"/>
	<path id="path_4_46" d="M49.3,38.1c-0.2,0-0.4-0.1-0.5-0.2c-0.7-0.7-1.8-0.7-2.5-0.1c-0.3,0.3-0.7,0.3-1,0s-0.3-0.7,0-1
		c1.2-1.2,3.3-1.2,4.6,0.1c0.3,0.3,0.3,0.7,0,1C49.6,38.1,49.4,38.1,49.3,38.1z"/>
	<path id="path_5_46" d="M42.2,57.1c-8.3,0-15.1-6.7-15.1-14.9s6.8-14.9,15.1-14.9S57.3,34,57.3,42.2S50.5,57.1,42.2,57.1z
		 M42.2,28.6c-7.5,0-13.7,6-13.7,13.5c0,7.4,6.1,13.5,13.7,13.5c7.5,0,13.7-6,13.7-13.5C55.9,34.7,49.7,28.6,42.2,28.6z"/>
</g>
</svg>
