<svg width="328" height="328" viewBox="0 0 328 328" version="1.1" xmlns="http://www.w3.org/2000/svg" xmlns:xlink="http://www.w3.org/1999/xlink">
<g id="Canvas" fill="none">
<g id="&#208;&#147;&#209;&#128;&#208;&#176;&#208;&#189;&#208;&#184;&#209;&#134;&#209;&#139;">
<g id="Group 2">
<path id="Vector" fill-rule="evenodd" clip-rule="evenodd" d="M 56.8237 94.7685L 56.8237 100.63L 124.424 100.63C 126.384 100.63 127.364 101.607 127.364 102.584L 126.384 124.078C 126.384 126.032 124.424 127.009 122.465 127.009L 55.844 125.055L 55.844 132.871L 27.4321 132.871L 27.4321 94.7685C 28.4119 94.7685 30.3713 94.7685 31.351 94.7685L 56.8237 94.7685ZM 55.844 152.411L 55.844 184.652L 89.1545 182.698C 91.1139 182.698 92.0936 183.675 92.0936 185.629L 93.0734 192.468L 71.5195 192.468L 71.5195 198.33L 8.81747 198.33L 7.83776 186.606C 7.83776 184.652 8.81748 183.675 10.7769 183.675L 27.4321 184.652L 27.4321 152.411L 55.844 152.411ZM 93.0734 199.307L 94.0531 208.1C 94.0531 209.077 94.0531 210.054 93.0734 211.031C 93.0734 211.031 92.0936 211.031 91.1139 211.031L 12.7364 212.985C 11.7566 212.985 10.7769 212.985 10.7769 212.008C 9.79719 212.008 9.79719 211.031 9.79719 210.054L 8.81747 204.192L 94.0531 204.192L 93.0734 199.307ZM 11.7566 198.33L 74.4587 198.33L 74.4587 199.307L 96.0125 199.307L 96.0125 204.192L 11.7566 204.192L 11.7566 198.33ZM 93.0734 199.307L 93.0734 192.468L 113.647 192.468L 114.627 199.307L 93.0734 199.307ZM 64.6615 132.871L 64.6615 152.411L 36.2496 152.411L 36.2496 132.871L 64.6615 132.871ZM 3.91888 40.0568C 2.93916 40.0568 1.95944 39.0798 1.95944 38.1028L 3.91888 13.6779C 3.91888 11.7239 4.8986 10.7469 6.85804 10.7469L 102.871 12.7009L 102.871 5.86197C 102.871 3.90798 103.85 2.93098 105.81 1.95399L 126.384 0C 128.343 0 129.323 0.976994 129.323 2.93098L 136.181 58.6197C 136.181 59.5967 135.201 60.5737 133.242 60.5737L 109.729 62.5277C 105.81 62.5277 103.85 61.5507 103.85 57.6427L 103.85 40.0568L 51.9251 38.1028L 50.9454 94.7685L 25.4727 94.7685C 24.493 94.7685 23.5133 94.7685 21.5538 94.7685L 21.5538 72.2976L 43.1077 72.2976L 43.1077 65.4586L 21.5538 65.4586L 22.5335 39.0798L 3.91888 40.0568ZM 0 72.2976L 0 65.4586L 21.5538 65.4586L 21.5538 72.2976L 0 72.2976Z" transform="translate(96.0972 57.1777)" fill="white"/>
<g id="Group">
<path id="Vector_2" fill-rule="evenodd" clip-rule="evenodd" d="M 56.8237 94.7685L 56.8237 100.63L 124.424 100.63C 126.384 100.63 126.384 101.607 126.384 102.584L 126.384 124.078C 125.404 126.032 124.424 127.009 122.465 127.009L 55.844 125.055L 55.844 132.871L 27.4321 132.871L 27.4321 38.1028L 27.4321 94.7685C 28.4119 94.7685 30.3713 94.7685 31.351 94.7685L 56.8237 94.7685ZM 55.844 152.411L 54.8643 184.652L 89.1545 182.698C 91.1139 182.698 92.0936 183.675 92.0936 185.629L 93.0734 192.468L 71.5195 192.468L 71.5195 198.33L 8.81747 198.33L 7.83776 186.606C 7.83776 184.652 8.81748 183.675 9.79719 183.675L 26.4524 184.652L 27.4321 152.411L 55.844 152.411ZM 93.0734 199.307L 94.0531 208.1C 94.0531 209.077 93.0734 210.054 93.0734 211.031C 93.0734 211.031 92.0936 211.031 91.1139 211.031L 12.7364 212.985C 11.7566 212.985 10.7769 212.985 9.79719 212.008C 9.79719 212.008 9.79719 211.031 8.81747 210.054L 8.81747 204.192L 93.0734 204.192L 93.0734 199.307ZM 10.7769 198.33L 74.4587 198.33L 74.4587 199.307L 96.0125 199.307L 96.0125 204.192L 11.7566 204.192L 10.7769 198.33ZM 93.0734 199.307L 93.0734 192.468L 113.647 192.468L 113.963 199.307L 93.0734 199.307ZM 64.6615 132.871L 64.6615 152.411L 35.2699 152.411L 35.2699 132.871L 64.6615 132.871ZM 3.91888 40.0568C 2.93916 40.0568 1.95944 39.0798 1.95944 38.1028L 3.91888 13.6779C 3.91888 11.7239 4.8986 10.7469 5.87832 10.7469L 102.871 12.7009L 102.871 5.86197C 102.871 3.90798 103.85 2.93098 105.81 1.95399L 126.384 0C 127.364 0 128.343 0.976994 129.323 2.93098L 136.181 58.6197C 136.181 59.5967 135.201 60.5737 133.242 60.5737L 108.749 62.5277C 105.81 62.5277 103.85 61.5507 103.85 57.6427L 102.871 40.0568L 51.9251 38.1028L 50.9454 94.7685L 25.4727 94.7685C 24.493 94.7685 22.5335 94.7685 21.5538 94.7685L 21.5538 63.7099L 43.1077 63.7099L 43.1077 56.8709L 21.5538 56.8709L 21.5538 39.0798L 3.91888 40.0568ZM 0 63.7099L 0 56.8709L 21.5538 56.8709L 21.5538 63.7099L 0 63.7099Z" transform="translate(78.04 65.6289)" fill="#ED3237"/>
</g>
<g id="Group_2">
<path id="Vector_3" fill-rule="evenodd" clip-rule="evenodd" d="M 55.844 94.7685L 55.844 100.63L 124.424 100.63C 125.404 100.63 126.384 101.607 126.384 102.584L 125.404 124.078C 125.404 126.032 124.424 127.009 121.485 127.009L 55.844 125.055L 55.844 132.871L 26.4524 132.871L 27.4321 38.1028L 27.4321 94.7685C 28.4119 94.7685 29.3916 94.7685 31.351 94.7685L 55.844 94.7685ZM 54.8643 152.411L 54.8643 184.652L 89.1545 182.698C 91.1139 182.698 92.0936 183.675 92.0936 185.629L 92.0936 192.468L 71.5195 192.468L 71.5195 198.33L 7.83776 198.33L 7.83776 186.606C 7.83776 184.652 7.83776 183.675 9.7972 183.675L 26.4524 184.652L 26.4524 152.411L 54.8643 152.411ZM 93.0734 199.307L 93.0734 208.1C 93.0734 209.077 93.0734 210.054 93.0734 211.031C 92.0936 211.031 92.0936 211.031 91.1139 211.031L 11.7566 212.985C 10.7769 212.985 9.7972 212.985 9.7972 212.008C 8.81748 212.008 8.81747 211.031 8.81747 210.054L 8.81747 204.192L 93.0734 204.192L 93.0734 199.307ZM 10.7769 198.33L 73.479 198.33L 73.479 199.307L 95.0328 199.307L 96.0125 204.192L 10.7769 204.192L 10.7769 198.33ZM 93.0734 199.307L 92.0936 192.468L 113.647 192.468L 113.647 199.307L 93.0734 199.307ZM 63.6818 132.871L 63.6818 152.411L 35.2699 152.411L 35.2699 132.871L 63.6818 132.871ZM 3.91888 40.0568C 2.93916 40.0568 1.95944 39.0798 1.95944 38.1028L 3.91888 13.6779C 3.91888 11.7239 3.91888 10.7469 5.87832 10.7469L 102.871 12.7009L 101.891 5.86197C 101.891 3.90798 102.871 1.95399 104.83 1.95399L 120.505 0L 126.384 0C 127.364 0 128.343 0.976994 128.343 2.93098L 136.181 58.6197C 136.181 59.5967 134.222 60.5737 132.262 60.5737L 108.749 62.5277C 105.81 63.5046 102.871 61.5507 102.871 57.6427L 102.871 40.0568L 50.9454 38.1028L 49.9657 94.7685L 25.4727 94.7685C 23.5133 94.7685 22.5335 94.7685 21.5538 94.7685L 21.5538 80.2247L 43.1077 80.2247L 43.1077 73.3858L 21.5538 73.3858L 21.5538 39.0798L 3.91888 40.0568ZM 0 80.2247L 0 73.3858L 21.5538 73.3858L 21.5538 80.2247L 0 80.2247Z" transform="translate(113.779 49.3867)" fill="#26BFD1"/>
</g>
<g id="Group_3">
<path id="Vector_4" fill-rule="evenodd" clip-rule="evenodd" d="M 56.8237 94.7685L 56.8237 100.63L 124.424 100.63C 126.384 100.63 127.364 101.607 127.364 102.584L 126.384 124.078C 126.384 126.032 124.424 127.009 122.465 127.009L 55.844 125.055L 55.844 132.871L 27.4321 132.871L 27.4321 94.7685C 28.4119 94.7685 30.3713 94.7685 31.351 94.7685L 56.8237 94.7685ZM 55.844 152.411L 55.844 184.652L 89.1545 182.698C 91.1139 182.698 92.0936 183.675 92.0936 185.629L 93.0734 192.468L 71.5195 192.468L 71.5195 198.33L 8.81747 198.33L 7.83776 186.606C 7.83776 184.652 8.81748 183.675 10.7769 183.675L 27.4321 184.652L 27.4321 152.411L 55.844 152.411ZM 93.0734 199.307L 94.0531 208.1C 94.0531 209.077 94.0531 210.054 93.0734 211.031C 93.0734 211.031 92.0936 211.031 91.1139 211.031L 12.7364 212.985C 11.7566 212.985 10.7769 212.985 10.7769 212.008C 9.79719 212.008 9.79719 211.031 9.79719 210.054L 8.81747 204.192L 94.0531 204.192L 93.0734 199.307ZM 11.7566 198.33L 74.4587 198.33L 74.4587 199.307L 96.0125 199.307L 96.0125 204.192L 11.7566 204.192L 11.7566 198.33ZM 93.0734 199.307L 93.0734 192.468L 113.647 192.468L 114.627 199.307L 93.0734 199.307ZM 64.6615 132.871L 64.6615 152.411L 36.2496 152.411L 36.2496 132.871L 64.6615 132.871ZM 3.91888 40.0568C 2.93916 40.0568 1.95944 39.0798 1.95944 38.1028L 3.91888 13.6779C 3.91888 11.7239 4.8986 10.7469 6.85804 10.7469L 102.871 12.7009L 102.871 5.86197C 102.871 3.90798 103.85 2.93098 105.81 1.95399L 126.384 0C 128.343 0 129.323 0.976994 129.323 2.93098L 136.181 58.6197C 136.181 59.5967 135.201 60.5737 133.242 60.5737L 109.729 62.5277C 105.81 62.5277 103.85 61.5507 103.85 57.6427L 103.85 40.0568L 51.9251 38.1028L 50.9454 94.7685L 25.4727 94.7685C 24.493 94.7685 23.5133 94.7685 21.5538 94.7685L 21.5538 72.2976L 43.1077 72.2976L 43.1077 65.4586L 21.5538 65.4586L 22.5335 39.0798L 3.91888 40.0568ZM 0 72.2976L 0 65.4586L 21.5538 65.4586L 21.5538 72.2976L 0 72.2976Z" transform="translate(96.0972 57.1777)" fill="#FEFEFE"/>
</g>
</g>
</g>
</g>
</svg>
