<svg width="340" height="136" xmlns="http://www.w3.org/2000/svg" xmlns:xlink="http://www.w3.org/1999/xlink"><use xlink:href="#path0_fillItem0" transform="translate(.2 .062)" fill="#FFF"/><defs><path id="path0_fillItem0" fill-rule="evenodd" d="M130.93 49.49c1.059-.306 1.672-1.414 1.337-2.464a67.528 67.528 0 0 0-23.34-33.104c-1.398-1.069-3.293.162-2.978 1.895l5.202 28.59c.157.864.864 1.51 1.719 1.707A13.46 13.46 0 0 1 120.5 51c.554.717 1.473 1.091 2.342.839l8.088-2.347zM14.297 29.089c-.89-.708-2.192-.535-2.834.404A67.092 67.092 0 0 0 .008 61.412c-.13 1.467 1.358 2.498 2.711 1.918l21.001-9.008c.877-.377 1.355-1.319 1.23-2.264a21.48 21.48 0 0 1 1.525-11.233c.374-.88.162-1.918-.586-2.513l-11.592-9.224zM66.87 2.885c.717-1.332-.248-2.941-1.76-2.884a90.812 90.812 0 0 0-3.261.184 67.74 67.74 0 0 0-42.156 19.489c-.828.825-.73 2.18.182 2.91l11.378 9.093c.74.592 1.79.574 2.564.025a21.766 21.766 0 0 1 17.566-3.437c.937.22 1.928-.174 2.383-1.02l13.104-24.36zM95.642 6.92A1.968 1.968 0 0 0 94.49 5.46 67.726 67.726 0 0 0 79.144.911a1.963 1.963 0 0 0-2.057 1.017L61.217 31.452c-.446.83-.244 1.854.428 2.517a21.465 21.465 0 0 1 4.203 5.836 21.381 21.381 0 0 1 2.032 6.865c.114.946.812 1.74 1.754 1.886l26.796 4.166c.85.132 1.676-.303 2.151-1.02a13.409 13.409 0 0 1 3.276-3.419c.682-.496 1.077-1.32.925-2.15L95.642 6.92zm36.607 49.277c1.139-.33 2.318.397 2.489 1.571.192 1.321.346 2.656.459 4.004a67.045 67.045 0 0 1-10.534 42.259c-.563.87-1.708 1.133-2.611.624l-5.457-3.079c-.731-.413-1.107-1.24-1.089-2.08a9.858 9.858 0 0 0-3.508-7.747l-.025-.021a1.165 1.165 0 0 1-.439-.999l1.253-17.043c.065-.872.693-1.586 1.517-1.877a13.473 13.473 0 0 0 6.173-4.459 13.39 13.39 0 0 0 2.745-7c.081-.906.657-1.72 1.53-1.973l7.497-2.18zM7.054 95.933a1.968 1.968 0 0 1-1.55-1.148A67.316 67.316 0 0 1 .188 75.187a1.963 1.963 0 0 1 1.188-2.02l25.736-11.036c.872-.374 1.878-.077 2.478.658a21.658 21.658 0 0 0 6.624 5.438 21.739 21.739 0 0 0 8.197 2.45c.96.088 1.775.777 1.937 1.726l2.992 17.56c.156.917-.346 1.808-1.163 2.25a16.273 16.273 0 0 0-6.658 6.719c-.423.8-1.276 1.308-2.173 1.191l-32.293-4.19zm97.219-23.09c.062-.844-.422-1.624-1.158-2.044a13.468 13.468 0 0 1-3.938-3.41 13.4 13.4 0 0 1-2.333-4.612c-.233-.83-.89-1.497-1.74-1.63L68.31 56.973c-.938-.146-1.84.392-2.239 1.253a21.6 21.6 0 0 1-4.149 6.02 21.683 21.683 0 0 1-5.946 4.309c-.844.415-1.359 1.319-1.2 2.246l3.092 18.148c.148.865.844 1.52 1.7 1.713 2.31.52 4.484 1.535 6.368 2.983a16.23 16.23 0 0 1 4.482 5.328c.42.799 1.268 1.308 2.163 1.197l21.875-2.719c.849-.105 1.518-.747 1.812-1.55a9.869 9.869 0 0 1 2.11-3.4 9.911 9.911 0 0 1 3.302-2.294c.784-.334 1.387-1.032 1.45-1.882l1.142-15.48zm-56.041 59.421c1.203.357 2.406-.514 2.486-1.767l.442-6.907c.06-.928-.534-1.762-1.394-2.116a16.291 16.291 0 0 1-6.132-4.41 16.189 16.189 0 0 1-3.487-6.76c-.212-.869-.902-1.564-1.788-1.68l-22.78-2.988c-1.708-.224-2.854 1.653-1.802 3.016a68.013 68.013 0 0 0 34.455 23.612zm69.649-19.407c.848-.929.583-2.394-.514-3.009l-4.147-2.327c-.727-.407-1.619-.305-2.325.138a9.953 9.953 0 0 1-11.683-.815 9.883 9.883 0 0 1-.49-.443c-.487-.469-1.147-.742-1.818-.658l-23.3 2.89c-.892.111-1.588.807-1.803 1.68a16.211 16.211 0 0 1-4.39 7.704 16.313 16.313 0 0 1-7.69 4.233c-.929.219-1.658.98-1.722 1.932l-.55 8.276c-.069 1.038.668 1.958 1.7 2.086a68.27 68.27 0 0 0 32.301-3.812 68.011 68.011 0 0 0 26.431-17.875zm38.752-14.321a2.194 2.194 0 0 0 1.231-.542c.407-.46.68-1.022.792-1.625.233-1.046.337-2.116.312-3.186v-3.82h7.822v11.633h-2.849v-9.182h-2.262v1.414c0 2.792-.416 4.809-1.25 6.051a4.264 4.264 0 0 1-3.777 1.837l-.019-2.58zm13.999-3.434a5.693 5.693 0 0 1 1.737-4.233 6.441 6.441 0 0 1 8.714 0 5.68 5.68 0 0 1 1.738 4.233 6.093 6.093 0 0 1-6.094 6.087 6.088 6.088 0 0 1-6.095-6.087zm2.951 0a3.551 3.551 0 0 0 .919 2.488 2.984 2.984 0 0 0 2.234 1.002 2.992 2.992 0 0 0 2.233-1.002c.617-.68.946-1.572.92-2.489a3.3 3.3 0 0 0-.92-2.378 3.07 3.07 0 0 0-4.467 0 3.298 3.298 0 0 0-.919 2.378zm13.08 5.894V89.363h7.133v2.442h-4.284v9.182l-2.849.009zm10.552 0V89.363h2.858v5.436l-.127 1.983c.283-.682.612-1.345.983-1.983l3.227-5.436h2.885v11.633h-2.849v-5.417l.129-1.983a17.02 17.02 0 0 1-.984 1.983l-3.245 5.417h-2.877zm13.705-5.84a5.798 5.798 0 0 1 1.719-4.278 5.965 5.965 0 0 1 4.393-1.708 6.997 6.997 0 0 1 2.381.413 5.408 5.408 0 0 1 2.014 1.221l-1.324 2.149a5.004 5.004 0 0 0-1.379-.854 3.952 3.952 0 0 0-1.544-.33 3.068 3.068 0 0 0-2.464.973 3.502 3.502 0 0 0-.836 2.35c-.018.896.284 1.77.855 2.461a2.953 2.953 0 0 0 2.436 1.047 4.313 4.313 0 0 0 3.098-1.432l1.47 2.084a6.266 6.266 0 0 1-4.697 1.956 5.785 5.785 0 0 1-6.112-6.042l-.01-.01zm16.813 5.84v-9.182h-3.549v-2.451h9.918v2.442h-3.484v9.182l-2.885.009zm9.862 0V89.363h2.85v5.436l-.129 1.983c.281-.682.606-1.344.974-1.983l3.227-5.436h2.886v11.633h-2.85v-5.417l.129-1.983a17.247 17.247 0 0 1-.975 1.983l-3.244 5.417h-2.868zm17.373-4.113a3.617 3.617 0 0 1-2.758-.918 3.719 3.719 0 0 1-.919-2.681v-3.921h2.913v3.213c0 1.148.516 1.727 1.545 1.727a3.91 3.91 0 0 0 2.05-.542v-4.398h2.923v11.633h-2.923v-4.737a7.258 7.258 0 0 1-2.868.615l.037.009zm10.267 4.113V89.363h7.298v2.442h-4.449v2.121h3.549v2.443h-3.549v2.203h4.679v2.443l-7.528-.019zm10.607-5.84a5.783 5.783 0 0 1 1.72-4.278 5.946 5.946 0 0 1 4.393-1.708c.812 0 1.618.139 2.381.413.743.26 1.421.68 1.986 1.23l-1.325 2.15a5.043 5.043 0 0 0-1.379-.855 3.948 3.948 0 0 0-1.544-.33 3.05 3.05 0 0 0-2.462.973 3.471 3.471 0 0 0-.837 2.35 3.763 3.763 0 0 0 .854 2.461 2.977 2.977 0 0 0 2.437 1.047 4.307 4.307 0 0 0 3.097-1.432l1.471 2.084a6.27 6.27 0 0 1-4.697 1.956 5.8 5.8 0 0 1-4.402-1.664 5.786 5.786 0 0 1-1.711-4.378l.018-.018zm14.294 5.84V89.363h2.85v4.49h1.176l2.409-4.49h3.06l-3.143 5.564 3.318 6.033h-3.19l-2.463-4.71h-1.177v4.719l-2.84.027zm13.034 0V89.363h2.821v5.436l-.127 1.983c.282-.681.607-1.343.973-1.983l3.227-5.436h2.886v11.633h-2.849v-5.417l.128-1.983c-.28.682-.605 1.344-.974 1.983l-3.245 5.417h-2.84zm19.344-12.156a3.589 3.589 0 0 1-2.174-.67 2.157 2.157 0 0 1-.919-1.837v-.184h2.087v.193a.859.859 0 0 0 .303.716 1.14 1.14 0 0 0 1.406 0 .854.854 0 0 0 .313-.716v-.193h2.068v.184a2.134 2.134 0 0 1-.919 1.837c-.629.454-1.39.69-2.165.67zm0 0h-.023.046-.023zm-5.06 12.156V89.363h2.85v5.436l-.129 1.983c.282-.681.608-1.343.975-1.983l3.225-5.436h2.887v11.633h-2.85v-5.417l.129-1.983a17 17 0 0 1-.974 1.983l-3.245 5.417h-2.868zm-159.938 19.531v-11.634h2.848v9.182h4.037v-9.182h2.858v9.182h1.434v4.701h-2.417v-2.277l-8.76.028zm14.955 0v-11.634h7.298v2.442h-4.448v2.112h3.547v2.443h-3.547v2.194h4.742v2.443h-7.592zm11.425 0v-11.634h2.849v4.655h4.348v-4.655h2.85v11.643h-2.85v-4.591h-4.237v4.591l-2.96-.009zm16.95 0v-9.182h-3.539v-2.443h9.928v2.443h-3.539v9.182h-2.85zm9.853 0v-11.634h4.845a3.596 3.596 0 0 1 2.757 1.12 4.052 4.052 0 0 1 1.048 2.883 4.11 4.11 0 0 1-1.048 2.902 3.575 3.575 0 0 1-2.757 1.129h-1.986v3.6h-2.859zm2.85-6.042h1.443a1.392 1.392 0 0 0 1.103-.441c.268-.325.404-.737.387-1.157a1.657 1.657 0 0 0-.377-1.138 1.343 1.343 0 0 0-1.058-.423h-1.452l-.046 3.159zm91.46-45.91h-16.278v-51.08h29.294a21.789 21.789 0 0 1 15.398 6.371 21.743 21.743 0 0 1 6.378 15.381c0 5.77-2.295 11.302-6.378 15.382a21.79 21.79 0 0 1-15.398 6.37h-13.016v7.576zm-148.421-51.09h16.325l12.666 12.654-6.434 10.1 8.272-8.264 14.524-14.48h16.269v51.08h-16.278V40.469l-3.025 3.011.065.065-11.555 11.486-14.551-14.562v28.106h-16.278v-51.09zm86.026 21.661l21.74-21.66 16.196.01v51.079h-16.279V44.15l6.434-10.045-28.091 28.042v6.428h-16.278v-51.08h16.278v21.651zm62.395-5.426v11.018h13.016a5.526 5.526 0 0 0 3.9-1.613 5.507 5.507 0 0 0-3.9-9.405h-13.016z"/></defs></svg>