<svg width="40" height="40" xmlns="http://www.w3.org/2000/svg" xmlns:xlink="http://www.w3.org/1999/xlink"><g transform="translate(-9512 -7224)"><mask id="a"><use xlink:href="#path0_fillFillColor" fill="#fff" class="t-svgBgColor" transform="translate(9512 7224)"/></mask><g mask="url(#a)"><use xlink:href="#path1_stroke_2xBorder" class="t-svgBorderColor" transform="translate(9512 7224)" fill="#F2F2F2"/></g></g><use xlink:href="#path2_strokeArrowStroke" class="t-svgArrowColor" transform="translate(16 19)" fill="#CCC"/><defs><path id="path0_fillFillColor" d="M40 20c0 11.046-8.954 20-20 20S0 31.046 0 20 8.954 0 20 0s20 8.954 20 20z"/><path id="path1_stroke_2xBorder" d="M38 20c0 9.941-8.059 18-18 18v4c12.15 0 22-9.85 22-22h-4zM20 38c-9.941 0-18-8.059-18-18h-4c0 12.15 9.85 22 22 22v-4zM2 20c0-9.941 8.059-18 18-18v-4C7.85-2-2 7.85-2 20h4zM20 2c9.941 0 18 8.059 18 18h4C42 7.85 32.15-2 20-2v4z"/><path id="path2_strokeArrowStroke" d="M4 4l-.707.707a1 1 0 0 0 1.414 0L4 4zM.707-.707A1 1 0 0 0-.707.707L.707-.707zm8 1.414A1 1 0 0 0 7.293-.707L8.707.707zm-4 2.586l-4-4L-.707.707l4 4 1.414-1.414zm0 1.414l4-4L7.293-.707l-4 4 1.414 1.414z"/></defs></svg>