<svg width="45" height="56" xmlns="http://www.w3.org/2000/svg" xmlns:xlink="http://www.w3.org/1999/xlink"><use xlink:href="#path0_fillDocument" fill="#2071C7"/><defs><path id="path0_fillDocument" fill-rule="evenodd" d="M0 54.88C0 55.498.503 56 1.125 56h42.75c.622 0 1.125-.502 1.125-1.12V1.12C45 .501 44.497 0 43.875 0H1.125C.503 0 0 .501 0 1.12v53.76zm2.25-1.12V2.24h40.5v51.52H2.25zm7.875-26.88c0-.618.503-1.12 1.125-1.12h22.5c.622 0 1.125.502 1.125 1.12 0 .619-.503 1.12-1.125 1.12h-22.5a1.122 1.122 0 0 1-1.125-1.12zM22.5 25.76a1.13 1.13 0 0 1-.879-.42l-4.5-5.6a1.117 1.117 0 0 1 .176-1.574 1.13 1.13 0 0 1 1.582.174l2.496 3.107V11.2c0-.618.503-1.12 1.125-1.12s1.125.502 1.125 1.12v10.247l2.496-3.107a1.13 1.13 0 0 1 1.582-.174c.485.386.564 1.09.176 1.574l-4.5 5.6a1.13 1.13 0 0 1-.879.42zM10.125 35.84c0-.619.503-1.12 1.125-1.12h22.5c.622 0 1.125.502 1.125 1.12 0 .618-.503 1.12-1.125 1.12h-22.5a1.122 1.122 0 0 1-1.125-1.12zm1.125 7.84c-.622 0-1.125.502-1.125 1.12 0 .619.503 1.12 1.125 1.12h13.5c.622 0 1.125-.502 1.125-1.12 0-.618-.503-1.12-1.125-1.12h-13.5z"/></defs></svg>