<svg width="71" height="16" xmlns="http://www.w3.org/2000/svg" xmlns:xlink="http://www.w3.org/1999/xlink"><use xlink:href="#path0_fillText" class="t-svgLogoText" transform="translate(.58 .499)" fill="#FFF"/><defs><path id="path0_fillText" fill-rule="evenodd" d="M0 5.1a.905.905 0 0 0 .507-.223c.167-.19.28-.42.326-.669.096-.43.139-.871.128-1.312V1.323h3.221v4.79H3.01v-3.78h-.931v.582c0 1.15-.172 1.98-.515 2.492a1.752 1.752 0 0 1-1.555.756L0 5.1zm5.764-1.414a2.342 2.342 0 0 1 .716-1.743 2.651 2.651 0 0 1 3.588 0 2.346 2.346 0 0 1 .715 1.743 2.505 2.505 0 0 1-2.51 2.507 2.51 2.51 0 0 1-2.509-2.507zm1.215 0c-.01.378.125.745.379 1.025a1.23 1.23 0 0 0 1.84 0c.253-.28.389-.647.378-1.025a1.36 1.36 0 0 0-.379-.979 1.264 1.264 0 0 0-1.84 0 1.36 1.36 0 0 0-.378.98zm5.386 2.428v-4.79h2.937v1.005H13.54v3.78l-1.174.005zm4.345 0v-4.79h1.177v2.238l-.053.816a6.96 6.96 0 0 1 .405-.816l1.329-2.239h1.188v4.79h-1.173v-2.23l.053-.817a6.96 6.96 0 0 1-.405.817l-1.336 2.23H16.71zm5.644-2.405a2.383 2.383 0 0 1 .707-1.762 2.453 2.453 0 0 1 1.81-.703c.334 0 .665.057.98.17.31.105.593.276.829.503l-.545.885a2.06 2.06 0 0 0-.568-.352 1.629 1.629 0 0 0-.636-.136 1.262 1.262 0 0 0-1.014.4 1.44 1.44 0 0 0-.345.969c-.008.368.117.728.352 1.013a1.218 1.218 0 0 0 1.003.43 1.777 1.777 0 0 0 1.276-.589l.605.858a2.582 2.582 0 0 1-1.934.806 2.387 2.387 0 0 1-2.356-1.512 2.381 2.381 0 0 1-.16-.976l-.004-.004zm6.922 2.405V2.333h-1.46v-1.01h4.083V2.33h-1.434v3.78l-1.189.005zm4.061 0v-4.79h1.174v2.238l-.053.816c.115-.28.25-.553.4-.816l1.33-2.239h1.188v4.79h-1.173v-2.23l.052-.817c-.116.28-.25.553-.4.817l-1.337 2.23h-1.18zm7.154-1.694a1.489 1.489 0 0 1-1.136-.378 1.53 1.53 0 0 1-.378-1.104V1.323h1.2v1.324c0 .472.212.71.636.71a1.61 1.61 0 0 0 .843-.223v-1.81h1.204v4.79h-1.203V4.163a2.99 2.99 0 0 1-1.181.253l.015.004zm4.227 1.694v-4.79h3.006v1.005h-1.832v.873h1.46v1.006h-1.46v.907h1.926v1.006l-3.1-.007zm4.368-2.405a2.377 2.377 0 0 1 .708-1.762 2.453 2.453 0 0 1 1.81-.703c.333 0 .665.057.98.17.306.107.585.28.817.507l-.545.884a2.083 2.083 0 0 0-.568-.351 1.629 1.629 0 0 0-.636-.136 1.258 1.258 0 0 0-1.014.4c-.23.27-.353.614-.344.968a1.55 1.55 0 0 0 .352 1.014 1.223 1.223 0 0 0 1.003.43 1.777 1.777 0 0 0 1.275-.59l.606.859a2.58 2.58 0 0 1-1.934.805 2.386 2.386 0 0 1-2.517-2.487l.007-.008zm5.886 2.405v-4.79h1.173v1.848h.484l.992-1.849h1.26l-1.294 2.291 1.366 2.484H57.64l-1.014-1.94h-.485v1.944l-1.17.012zm5.367 0v-4.79H61.5v2.238l-.053.816c.116-.28.25-.553.4-.816l1.33-2.239h1.188v4.79h-1.173v-2.23l.053-.817c-.116.281-.25.554-.402.817l-1.336 2.23h-1.17zm7.975-5.006a1.477 1.477 0 0 1-.905-.276.884.884 0 0 1-.379-.756V0h.86v.08a.354.354 0 0 0 .124.294.47.47 0 0 0 .58 0 .352.352 0 0 0 .128-.295V0h.852v.076a.879.879 0 0 1-.379.756c-.261.189-.578.286-.9.276h.019zM66.22 6.114v-4.79h1.174v2.238l-.053.816c.116-.28.25-.553.4-.816l1.33-2.239h1.188v4.79h-1.173v-2.23l.053-.817c-.116.28-.25.554-.402.817l-1.336 2.23h-1.18zM.363 14.155v-4.79h1.174v3.781h1.661v-3.78h1.177v3.78h.59v1.936H3.97v-.938l-3.607.011zm6.158 0v-4.79h3.006v1.006H7.695v.87h1.46v1.005h-1.46v.904h1.953v1.005H6.52zm4.705 0v-4.79h1.173v1.917h1.79V9.365h1.174v4.794H14.19v-1.89h-1.745v1.89l-1.219-.004zm6.98 0v-3.78h-1.458V9.369h4.088v1.006h-1.457v3.78h-1.174zm4.057 0v-4.79h1.994a1.48 1.48 0 0 1 1.136.461c.294.324.448.75.431 1.188.017.439-.138.867-.431 1.194a1.471 1.471 0 0 1-1.136.465h-.817v1.482h-1.177zm1.173-2.487h.594a.568.568 0 0 0 .454-.182.703.703 0 0 0 .16-.476.68.68 0 0 0-.156-.469.548.548 0 0 0-.435-.174h-.598l-.019 1.3z"/></defs></svg>