<svg width="56" height="56" xmlns="http://www.w3.org/2000/svg" xmlns:xlink="http://www.w3.org/1999/xlink"><use xlink:href="#path0_fillSymbol" class="t-svgSymbolLogoTop" fill="#FFF"/><use xlink:href="#path1_fillSymbol" class="t-svgSymbolLogoMid" transform="translate(.1 22.91)" fill="#FFF"/><use xlink:href="#path2_fillSymbol" class="t-svgSymbolLogoBottom" transform="translate(4.69 43.286)" fill="#FFF"/><defs><path id="path0_fillSymbol" fill-rule="evenodd" d="M52.868 20.731c1.058-.307 1.676-1.416 1.296-2.451a27.799 27.799 0 0 0-7.127-10.744c-1.287-1.202-3.15-.02-2.836 1.712l1.493 8.207c.158.865.878 1.491 1.692 1.82a5.549 5.549 0 0 1 1.705 1.084c.663.617 1.57 1.012 2.44.76l1.337-.388zm-45.94-7.965c-.89-.707-2.196-.536-2.796.43A27.63 27.63 0 0 0 .314 23.46c-.23 1.454 1.252 2.486 2.604 1.906l6.044-2.592c.877-.376 1.34-1.32 1.319-2.275a8.84 8.84 0 0 1 .373-2.753c.276-.915.079-1.952-.67-2.547l-3.056-2.432zM26.98 2.399c.583-1.084-.203-2.387-1.43-2.296A27.9 27.9 0 0 0 9.115 7.247c-.865.786-.766 2.145.147 2.874l2.94 2.35c.74.592 1.786.56 2.614.096a8.948 8.948 0 0 1 5.464-1.074c.954.117 1.947-.26 2.402-1.107l4.297-7.988zm12.596 1.086a1.92 1.92 0 0 0-1.156-1.448A27.89 27.89 0 0 0 33.485.553c-.828-.167-1.653.252-2.053.996L25.74 12.138c-.447.831-.231 1.848.366 2.579a8.839 8.839 0 0 1 1.76 3.576c.216.929.9 1.728 1.842 1.874l9.454 1.47c.724.113 1.42-.27 1.893-.829.107-.127.22-.249.338-.365.6-.593 1.014-1.405.863-2.235L39.575 3.484z"/><path id="path1_fillSymbol" fill-rule="evenodd" d="M53.185.62c1.14-.332 2.321.397 2.436 1.578l.032.353c.5 5.767-.826 11.529-3.77 16.486-.53.89-1.678 1.151-2.58.642l-.593-.334c-.732-.413-1.08-1.254-1.231-2.08a4.046 4.046 0 0 0-1.39-2.38.48.48 0 0 1-.18-.41l.453-6.157c.064-.872.708-1.57 1.477-1.984a5.54 5.54 0 0 0 2.728-3.475c.229-.88.784-1.706 1.657-1.96l.961-.28zM3.532 16.7a1.92 1.92 0 0 1-1.538-1.153A27.714 27.714 0 0 1 .17 8.923C.047 8.065.54 7.247 1.337 6.906l8.93-3.83c.871-.374 1.87-.064 2.546.602a8.922 8.922 0 0 0 4.492 2.396c.943.193 1.766.868 1.927 1.817l.912 5.348c.156.916-.362 1.794-1.11 2.345a6.7 6.7 0 0 0-1.48 1.5c-.527.736-1.366 1.259-2.264 1.142L3.532 16.701zm39.326-8.762c.062-.844-.439-1.61-1.103-2.135a5.54 5.54 0 0 1-1.603-2.043c-.358-.783-.996-1.465-1.847-1.597L29.059.722c-.938-.146-1.83.402-2.318 1.215A8.896 8.896 0 0 1 23.86 4.88c-.796.503-1.32 1.395-1.162 2.322l.968 5.683c.148.865.854 1.504 1.678 1.805a6.716 6.716 0 0 1 3.165 2.412c.523.736 1.358 1.26 2.254 1.148l7.28-.905c.849-.105 1.496-.77 1.95-1.496a4.074 4.074 0 0 1 1.128-1.185c.7-.487 1.327-1.166 1.39-2.016l.347-4.71z"/><path id="path2_fillSymbol" fill-rule="evenodd" d="M16.369 9.053c-.08 1.253-1.285 2.127-2.47 1.708A28.014 28.014 0 0 1 2.754 3.464C1.578 2.205 2.684.352 4.39.576l5.915.776c.887.116 1.56.822 1.886 1.655a6.672 6.672 0 0 0 2.857 3.338c.803.47 1.41 1.29 1.351 2.217l-.031.491zm26.265-7.692c1.015.57 1.26 1.927.439 2.752a28.013 28.013 0 0 1-10.023 6.458 28.112 28.112 0 0 1-12.225 1.682c-1.036-.088-1.773-1.013-1.704-2.051l.09-1.366c.064-.951.806-1.696 1.694-2.045a6.712 6.712 0 0 0 2.246-1.456 6.677 6.677 0 0 0 1.537-2.32c.33-.836 1.01-1.543 1.902-1.654L35.025.315c.445-.056.879.13 1.22.42a4.093 4.093 0 0 0 4.179.659c.714-.29 1.538-.41 2.21-.033z"/></defs></svg>