<svg width="59" height="24" xmlns="http://www.w3.org/2000/svg" xmlns:xlink="http://www.w3.org/1999/xlink"><use xlink:href="#path0_fillLongTruck" fill="#00D15E"/><defs><path id="path0_fillLongTruck" fill-rule="evenodd" d="M42.366.227a1 1 0 0 1 .83-.208l12.588 2.518A4 4 0 0 1 59 6.46V22a1 1 0 0 1-1 1h-3.764c-.548.614-1.347 1-2.236 1a2.992 2.992 0 0 1-2.236-1H37.236c-.548.614-1.347 1-2.236 1a2.994 2.994 0 0 1-2.262-1.028.995.995 0 0 1-.238.028H13.236c-.549.614-1.347 1-2.236 1a2.996 2.996 0 0 1-2.5-1.341A2.996 2.996 0 0 1 6 24a2.993 2.993 0 0 1-2.236-1H1a1 1 0 0 1-1-1v-6a1 1 0 0 1 1-1h41V1c0-.3.135-.584.366-.773zM38 21h11a3 3 0 1 1 6 0h2v-7.105l-8.11-.901a1 1 0 0 1 .22-1.988l7.89.877V6.459a2 2 0 0 0-1.607-1.96L44 2.218V16a1 1 0 0 1-1 1H2v4h1a3 3 0 0 1 5.5-1.659A3 3 0 0 1 14 21h18a3 3 0 1 1 6 0zM5 21a1 1 0 1 1 2 0 1 1 0 0 1-2 0zm5 0a1 1 0 1 1 2 0 1 1 0 0 1-2 0zm25-1a1 1 0 1 0 0 2 1 1 0 0 0 0-2zm16 1a1 1 0 1 1 2 0 1 1 0 0 1-2 0z"/></defs></svg>