<svg width="64" height="40" xmlns="http://www.w3.org/2000/svg" xmlns:xlink="http://www.w3.org/1999/xlink"><use xlink:href="#path0_fillPlane" transform="translate(2 8)"/><defs><path id="path0_fillPlane" fill-rule="evenodd" d="M1 0a1 1 0 0 0-.864 1.504l6.74 11.553-.786 1.73a1 1 0 0 0 .648 1.378l12.024 3.264L12.4 24.2A1 1 0 0 0 13 26h8a1 1 0 0 0 .447-.105L33.237 20h13.992c3.617 0 7.192-.785 10.476-2.301l.44-.203c1.265-.584 1.423-2.319.285-3.122a29.361 29.361 0 0 0-5.904-3.225.999.999 0 0 0-.323-.128A29.358 29.358 0 0 0 41.5 9H20.603a8 8 0 0 1-4.93-1.7L6.616.212A1 1 0 0 0 6 0H1zm48.42 12.172A27.357 27.357 0 0 0 41.5 11H20.602a10 10 0 0 1-6.163-2.125L5.655 2H2.741l6.123 10.496a1 1 0 0 1 .046.918l-.513 1.129 12.865 3.492A1 1 0 0 1 21.6 19.8L16 24h4.764l11.789-5.895 6-3a1 1 0 0 1 .894 1.79L37.237 18h9.992a23 23 0 0 0 9.638-2.117l.139-.064a27.368 27.368 0 0 0-4.981-2.713l-3.578 1.789a1 1 0 0 1-.894-1.79l1.867-.933z"/></defs></svg>