<svg width="64" height="40" xmlns="http://www.w3.org/2000/svg" xmlns:xlink="http://www.w3.org/1999/xlink"><use xlink:href="#path0_fillTanker" transform="translate(2 8)"/><defs><path id="path0_fillTanker" fill-rule="evenodd" d="M3.212.385A1 1 0 0 1 4 0h16a1 1 0 0 1 .99.854L22.936 14H25V9a1 1 0 0 1 1-1h15a1 1 0 0 1 1 1v4.658c.334-.13.655-.297.957-.498l3.432-2.288a6 6 0 0 1 2.785-.983l9.736-.885a1 1 0 0 1 .948 1.51l-7.253 12.088A7 7 0 0 1 46.603 26H8.073a5 5 0 0 1-4.831-3.712L.034 10.258A1 1 0 0 1 1 9h4.22l.615-2.464-1.282-.641a1 1 0 0 1-.523-.653l-1-4a1 1 0 0 1 .182-.857zM41.476 15.88a7.003 7.003 0 0 0 2.59-1.056l3.432-2.288a4 4 0 0 1 1.857-.655l7.774-.707-6.239 10.399A5 5 0 0 1 46.603 24H8.073a3 3 0 0 1-2.899-2.227L3.958 17.21l8.846 1.77a1 1 0 1 0 .392-1.962l-9.813-1.962L2.302 11h9.164c1.403 0 2.763.492 3.84 1.39l1.829 1.524A9 9 0 0 0 22.896 16H41a.995.995 0 0 0 .476-.12zM40 14v-4H27v4h13zM19.137 2l.296 2H14a1 1 0 0 0 0 2h5.73l1.14 7.7a6.996 6.996 0 0 1-2.455-1.323l-1.828-1.523A8 8 0 0 0 11.466 9H7.28l.69-2.758a1 1 0 0 0-.524-1.137L5.86 4.311 5.28 2h13.856z"/></defs></svg>