<svg width="88" height="20" xmlns="http://www.w3.org/2000/svg" xmlns:xlink="http://www.w3.org/1999/xlink"><use xlink:href="#path0_fillTrainIcon" fill="#00D15E"/><defs><path id="path0_fillTrainIcon" fill-rule="evenodd" d="M1 0a1 1 0 0 0-1 1v17a1 1 0 0 0 1.832.555l1.175-1.763a3 3 0 1 0 11.92-.45l1.366 1.365A1 1 0 0 0 17 18h7a1 1 0 0 0 .707-.293l1.365-1.365a3 3 0 1 0 11.92.45l1.176 1.763A1 1 0 0 0 41 18v-2h2v2a1 1 0 0 0 1 1h1a1 1 0 0 0 .832-.445l1.175-1.763a3 3 0 1 0 11.92-.45l1.366 1.365A1 1 0 0 0 61 18h7a1 1 0 0 0 .707-.293l1.365-1.365a3 3 0 1 0 11.92.45l1.176 1.763A1 1 0 0 0 84 19h1a.999.999 0 0 0 .983-.821l2-11a.998.998 0 0 0-.151-.734l-4-6A1 1 0 0 0 83 0H44a1 1 0 0 0-1 1v13h-2V1a1 1 0 0 0-1-1H1zm75 17c0-.35-.06-.687-.17-1h.34c-.11.313-.17.65-.17 1zm-23 0c0-.35-.06-.687-.17-1h.34c-.11.313-.17.65-.17 1zm-18-1a1 1 0 1 0 0 2 1 1 0 0 0 0-2zm0-2h3a1 1 0 0 1 .832.445l.168.252V2H2v12.697l.168-.252A1 1 0 0 1 3 14h12a1 1 0 0 1 .707.293L17.414 16h6.172l1.707-1.707A1 1 0 0 1 26 14h9zm-2.83 2c-.11.313-.17.65-.17 1 0-.35-.06-.687-.17-1h.34zM9 17a3 3 0 0 0-.17-1h.34A3 3 0 0 0 9 17zm19 0a1 1 0 1 1 2 0 1 1 0 0 1-2 0zm-16-1a1 1 0 1 0 0 2 1 1 0 0 0 0-2zm-7 1a1 1 0 1 1 2 0 1 1 0 0 1-2 0zm40-2v1.197l1.168-1.752A1 1 0 0 1 47 14h12a1 1 0 0 1 .707.293L61.414 16h6.172l1.707-1.707A1 1 0 0 1 70 14h12a1 1 0 0 1 .832.445l1.413 2.12 1.7-9.346L85.131 6H73.219l-.189-.757L72.22 2H45v13zm33 2a1 1 0 1 1 2 0 1 1 0 0 1-2 0zm-5-1a1 1 0 1 0 0 2 1 1 0 0 0 0-2zm-18 1a1 1 0 1 1 2 0 1 1 0 0 1-2 0zm-5-1a1 1 0 1 0 0 2 1 1 0 0 0 0-2zM82.465 2l1.333 2H74.78l-.5-2h8.184zM4 11a1 1 0 0 1 1-1h31a1 1 0 1 1 0 2H5a1 1 0 0 1-1-1z"/></defs></svg>