<svg width="59" height="24" xmlns="http://www.w3.org/2000/svg" xmlns:xlink="http://www.w3.org/1999/xlink"><use xlink:href="#path0_fillTruck2" fill="#00D15E"/><defs><path id="path0_fillTruck2" fill-rule="evenodd" d="M42.366.227a1 1 0 0 1 .83-.208l12.588 2.518A4 4 0 0 1 59 6.46V22a1 1 0 0 1-1 1h-3.764c-.548.614-1.347 1-2.236 1a2.992 2.992 0 0 1-2.236-1H37.236c-.548.614-1.347 1-2.236 1a2.993 2.993 0 0 1-2.262-1.029A1 1 0 0 1 32.5 23H13.236c-.549.614-1.347 1-2.236 1a2.996 2.996 0 0 1-2.5-1.34A2.996 2.996 0 0 1 6 24a2.992 2.992 0 0 1-2.236-1H1a1 1 0 0 1-1-1V3a1 1 0 0 1 1-1h39a1 1 0 0 1 1 1v12h1V1c0-.3.135-.583.366-.773zM52 18a3 3 0 0 0-3 3H38a3 3 0 1 0-6 0H14a3 3 0 0 0-3-3H6a3 3 0 0 0-3 3H2v-4h41a1 1 0 0 0 1-1V2.22l11.393 2.278A2 2 0 0 1 57 6.46v5.424l-7.89-.877a1 1 0 0 0-.22 1.988l8.11.901V21h-2a3 3 0 0 0-3-3zm-13-3V4H2v11h37zm-28 5a1 1 0 1 0 0 2 1 1 0 0 0 0-2zm-6 1a1 1 0 1 1 2 0 1 1 0 0 1-2 0zm30-1a1 1 0 1 0 0 2 1 1 0 0 0 0-2zm16 1a1 1 0 1 1 2 0 1 1 0 0 1-2 0zM4 5a1 1 0 0 0-1 1v7a1 1 0 0 0 1 1h9a1 1 0 0 0 1-1V6a1 1 0 0 0-1-1H4zm1 7V7h7v5H5zm10-6a1 1 0 0 1 1-1h9a1 1 0 0 1 1 1v7a1 1 0 0 1-1 1h-9a1 1 0 0 1-1-1V6zm2 1v5h7V7h-7zm11-2a1 1 0 0 0-1 1v7a1 1 0 0 0 1 1h9a1 1 0 0 0 1-1V6a1 1 0 0 0-1-1h-9zm1 7V7h7v5h-7z"/></defs></svg>