<svg width="64" height="40" xmlns="http://www.w3.org/2000/svg" xmlns:xlink="http://www.w3.org/1999/xlink"><use xlink:href="#path0_fillTruck" transform="translate(2 10)"/><defs><path id="path0_fillTruck" fill-rule="evenodd" d="M43.196.02A1 1 0 0 0 42 1v14h-1V3a1 1 0 0 0-1-1H1a1 1 0 0 0-1 1v19a1 1 0 0 0 1 1h2.764a2.997 2.997 0 0 0 4.736-.341 2.997 2.997 0 0 0 4.736.341H32.5c.082 0 .162-.01.239-.029.55.63 1.359 1.029 2.261 1.029.889 0 1.687-.386 2.236-1h12.528c.55.614 1.347 1 2.236 1 .889 0 1.687-.386 2.236-1H58a1 1 0 0 0 1-1V6.46a4 4 0 0 0-3.215-3.923L43.196.02zM49 21a3 3 0 0 1 6 0h2v-7.105l-8.11-.901a1 1 0 1 1 .22-1.988l7.89.877V6.459a2 2 0 0 0-1.608-1.96L44 2.218V16a1 1 0 0 1-1 1H2v4h1a3 3 0 0 1 3-3h5a3 3 0 0 1 3 3h18a3 3 0 0 1 6 0h11zM39 4v11H2V4h37zM10 21a1 1 0 1 1 2 0 1 1 0 0 1-2 0zm-4-1a1 1 0 1 0 0 2 1 1 0 0 0 0-2zm28 1a1 1 0 1 1 2 0 1 1 0 0 1-2 0zm18-1a1 1 0 1 0 0 2 1 1 0 0 0 0-2z"/></defs></svg>