<svg width="59" height="24" xmlns="http://www.w3.org/2000/svg" xmlns:xlink="http://www.w3.org/1999/xlink"><use xlink:href="#path0_fillTruck3" fill="#00D15E"/><defs><path id="path0_fillTruck3" fill-rule="evenodd" d="M43.196.02A1 1 0 0 0 42 1v14h-1V3a1 1 0 0 0-1-1H1a1 1 0 0 0-1 1v19a1 1 0 0 0 1 1h2.764c.549.614 1.347 1 2.236 1a2.996 2.996 0 0 0 2.5-1.34A2.996 2.996 0 0 0 11 24c.889 0 1.688-.386 2.236-1H32.5a1 1 0 0 0 .238-.029c.55.63 1.36 1.029 2.262 1.029.889 0 1.688-.386 2.236-1h12.528c.548.614 1.347 1 2.236 1 .889 0 1.688-.386 2.236-1H58a1 1 0 0 0 1-1V6.46a4 4 0 0 0-3.216-3.923L43.196.02zM49 21a3 3 0 1 1 6 0h2v-7.105l-8.11-.901a1 1 0 0 1 .22-1.988l7.89.877V6.459a2 2 0 0 0-1.607-1.96L44 2.218V16a1 1 0 0 1-1 1H2v4h1a3 3 0 0 1 3-3h5a3 3 0 0 1 3 3h18a3 3 0 1 1 6 0h11zM39 4v11H2V4h37zM10 21a1 1 0 1 1 2 0 1 1 0 0 1-2 0zm-4-1a1 1 0 1 0 0 2 1 1 0 0 0 0-2zm28 1a1 1 0 1 1 2 0 1 1 0 0 1-2 0zm18-1a1 1 0 1 0 0 2 1 1 0 0 0 0-2zM6 6a1 1 0 0 1 1 1v5a1 1 0 1 1-2 0V7a1 1 0 0 1 1-1zm5 1a1 1 0 1 0-2 0v5a1 1 0 1 0 2 0V7zm3-1a1 1 0 0 1 1 1v5a1 1 0 1 1-2 0V7a1 1 0 0 1 1-1zm5 1a1 1 0 1 0-2 0v5a1 1 0 1 0 2 0V7zm3-1a1 1 0 0 1 1 1v5a1 1 0 1 1-2 0V7a1 1 0 0 1 1-1zm5 1a1 1 0 1 0-2 0v5a1 1 0 1 0 2 0V7zm3-1a1 1 0 0 1 1 1v5a1 1 0 1 1-2 0V7a1 1 0 0 1 1-1zm5 1a1 1 0 1 0-2 0v5a1 1 0 1 0 2 0V7z"/></defs></svg>