<svg width="76" height="22" xmlns="http://www.w3.org/2000/svg" xmlns:xlink="http://www.w3.org/1999/xlink"><use xlink:href="#path0_fillWord" class="t-svgLogoWorld" transform="translate(.56 .226)" fill="#FFF"/><defs><path id="path0_fillWord" fill-rule="evenodd" d="M54.412 21.037h6.703v-3.12h5.359a8.971 8.971 0 0 0 6.34-2.623 8.952 8.952 0 0 0 0-12.667 8.971 8.971 0 0 0-6.34-2.623H54.412v21.033zM6.722 0H0v21.037h6.703V9.463l5.991 5.997 4.758-4.73-.026-.026 1.245-1.24v11.573h6.703V.004h-6.7l-5.98 5.962L9.288 9.37l2.65-4.159L6.721 0zm37.652 0l-8.951 8.919V.004H28.72v21.033h6.703V18.39L46.989 6.843 44.34 10.98v10.057h6.703V.004L44.374 0zm16.74 11.222V6.685h5.36a2.274 2.274 0 0 1 2.098 1.4 2.267 2.267 0 0 1-2.098 3.136h-5.36z"/></defs></svg>