<svg width="24" height="24" viewBox="0 0 24 24" xmlns="http://www.w3.org/2000/svg" xmlns:xlink="http://www.w3.org/1999/xlink"><use xlink:href="#a" fill="#FFF"/><use xlink:href="#b" transform="translate(7 6)" fill="#E0E0E0"/><defs><path fill="var(--primary-color)" id="a" d="M24 12c0 6.627-5.373 12-12 12S0 18.627 0 12 5.373 0 12 0s12 5.373 12 12z"/><path fill="var(--secondary-color)" id="b" fill-rule="evenodd" d="M9 5a3 3 0 1 1-6 0 3 3 0 0 1 6 0zm2 0a5 5 0 0 1-7.758 4.171l-1.535 1.536A1 1 0 1 1 .293 9.293l1.535-1.536A5 5 0 1 1 11 5z"/></defs></svg>