<svg width="141" height="199" fill="none" xmlns="http://www.w3.org/2000/svg"><path d="M79.92 12.948a1.5 1.5 0 0 0 3 0h-3zm-22.014 0a1.5 1.5 0 0 0 3 0h-3zm-1.374 25.384l1.493.145.007-.072v-.073h-1.5zm0-.476l-1.487-.194-.013.097v.097h1.5zm27.773 0h1.5v-.116l-.018-.115-1.482.231zm0 .476h-1.5v.133l.023.13 1.477-.263zM50.097 12.945v-1.5 1.5zm-3.051 10.228a1.5 1.5 0 1 0 0-3v3zm45.215-3a1.5 1.5 0 0 0 0 3v-3zM34.849 38.246a1.5 1.5 0 0 0 0-3v3zm-16.934-1.5v-1.5h-1.5v1.5h1.5zm0 145.18h-1.5v1.5h1.5v-1.5zm81.285 0v1.5h.593l.433-.405-1.026-1.095zm23.709-22.213l1.025 1.094.475-.444v-.65h-1.5zm0-122.967h1.5v-1.5h-1.5v1.5zm-16.765-1.5a1.5 1.5 0 1 0 0 3v-3zM59.283 99.532a1.5 1.5 0 1 0-2.121-2.122l2.12 2.122zM45.52 111.165l-1.04 1.08 1.06 1.021 1.04-1.04-1.06-1.061zm-5.056-6.952a1.5 1.5 0 0 0-2.081 2.161l2.081-2.161zm-1.387-29.21a1.5 1.5 0 0 0 2.051 2.19l-2.05-2.19zm17.123-11.932a1.5 1.5 0 0 0-2.051-2.19l2.051 2.19zM54.15 77.192a1.5 1.5 0 1 0 2.051-2.189l-2.051 2.19zm-13.02-16.31a1.5 1.5 0 0 0-2.052 2.19l2.051-2.19zm-2.052 87.111a1.5 1.5 0 1 0 2.051 2.189l-2.05-2.189zm17.123-11.932a1.501 1.501 0 0 0-2.051-2.19l2.051 2.19zm-2.051 14.121a1.5 1.5 0 0 0 2.051-2.189l-2.051 2.189zm-13.02-16.311a1.5 1.5 0 0 0-2.052 2.19l2.051-2.19zm24.713-59.27a1.5 1.5 0 0 0 0 3v-3zm43.861 3a1.5 1.5 0 0 0 0-3v3zm-43.86 32.856a1.5 1.5 0 0 0 0 3v-3zm43.86 3a1.5 1.5 0 0 0 0-3v3zm-17.085 59.427a1.5 1.5 0 0 0 3 0h-3zm1.5-17.93v-1.5h-1.5v1.5h1.5zm19.136 1.5a1.5 1.5 0 1 0 0-3v3zM82.92 12.948v-.635h-3v.635h3zm0-.635C82.92 5.683 77.244.5 70.413.5v3c5.361 0 9.507 4.02 9.507 8.813h3zM70.413.5c-6.831 0-12.507 5.182-12.507 11.813h3c0-4.793 4.145-8.813 9.507-8.813v-3zM57.906 12.313v.635h3v-.635h-3zm-12.357 3.488v21.896h3V15.801h-3zm0 21.896c0 2.982 2.628 5.308 5.564 5.308v-3c-1.466 0-2.564-1.164-2.564-2.308h-3zm5.564 5.308h1.524v-3h-1.524v3zm1.524 0c2.671 0 5.132-1.888 5.388-4.528l-2.986-.29c-.082.85-1.008 1.818-2.402 1.818v3zm5.395-4.673v-.476h-3v.476h3zm-.012-.282c.739-5.678 5.956-10.118 12.399-10.118v-3c-7.783 0-14.42 5.398-15.374 12.73l2.975.388zm12.399-10.118c6.252 0 11.51 4.427 12.404 10.156l2.964-.463c-1.138-7.283-7.735-12.693-15.368-12.693v3zm12.386 9.924v.476h3v-.476h-3zm.023.739c.478 2.685 2.85 4.41 5.372 4.41v-3c-1.204 0-2.219-.813-2.418-1.936l-2.954.526zm5.372 4.41c2.936 0 5.564-2.326 5.564-5.308h-3c0 1.144-1.098 2.308-2.564 2.308v3zm5.564-5.308V15.801h-3v21.896h3zm0-21.896c0-2.505-2.12-4.356-4.548-4.356v3c.958 0 1.548.689 1.548 1.356h3zm-4.548-4.356H50.097v3h39.119v-3zm-39.119 0c-2.428 0-4.548 1.85-4.548 4.356h3c0-.667.59-1.356 1.548-1.356v-3zm-3.051 8.728H12.838v3h34.208v-3zm-34.208 0C6.176 20.173.5 25.356.5 31.828h3c0-4.634 4.146-8.655 9.338-8.655v-3zM.5 31.828v155.017h3V31.828h-3zm0 155.017c0 6.473 5.676 11.655 12.338 11.655v-3c-5.192 0-9.338-4.02-9.338-8.655h-3zM12.838 198.5h115.324v-3H12.838v3zm115.324 0c6.662 0 12.338-5.182 12.338-11.655h-3c0 4.635-4.146 8.655-9.338 8.655v3zm12.338-11.655V31.828h-3v155.017h3zm0-155.017c0-6.472-5.676-11.655-12.338-11.655v3c5.192 0 9.338 4.02 9.338 8.655h3zm-12.338-11.655H92.261v3h35.901v-3zM34.849 35.246H17.915v3h16.934v-3zm-18.434 1.5v145.18h3V36.746h-3zm1.5 146.68H99.2v-3H17.915v3zm82.311-.405l23.708-22.214-2.051-2.189-23.708 22.214 2.051 2.189zm24.183-23.308V36.746h-3v122.967h3zm-1.5-124.467h-16.765v3h16.765v-3zM57.162 97.41l-12.7 12.694 2.12 2.122 12.7-12.694-2.12-2.122zm-10.6 12.674l-6.096-5.871-2.081 2.161 6.096 5.871 2.08-2.161zM41.13 77.192L56.2 63.072l-2.051-2.19-15.072 14.121 2.051 2.19zM56.2 75.004L41.13 60.882l-2.05 2.19 15.071 14.12 2.051-2.189zM41.13 150.182l15.072-14.121-2.051-2.19-15.072 14.122 2.051 2.189zm15.072-2.189L41.13 133.871l-2.05 2.19 15.071 14.121 2.051-2.189zM65.843 77.6h43.861v-3h-43.86v3zm0 35.857h43.861v-3h-43.86v3zm29.776 59.427v-17.93h-3v17.93h3zm-1.5-16.43h19.136v-3H94.119v3z" fill="#FF5D24"/></svg>