<svg width="32" height="32" fill="none" xmlns="http://www.w3.org/2000/svg"><mask id="a" maskUnits="userSpaceOnUse" x="0" y="0" width="32" height="32"><path fill-rule="evenodd" clip-rule="evenodd" d="M0 16C0 7.163 7.163 0 16 0s16 7.163 16 16-7.163 16-16 16S0 24.837 0 16z" fill="#fff"/></mask><g mask="url(#a)"><path d="M.5 16C.5 7.44 7.44.5 16 .5 24.56.5 31.5 7.44 31.5 16c0 8.56-6.94 15.5-15.5 15.5C7.44 31.5.5 24.56.5 16z" stroke="#fff"/><path fill-rule="evenodd" clip-rule="evenodd" d="M15.999 7.465c-2.318 0-2.608.01-3.519.051-.908.042-1.528.186-2.07.397a4.179 4.179 0 0 0-1.512.984c-.475.474-.767.95-.985 1.511-.212.543-.356 1.163-.397 2.071-.04.91-.051 1.202-.051 3.52 0 2.317.01 2.607.051 3.517.042.908.186 1.529.397 2.071.218.561.51 1.037.984 1.512.474.474.95.767 1.511.985.543.21 1.163.355 2.072.396.91.042 1.2.052 3.518.052 2.318 0 2.608-.01 3.518-.052.908-.041 1.529-.185 2.072-.396a4.175 4.175 0 0 0 1.51-.985 4.19 4.19 0 0 0 .986-1.512c.21-.542.353-1.163.396-2.07.04-.911.052-1.201.052-3.519 0-2.317-.011-2.608-.052-3.518-.043-.909-.187-1.529-.396-2.071a4.19 4.19 0 0 0-.985-1.512 4.17 4.17 0 0 0-1.512-.984c-.544-.211-1.164-.355-2.072-.397-.91-.041-1.2-.051-3.519-.051H16zm-.765 1.537H16c2.278 0 2.548.008 3.448.05.832.037 1.283.176 1.584.293.398.155.682.34.98.638.3.299.484.583.64.982.116.3.255.752.293 1.584.041.9.05 1.17.05 3.447s-.009 2.547-.05 3.447c-.038.832-.177 1.284-.294 1.584-.154.398-.34.682-.638.98a2.638 2.638 0 0 1-.98.638c-.301.118-.753.256-1.585.295-.9.04-1.17.05-3.448.05-2.28 0-2.55-.01-3.449-.05-.832-.039-1.283-.178-1.584-.295a2.643 2.643 0 0 1-.982-.638 2.644 2.644 0 0 1-.638-.98c-.117-.301-.256-.753-.294-1.585-.04-.9-.05-1.17-.05-3.448 0-2.28.01-2.548.05-3.447.038-.832.177-1.284.294-1.585.155-.398.34-.683.638-.981.3-.299.584-.484.982-.639.3-.117.752-.256 1.584-.294.788-.036 1.093-.046 2.683-.048v.002zm5.321 1.416a1.024 1.024 0 1 0 0 2.049 1.024 1.024 0 0 0 0-2.049zM16 11.618A4.382 4.382 0 1 0 16 20.381a4.382 4.382 0 0 0 0-8.765zm.002 1.534a2.845 2.845 0 1 1 0 5.69 2.845 2.845 0 0 1 0-5.69z" fill="#fff"/></g></svg>