<svg width="25" height="37" fill="none" xmlns="http://www.w3.org/2000/svg"><path d="M13.567 33.54c-.418.481-.781.88-1.068 1.188-.287-.307-.65-.707-1.069-1.189a51.814 51.814 0 0 1-3.935-5.152c-2.878-4.314-5.667-10.006-5.667-15.793 0-5.072 1.733-7.903 3.822-9.499C7.788 1.462 10.459 1 12.499 1c1.977 0 4.66.647 6.827 2.401 2.128 1.722 3.844 4.578 3.844 9.193 0 5.787-2.789 11.479-5.668 15.793a51.832 51.832 0 0 1-3.935 5.152zm-7.31-21.915c0 3.402 2.769 6.221 6.242 6.221 3.466 0 6.24-2.758 6.24-6.22 0-3.41-2.828-6.221-6.24-6.221-3.406 0-6.241 2.751-6.241 6.22z" stroke="#fff" stroke-width="2"/></svg>