<svg width="33" height="29" fill="none" xmlns="http://www.w3.org/2000/svg"><path d="M32.926 12.027l.01-.088c.017-.161.051-.461.061-.862a1.05 1.05 0 0 0-.071-.002v.952zm-.941-1.674c.016.268.018.511.012.722h-6.796c-.128-1.145-.48-2.096-1.018-2.872-.683-.99-1.613-1.619-2.573-2.017-1.775-.735-3.795-.73-4.913-.728h-.349c-1.118-.003-3.138-.007-4.912.728-.96.398-1.89 1.027-2.574 2.017-.537.776-.89 1.727-1.018 2.872H1.008a7.554 7.554 0 0 1 .001-.734 7.384 7.384 0 0 1 1.04-3.455C3.518 4.45 7.19 1.664 16.478 1.664c9.287 0 12.961 2.786 14.442 5.224a7.54 7.54 0 0 1 1.065 3.465z" stroke="#fff" stroke-width="2"/><path d="M21.87 15.014l.014.63.576.26c4.775 2.148 8.242 6.678 8.813 12.063H1.416c.575-5.47 4.127-10.078 9.064-12.189l.592-.253.015-.644c.045-1.992.267-3.452.964-4.427.634-.886 1.83-1.583 4.428-1.583 2.617 0 3.808.707 4.437 1.607.697.998.91 2.491.954 4.536z" stroke="#fff" stroke-width="2"/><path d="M19.811 21.364c0 1.807-1.483 3.29-3.335 3.29-1.852 0-3.335-1.483-3.335-3.29s1.483-3.29 3.335-3.29c1.852 0 3.335 1.483 3.335 3.29z" stroke="#fff" stroke-width="2"/></svg>