<svg width="163" height="192" fill="none" xmlns="http://www.w3.org/2000/svg"><path d="M148.138 2.562L150.375 2l6.151 26.402-1.304 2.06-27.029 6.367 19.945-34.267zM10.202 93.94v-9.362l10.997-19.1h23.487L28.096 93.94h19.759l16.59-28.462H87.93L71.34 93.94h22.555l16.403-28.462h23.486L117.196 93.94h21.809l16.403-28.462H161V190H10.015V93.94h.187zm22.181 14.044h106.435v67.785H32.383v-67.785zM10.202 56.49c4.473 0 8.201 3.745 8.201 8.24 0 4.493-3.728 8.238-8.201 8.238C5.728 72.968 2 69.223 2 64.73c0-4.494 3.728-8.239 8.202-8.239zM3.678 36.641l18.267-4.306L8.15 55.928 3.678 36.641zm41.008-9.737l27.028-6.366-19.759 34.267-27.028 6.366 19.759-34.267zm50.328-11.796L122.23 8.74l-19.945 34.267-27.215 6.366 19.945-34.266z" stroke="#FF5D24" stroke-width="3" stroke-miterlimit="10" stroke-linejoin="round"/><path d="M85.505 121.276c-11.37 0-20.504 9.175-20.504 20.597 0 11.423 9.134 20.598 20.504 20.598 11.37 0 20.504-9.175 20.504-20.598.187-11.422-9.133-20.597-20.504-20.597zm-6.338 31.645v-21.908l17.15 10.86-17.15 11.048z" stroke="#FF5D24" stroke-width="3" stroke-miterlimit="10" stroke-linejoin="round"/></svg>