<svg width="217" height="231" fill="none" xmlns="http://www.w3.org/2000/svg"><path d="M171.805 154.668a1.5 1.5 0 0 0 2.8-1.078l-2.8 1.078zm-8.955-14.967l-.98 1.137.017.014.017.014.946-1.165zm-11.628-6.209l-.421 1.44.036.01.036.009.349-1.459zm-29.976-8.766l.421-1.44-.028-.008-.027-.007-.366 1.455zm-1.817-.913l.835-1.246-.835 1.246zm-2.907-4.748l-1.489.182.006.043.007.042 1.476-.267zm-1.453-11.871l-.927-1.179-.665.523.103.839 1.489-.183zm17.622-27.759l-.155-1.492-1.026.107-.267.996 1.448.39zm1.664-29.389a1.5 1.5 0 0 0-.784 2.896l.784-2.896zm-84.475 3.26a1.5 1.5 0 1 0-.783-2.896l.783 2.896zm1.062 26.311l1.453-.373-.26-1.015-1.043-.105-.15 1.493zm17.622 27.759l1.49.182.102-.839-.664-.522-.928 1.179zm-1.453 11.87l-1.489-.182-.002.017-.002.017 1.493.148zm-2.907 4.749l-.835-1.246.835 1.246zm-1.817.913l-.365-1.455-.03.007-.028.009.423 1.439zm-29.794 8.766l.349 1.458.037-.008.037-.011-.423-1.439zm-11.628 6.209l.957 1.155.011-.009.012-.01-.98-1.136zM9.157 159.789l1.47.296.002-.009.001-.008-1.473-.279zM2.07 195.035l1.424.472.029-.086.018-.09-1.47-.296zm146.249 3.509a1.5 1.5 0 1 0 0-3v3zM132.467 51.78a1.5 1.5 0 1 0 2.996.153l-2.996-.153zm-84.48.142a1.5 1.5 0 0 0 2.997-.131l-2.997.13zm3.427-22.106a1.5 1.5 0 1 0 2.686 1.336l-2.686-1.336zm10.245-7.002l.477 1.422.02-.006.019-.007-.515-1.409zm18.713 2.192l.626-1.364-.011-.005-.011-.005-.604 1.374zm25.253 9.496l-.173 1.49.011.001.012.002.15-1.493zm26.12-2.866a1.5 1.5 0 0 0-1.371-2.668l1.371 2.668zM65.47 122.958a1.501 1.501 0 0 0-2.168 2.074l2.168-2.074zm25.265 30.746a1.5 1.5 0 1 0 2.168-2.074l-2.168 2.074zm29.775-28.668a1.5 1.5 0 1 0-2.16-2.081l2.16 2.081zm-29.775 26.59a1.5 1.5 0 0 0 2.16 2.082l-2.16-2.082zm91.527 60.941a1.5 1.5 0 0 0 3 0h-3zm3-33.785a1.5 1.5 0 1 0-3 0h3zm-18.211 15.3a1.5 1.5 0 1 0 0 3v-3zm33.428 3a1.5 1.5 0 0 0 0-3v3zM52.039 135.02a1.5 1.5 0 1 0-2.198 2.042l2.198-2.042zm39.778 45.033l-1.099 1.021 2.6 2.799v-3.82h-1.5zm0-.182l1.064-1.058-2.564-2.577v3.635h1.5zm.182.182l-1.063 1.058 1.1 1.107 1.062-1.144-1.1-1.021zm41.976-42.991a1.5 1.5 0 1 0-2.198-2.042l2.198 2.042zm40.63 16.528c-2.268-5.889-5.869-11.042-10.81-15.053l-1.891 2.329c4.506 3.659 7.809 8.368 9.901 13.802l2.8-1.078zm-10.776-15.025c-3.979-3.428-8.188-5.558-12.258-6.532l-.698 2.918c3.561.852 7.346 2.74 10.997 5.887l1.959-2.273zm-12.186-6.513l-29.976-8.766-.842 2.88 29.976 8.766.842-2.88zm-30.031-8.781c-.441-.11-.786-.327-1.348-.704l-1.67 2.492c.528.354 1.274.867 2.286 1.122l.732-2.91zm-1.348-.704c-1.226-.822-1.958-2.067-2.266-3.769l-2.952.534c.419 2.315 1.504 4.358 3.548 5.727l1.67-2.492zm-2.253-3.684l-1.453-11.871-2.978.365 1.453 11.87 2.978-.364zm-2.015-10.51c8.639-6.796 14.981-16.766 18.144-28.549l-2.897-.778c-3.014 11.229-9.026 20.617-17.101 26.969l1.854 2.358zm16.851-27.446c6.362-.661 10.792-7.5 10.792-15.554h-3c0 7.287-3.928 12.136-8.103 12.57l.311 2.984zm10.792-15.554c0-7.302-3.645-13.801-9.284-15.327l-.784 2.896c3.809 1.03 7.068 5.854 7.068 12.431h3zM49.097 50.41c-5.659 1.532-9.102 8.054-9.102 15.145h3c0-6.423 3.097-11.224 6.885-12.249l-.783-2.896zm-9.102 15.145c0 7.835 4.222 14.894 10.797 15.554l.3-2.984c-4.326-.435-8.097-5.43-8.097-12.57h-3zm9.494 14.435c2.983 11.62 9.515 21.773 18.148 28.565l1.855-2.358c-8.082-6.358-14.267-15.928-17.097-26.953l-2.906.746zm17.587 27.204l-1.454 11.87 2.978.365 1.453-11.871-2.977-.364zm-1.458 11.904c-.136 1.366-.974 2.796-2.249 3.651l1.67 2.492c1.995-1.337 3.337-3.56 3.565-5.846l-2.986-.297zm-2.249 3.651c-.562.376-.907.593-1.347.704l.731 2.91c1.013-.255 1.758-.769 2.286-1.122l-1.67-2.492zm-1.405.72l-29.795 8.766.847 2.878 29.795-8.766-.847-2.878zm-29.72 8.746c-4.07.974-8.279 3.103-12.258 6.532l1.959 2.272c3.651-3.146 7.436-5.034 10.997-5.887l-.698-2.917zm-12.235 6.512c-6.445 5.336-10.807 12.767-12.326 20.783l2.947.558c1.388-7.325 5.383-14.138 11.292-19.03l-1.913-2.311zM7.686 159.493L.601 194.74l2.94.591 7.086-35.246-2.941-.592zm-7.038 35.07c-.384 1.158.018 2.282.723 2.991l2.127-2.116a.034.034 0 0 1-.005-.006l.003.01a.113.113 0 0 1 .004.033.11.11 0 0 1-.005.032l-2.847-.944zm.723 2.991c.27.272.6.535 1.02.723.426.19.867.267 1.315.267v-3a.473.473 0 0 1-.088-.006c-.008-.002-.008-.002-.004 0 .011.005-.022-.006-.116-.1l-2.127 2.116zm2.335.99H148.32v-3H3.706v3zM133.965 51.856c1.498.077 1.498.076 1.498.075v-.003l.001-.01.001-.032.005-.118c.003-.102.008-.25.012-.44.008-.38.014-.934.005-1.633-.019-1.4-.096-3.39-.33-5.776-.469-4.762-1.57-11.142-4.113-17.544-2.544-6.406-6.554-12.889-12.87-17.772C111.839 3.706 103.287.5 91.816.5v3c10.875 0 18.765 3.026 24.523 7.477 5.777 4.465 9.51 10.446 11.917 16.505 2.407 6.061 3.464 12.145 3.915 16.731.225 2.289.299 4.193.316 5.52a45.367 45.367 0 0 1-.015 1.926l-.004.095-.001.022v.004l1.498.076zM91.816.5C80.39.5 71.85 3.707 65.508 8.603c-6.323 4.88-10.361 11.362-12.94 17.765-2.577 6.401-3.719 12.78-4.219 17.542a68.97 68.97 0 0 0-.37 5.774 48.315 48.315 0 0 0 .003 2.073 18.085 18.085 0 0 0 .005.15V51.92c0 .001 0 .002 1.499-.064l1.499-.064v-.005l-.001-.022-.004-.096-.008-.393c-.005-.35-.006-.868.007-1.532.027-1.327.113-3.232.354-5.521.481-4.586 1.577-10.672 4.018-16.735 2.44-6.06 6.203-12.043 11.99-16.51C73.109 6.524 80.988 3.5 91.816 3.5v-3zM54.1 31.152c1.632-3.279 4.58-5.758 8.036-6.916l-.953-2.844c-4.174 1.399-7.766 4.399-9.769 8.424l2.686 1.336zm8.075-6.929c5.42-1.981 11.853-.369 17.593 2.156l1.208-2.747c-5.887-2.588-13.261-4.628-19.831-2.227l1.03 2.818zm17.571 2.146c8.153 3.741 15.947 8.491 25.706 9.623l.346-2.98c-9.136-1.06-16.24-5.44-24.8-9.37l-1.252 2.727zm25.729 9.626c9.292.934 17.774.006 26.27-4.36l-1.371-2.668c-7.855 4.036-15.724 4.935-24.599 4.043l-.3 2.985zm-42.173 89.037l27.433 28.672 2.168-2.074-27.433-28.672-2.168 2.074zm55.048-2.077l-27.615 28.671 2.16 2.082 27.615-28.672-2.16-2.081zm95.15 72.625c0 17.636-14.221 31.92-31.747 31.92v3c19.198 0 34.747-15.642 34.747-34.92h-3zm-31.747 31.92c-17.525 0-31.746-14.284-31.746-31.92h-3c0 19.278 15.549 34.92 34.746 34.92v-3zm-31.746-31.92c0-17.637 14.221-31.92 31.746-31.92v-3c-19.197 0-34.746 15.641-34.746 34.92h3zm31.746-31.92c17.526 0 31.747 14.283 31.747 31.92h3c0-19.279-15.549-34.92-34.747-34.92v3zm3.509 48.907v-33.785h-3v33.785h3zm-18.211-15.485h33.428v-3h-33.428v3zm-117.21-60.02l40.877 44.012 2.198-2.041L52.04 135.02l-2.198 2.042zm43.476 42.991v-.182h-3v.182h3zm-2.563.876l.182.182 2.126-2.116-.181-.182-2.127 2.116zm2.344.145l40.877-44.012-2.198-2.042L90.9 179.033l2.198 2.041zm11.756-104.562c0 7.032-5.695 12.745-12.67 12.745v3c8.647 0 15.67-7.071 15.67-15.745h-3zm-12.67 12.745c-6.977 0-12.671-5.713-12.671-12.745h-3c0 8.674 7.022 15.745 15.67 15.745v-3z" fill="#F36E21"/></svg>