<svg width="32" height="32" fill="none" xmlns="http://www.w3.org/2000/svg"><path d="M.5 16C.5 7.44 7.44.5 16 .5 24.56.5 31.5 7.44 31.5 16c0 8.56-6.94 15.5-15.5 15.5C7.44 31.5.5 24.56.5 16z" stroke="#fff"/><path fill-rule="evenodd" clip-rule="evenodd" d="M16.835 21.252s.308-.034.466-.2c.144-.153.14-.44.14-.44s-.02-1.343.615-1.541c.626-.195 1.43 1.298 2.283 1.873.645.434 1.134.339 1.134.339l2.28-.031s1.192-.072.626-.992c-.046-.076-.33-.681-1.694-1.925-1.43-1.302-1.238-1.092.483-3.344 1.049-1.372 1.468-2.209 1.337-2.567-.125-.343-.896-.252-.896-.252l-2.566.016s-.19-.025-.331.057c-.138.081-.227.27-.227.27s-.406 1.062-.948 1.965c-1.143 1.904-1.6 2.005-1.786 1.887-.435-.276-.327-1.108-.327-1.699 0-1.846.286-2.615-.555-2.814-.278-.067-.484-.11-1.197-.118-.916-.009-1.69.004-2.13.214-.292.14-.517.453-.38.471.17.023.554.102.757.374.263.352.254 1.14.254 1.14s.151 2.173-.353 2.442c-.345.186-.82-.192-1.839-1.92-.522-.885-.916-1.863-.916-1.863s-.075-.183-.212-.282c-.164-.118-.394-.155-.394-.155l-2.438.015s-.366.01-.5.167c-.12.138-.01.426-.01.426s1.91 4.384 4.071 6.594c1.983 2.026 4.233 1.893 4.233 1.893h1.02z" fill="#fff"/></svg>