<svg xmlns="http://www.w3.org/2000/svg" xmlns:xlink="http://www.w3.org/1999/xlink" style="display:none"><symbol  id='icon-FB'>
    <use xlink:href="#path0_fillFB" fill="#3B5998"></use><use xlink:href="#path1_fillFB" transform="translate(16 10.9)" fill="#FFF"></use><defs><path id="path0_fillFB" d="M20 0C9 0 0 9 0 20s9 20 20 20 20-9 20-20S31 0 20 0z"></path><path id="path1_fillFB" d="M6.1 3.2H8V0H5.3C2.4 0 1.7 2.3 1.7 3.8v2.1H0v3.2h1.7v9h3.6v-9h2.4L8 6H5.3V4.1c0-.7.5-.9.8-.9z"></path></defs>
  </symbol><symbol  id='icon-GP'>
    <use xlink:href="#path0_fillGp" fill="#DD4B39"></use><g transform="translate(8.96 12.04)" fill="#FFF"><use xlink:href="#path1_fillGp"></use><use xlink:href="#path2_fillGp"></use></g><defs><path id="path0_fillGp" d="M20 0C9 0 0 9 0 20s9 20 20 20 20-9 20-20S31 0 20 0z"></path><path id="path1_fillGp" d="M13.638 13.86c1.1-1.2 1.8-2.8 1.9-4.5v-1.8l-.1-.6h-7.2v2.5h4.5v.3c-.1.7-.6 1.5-1.1 2-1.8 2-5.2 2-7.1 0-2-2.1-1.9-5.5 0-7.4 1.6-1.7 4.1-1.9 5.9-.8l.8.5 2-2-1.3-.9-1.1-.6c-2.9-1.1-6.2-.6-8.5 1.7-3.1 3.1-3.1 8.4-.1 11.5 3.1 3 8.4 3 11.4.1z"></path><path id="path2_fillGp" d="M22.738 9.06h2.3v-2.3h-2.3v-2.3h-2.3v2.3h-2.3v2.3h2.3v2.3h2.3v-2.3z"></path></defs>
  </symbol><symbol  id='icon-VK'>
    <use xlink:href="#path0_fillVk" fill="#4C75A3"></use><use xlink:href="#path1_fillVk" transform="translate(9.07 12.9)" fill="#FFF"></use><defs><path id="path0_fillVk" d="M20 0C9 0 0 9 0 20s9 20 20 20 20-9 20-20S31 0 20 0z"></path><path id="path1_fillVk" d="M18.633 14.1h2.4c.7 0 1-.4.8-1.3-.2-.7-1-1.8-2-3-.3-.4-.7-.8-1-1.1-.3-.3-.6-.6-.7-.8-.4-.4-.3-.7 0-1.1 0 0 2.9-4.4 3.2-5.9.2-.5 0-.9-.7-.9h-2.4c-.6 0-.8.3-1 .7 0 0-1.3 3.2-3 5.3-.5.6-.8.8-1.1.8-.2 0-.4-.2-.4-.7V1c0-.6-.2-.9-.7-.9h-3.8c-.4 0-.6.3-.6.6 0 .2.1.4.3.6.3.4.6.8.7 1.9V7c0 .8-.1 1-.4 1-.8 0-2.8-3.2-4-6.9-.3-.7-.5-1-1.1-1h-2.4c-.7 0-.8.3-.7.7 0 .7.8 4.1 3.8 8.6 1.9 3 4.8 4.7 7.3 4.7 1.5 0 1.7-.4 1.7-1v-2.3c0-.8.1-.9.6-.9.4 0 1 .2 2.4 1.7.4.5.8.9 1.1 1.3.7.8 1.1 1.2 1.7 1.2z"></path></defs>
  </symbol><symbol  id='icon-add'>
    <use xlink:href="#path0_fill" fill="#FFF"></use><use xlink:href="#path1_fill" transform="translate(8 6)" fill="#E0E0E0"></use><defs><path id="path0_fill" d="M24 12c0 6.627-5.373 12-12 12S0 18.627 0 12 5.373 0 12 0s12 5.373 12 12z"></path><path id="path1_fill" fill-rule="evenodd" d="M0 1a1 1 0 0 1 1-1h6a1 1 0 0 1 1 1v2a1 1 0 0 1-2 0V2H2v7a1 1 0 1 1-2 0V1zm7 5a1 1 0 0 1 1 1v1h1a1 1 0 1 1 0 2H8v1a1 1 0 1 1-2 0v-1H5a1 1 0 1 1 0-2h1V7a1 1 0 0 1 1-1z"></path></defs>
  </symbol><symbol  id='icon-arrow'>
    <g class="t-icon"><use xlink:href="#path0_fill"></use><use xlink:href="#path1_stroke" transform="translate(8 8)"></use></g><defs><path id="path0_fill" d="M24 12c0 6.627-5.373 12-12 12S0 18.627 0 12 5.373 0 12 0s12 5.373 12 12z"></path><path id="path1_stroke" d="M5 0a1 1 0 0 0-2 0h2zM4 8l-.707.707a1 1 0 0 0 1.414 0L4 8zM.707 3.293A1 1 0 0 0-.707 4.707L.707 3.293zm8 1.414a1 1 0 0 0-1.414-1.414l1.414 1.414zM3 0v8h2V0H3zM-.707 4.707l4 4 1.414-1.414-4-4-1.414 1.414zm8-1.414l-4 4 1.414 1.414 4-4-1.414-1.414z"></path></defs>
  </symbol><symbol  id='icon-arrowBig'>
    <use xlink:href="#path0_fill" fill="#FFF"></use><use xlink:href="#path1_stroke" transform="rotate(-90 12 4)" fill="#E0E0E0"></use><defs><path id="path0_fill" d="M0 12C0 5.373 5.373 0 12 0h28c6.627 0 12 5.373 12 12s-5.373 12-12 12H12C5.373 24 0 18.627 0 12z"></path><path id="path1_stroke" d="M5 0a1 1 0 0 0-2 0h2zM4 36l-.707.707a1 1 0 0 0 1.414 0L4 36zM.707 31.293a1 1 0 0 0-1.414 1.414l1.414-1.414zm8 1.414a1 1 0 1 0-1.414-1.414l1.414 1.414zM3 0v36h2V0H3zM-.707 32.707l4 4 1.414-1.414-4-4-1.414 1.414zm8-1.414l-4 4 1.414 1.414 4-4-1.414-1.414z"></path></defs>
  </symbol><symbol  id='icon-arrowSmall'>
    <use xlink:href="#path0_fill" fill="#FFF"></use><use xlink:href="#path1_stroke" transform="translate(8 8)" fill="#E0E0E0"></use><defs><path id="path0_fill" d="M24 12c0 6.627-5.373 12-12 12S0 18.627 0 12 5.373 0 12 0s12 5.373 12 12z"></path><path id="path1_stroke" d="M5 0a1 1 0 0 0-2 0h2zM4 8l-.707.707a1 1 0 0 0 1.414 0L4 8zM.707 3.293A1 1 0 0 0-.707 4.707L.707 3.293zm8 1.414a1 1 0 0 0-1.414-1.414l1.414 1.414zM3 0v8h2V0H3zM-.707 4.707l4 4 1.414-1.414-4-4-1.414 1.414zm8-1.414l-4 4 1.414 1.414 4-4-1.414-1.414z"></path></defs>
  </symbol><symbol  id='icon-back'>
    <use xlink:href="#path0_fill" fill="#FFF"></use><use xlink:href="#path1_stroke" transform="translate(7 8)" fill="#E0E0E0"></use><defs><path id="path0_fill" d="M24 12c0 6.627-5.373 12-12 12S0 18.627 0 12 5.373 0 12 0s12 5.373 12 12z"></path><path id="path1_stroke" d="M0 3l-.707-.707a1 1 0 0 0 0 1.414L0 3zM3.707.707A1 1 0 0 0 2.293-.707L3.707.707zm-1.414 6a1 1 0 0 0 1.414-1.414L2.293 6.707zM8 8a1 1 0 1 0 2 0H8zM0 4h6V2H0v2zm6-1v1h-.008H6l.058.003c.068.005.138.012.246.03.242.04.474.092.749.236C7.513 4.5 8 4.931 8 6h2c0-1.931-1.014-3-2.053-3.52a5.194 5.194 0 0 0-1.314-.42A5.192 5.192 0 0 0 6.025 2h-.024L6 3zm-5.293.707l3-3L2.293-.707l-3 3L.707 3.707zm-1.414 0l3 3 1.414-1.414-3-3-1.414 1.414zM8 6v2h2V6H8z"></path></defs>
  </symbol><symbol  id='icon-bigArrow'>
    <g class="t-icon"><use xlink:href="#path0_fill"></use><use xlink:href="#path1_stroke" transform="rotate(-90 12 4)"></use></g><defs><path id="path0_fill" d="M0 12C0 5.373 5.373 0 12 0h28c6.627 0 12 5.373 12 12s-5.373 12-12 12H12C5.373 24 0 18.627 0 12z"></path><path id="path1_stroke" d="M5 0a1 1 0 0 0-2 0h2zM4 36l-.707.707a1 1 0 0 0 1.414 0L4 36zM.707 31.293a1 1 0 0 0-1.414 1.414l1.414-1.414zm8 1.414a1 1 0 1 0-1.414-1.414l1.414 1.414zM3 0v36h2V0H3zM-.707 32.707l4 4 1.414-1.414-4-4-1.414 1.414zm8-1.414l-4 4 1.414 1.414 4-4-1.414-1.414z"></path></defs>
  </symbol><symbol  id='icon-closer'>
    <use xlink:href="#path0_fillCloser" class="t-svgBg" fill="#FFF"></use><use xlink:href="#path1_strokeCloser" transform="translate(9 9)" class="t-svgFigure" fill="#E0E0E0"></use><defs><path id="path0_fillCloser" d="M24 12c0 6.627-5.373 12-12 12S0 18.627 0 12 5.373 0 12 0s12 5.373 12 12z"></path><path id="path1_strokeCloser" d="M.707-.707A1 1 0 0 0-.707.707L.707-.707zm4.586 7.414a1 1 0 0 0 1.414-1.414L5.293 6.707zm-6-1.414A1 1 0 0 0 .707 6.707L-.707 5.293zM6.707.707A1 1 0 0 0 5.293-.707L6.707.707zm-7.414 0l6 6 1.414-1.414-6-6L-.707.707zm1.414 6l6-6L5.293-.707l-6 6L.707 6.707z"></path></defs>
  </symbol><symbol  id='icon-comments'>
    <use xlink:href="#path0_fill" fill="#FFF"></use><use xlink:href="#path1_fill" transform="translate(6 7)" fill="#E0E0E0"></use><defs><path id="path0_fill" d="M24 12c0 6.627-5.373 12-12 12S0 18.627 0 12 5.373 0 12 0s12 5.373 12 12z"></path><path id="path1_fill" fill-rule="evenodd" d="M0 1a1 1 0 0 1 1-1h10a1 1 0 0 1 1 1v7a1 1 0 0 1-1 1H8.414l-1.707 1.707a1 1 0 0 1-1.414 0L3.586 9H1a1 1 0 0 1-1-1V1zm2 1v5h2a1 1 0 0 1 .707.293L6 8.586l1.293-1.293A1 1 0 0 1 8 7h2V2H2z"></path></defs>
  </symbol><symbol  id='icon-edit'>
    <use xlink:href="#path0_fill" fill="#FFF"></use><use xlink:href="#path1_fill" transform="translate(8 8)" fill="#E0E0E0"></use><defs><path id="path0_fill" d="M24 12c0 6.627-5.373 12-12 12S0 18.627 0 12 5.373 0 12 0s12 5.373 12 12z"></path><path id="path1_fill" fill-rule="evenodd" d="M7.87.507a1 1 0 0 1-.163 1.2l-6 6A1 1 0 1 1 .293 6.293L3.74 2.846l-.497.124a1 1 0 1 1-.486-1.94l4-1A1 1 0 0 1 7.87.507z"></path></defs>
  </symbol><symbol  id='icon-favorites'>
    <use xlink:href="#path0_fill" fill="#FFF"></use><use xlink:href="#path1_stroke" transform="translate(9 8)" fill="#E0E0E0"></use><defs><path id="path0_fill" d="M24 12c0 6.627-5.373 12-12 12S0 18.627 0 12 5.373 0 12 0s12 5.373 12 12z"></path><path id="path1_stroke" d="M7 0a1 1 0 0 0-2 0h2zM6 8l-.555.832A1 1 0 0 0 7 8H6zM0 8h-1a1 1 0 0 0 1.555.832L0 8zm1-8a1 1 0 1 0-2 0h2zm2 6l.555-.832a1 1 0 0 0-1.11 0L3 6zm2-6v8h2V0H5zM1 8V0h-2v8h2zm5.555-.832l-3-2-1.11 1.664 3 2 1.11-1.664zm-4.11-2l-3 2 1.11 1.664 3-2-1.11-1.664z"></path></defs>
  </symbol><symbol  id='icon-filter'>
    <use xlink:href="#path0_fill" fill="#FFF"></use><use xlink:href="#path1_stroke" transform="translate(7 9)" fill="#E0E0E0"></use><defs><path id="path0_fill" d="M24 12c0 6.627-5.373 12-12 12S0 18.627 0 12 5.373 0 12 0s12 5.373 12 12z"></path><path id="path1_stroke" d="M10 0l.707.707A1 1 0 0 0 10-1v1zM0 0v-1A1 1 0 0 0-.707.707L0 0zm4 8a1 1 0 1 0 2 0H4zm6-9H0v2h10v-2zM-.707.707l5 5 1.414-1.414-5-5L-.707.707zM4 5v3h2V5H4zm1.707.707l5-5L9.293-.707l-5 5 1.414 1.414z"></path></defs>
  </symbol><symbol  id='icon-iconBold'>
    <use xlink:href="#path0_fillBold" class="t-svgBg" fill="#FFF"></use><use xlink:href="#path1_fillBold" class="t-svgFigure" transform="translate(8 6)" fill="#E0E0E0"></use><defs><path id="path0_fillBold" d="M24 12c0 6.627-5.373 12-12 12S0 18.627 0 12 5.373 0 12 0s12 5.373 12 12z"></path><path id="path1_fillBold" fill-rule="evenodd" d="M0 2a2 2 0 0 1 2-2h2.046C6.168 0 7.62 2.144 6.83 4.114l-.368.921A3 3 0 0 1 9 8v1a3 3 0 0 1-3 3H2a2 2 0 0 1-2-2V2zm4.323 3l.651-1.629A1 1 0 0 0 4.046 2H2v2a1 1 0 0 0 1 1h1.323zM3 7a1 1 0 0 0-1 1v1a1 1 0 0 0 1 1h3a1 1 0 0 0 1-1V8a1 1 0 0 0-1-1H3z"></path></defs>
  </symbol><symbol  id='icon-iconH1'>
    <use xlink:href="#path0_fillH1" class="t-svgBg" fill="#FFF"></use><use xlink:href="#path1_fillH1" class="t-svgFigure" transform="translate(7 6)" fill="#E0E0E0"></use><defs><path id="path0_fillH1" d="M24 12c0 6.627-5.373 12-12 12S0 18.627 0 12 5.373 0 12 0s12 5.373 12 12z"></path><path id="path1_fillH1" fill-rule="evenodd" d="M1 0a1 1 0 0 1 1 1v4h6V1a1 1 0 0 1 2 0v10a1 1 0 1 1-2 0V7H2v4a1 1 0 1 1-2 0V1a1 1 0 0 1 1-1z"></path></defs>
  </symbol><symbol  id='icon-iconH2'>
    <use xlink:href="#path0_fillH2" class="t-svgBg" fill="#FFF"></use><use xlink:href="#path1_fillH2" class="t-svgFigure" transform="translate(8 7)" fill="#E0E0E0"></use><defs><path id="path0_fillH2" d="M24 12c0 6.627-5.373 12-12 12S0 18.627 0 12 5.373 0 12 0s12 5.373 12 12z"></path><path id="path1_fillH2" fill-rule="evenodd" d="M1 0a1 1 0 0 1 1 1v3h4V1a1 1 0 0 1 2 0v8a1 1 0 1 1-2 0V6H2v3a1 1 0 1 1-2 0V1a1 1 0 0 1 1-1z"></path></defs>
  </symbol><symbol  id='icon-iconItalic'>
    <use xlink:href="#path0_fillItalic" class="t-svgBg" fill="#FFF"></use><use xlink:href="#path1_fillItalic" class="t-svgFigure" transform="translate(11 6)" fill="#E0E0E0"></use><defs><path id="path0_fillItalic" d="M24 12c0 6.627-5.373 12-12 12S0 18.627 0 12 5.373 0 12 0s12 5.373 12 12z"></path><path id="path1_fillItalic" fill-rule="evenodd" d="M1 2a1 1 0 1 0 0-2 1 1 0 0 0 0 2zm1 3a1 1 0 0 0-2 0v6a1 1 0 0 0 2 0V5z"></path></defs>
  </symbol><symbol  id='icon-iconLink'>
    <use xlink:href="#path0_fillLink" class="t-svgBg" fill="#FFF"></use><use xlink:href="#path1_fillLink" class="t-svgFigure" transform="translate(7 6)" fill="#E0E0E0"></use><defs><path id="path0_fillLink" d="M24 12c0 6.627-5.373 12-12 12S0 18.627 0 12 5.373 0 12 0s12 5.373 12 12z"></path><path id="path1_fillLink" fill-rule="evenodd" d="M8 3.5a1.5 1.5 0 1 0-3 0v.837c.725.344 1.313.93 1.66 1.655A1.5 1.5 0 0 0 8 4.5v-1zM7 7.964A3.5 3.5 0 0 0 10 4.5v-1a3.5 3.5 0 1 0-7 0v.536A3.5 3.5 0 0 0 0 7.5v1a3.5 3.5 0 1 0 7 0v-.536zM3.34 6.008c.347.724.935 1.31 1.66 1.655V8.5a1.5 1.5 0 1 1-3 0v-1a1.5 1.5 0 0 1 1.34-1.492z"></path></defs>
  </symbol><symbol  id='icon-iconPhoto'>
    <use xlink:href="#path0_fillCamera" class="t-svgBg" fill="#FFF"></use><use xlink:href="#path1_fillCamera" class="t-svgFigure" transform="translate(4 5)" fill="#E0E0E0"></use><defs><path id="path0_fillCamera" d="M24 12c0 6.627-5.373 12-12 12S0 18.627 0 12 5.373 0 12 0s12 5.373 12 12z"></path><path id="path1_fillCamera" fill-rule="evenodd" d="M5 0a1 1 0 0 0-.894.553L3.382 2H1a1 1 0 0 0-1 1v9a1 1 0 0 0 1 1h14a1 1 0 0 0 1-1V3a1 1 0 0 0-1-1h-2.382L11.894.553A1 1 0 0 0 11 0H5zm-.106 3.447L5.618 2h4.764l.724 1.447A1 1 0 0 0 12 4h2v7H2V4h2a1 1 0 0 0 .894-.553zM7 7a1 1 0 1 1 2 0 1 1 0 0 1-2 0zm1-3a3 3 0 1 0 0 6 3 3 0 0 0 0-6z"></path></defs>
  </symbol><symbol  id='icon-iconQuote'>
    <use xlink:href="#path0_fillQuote" class="t-svgBg" fill="#FFF"></use><use xlink:href="#path1_fillQuote" class="t-svgFigure" transform="translate(9 6)" fill="#E0E0E0"></use><defs><path id="path0_fillQuote" d="M24 12c0 6.627-5.373 12-12 12S0 18.627 0 12 5.373 0 12 0s12 5.373 12 12z"></path><path id="path1_fillQuote" fill-rule="evenodd" d="M2 1a1 1 0 0 0-2 0v5a1 1 0 0 0 2 0V1zm4 0a1 1 0 0 0-2 0v5a1 1 0 0 0 2 0V1z"></path></defs>
  </symbol><symbol  id='icon-iconVideo'>
    <use xlink:href="#path0_fillVideoLink" class="t-svgBg" fill="#FFF"></use><use xlink:href="#path1_fillVideoLink" class="t-svgFigure" transform="translate(4 6)" fill="#E0E0E0"></use><defs><path id="path0_fillVideoLink" d="M24 12c0 6.627-5.373 12-12 12S0 18.627 0 12 5.373 0 12 0s12 5.373 12 12z"></path><path id="path1_fillVideoLink" fill-rule="evenodd" d="M5.78 1.625A1 1 0 1 0 4.22.375l-4 5a1 1 0 0 0 0 1.25l4 5a1 1 0 1 0 1.56-1.25L2.28 6l3.5-4.375zm4.44 0a1 1 0 1 1 1.56-1.25l4 5a1 1 0 0 1 0 1.25l-4 5a1 1 0 1 1-1.56-1.25L13.72 6l-3.5-4.375z"></path></defs>
  </symbol><symbol  id='icon-like'>
    <use xlink:href="#path0_fill" fill="#FFF"></use><use xlink:href="#path1_stroke" transform="translate(6.85 7.93)" fill="#E0E0E0"></use><defs><path id="path0_fill" d="M24 12c0 6.627-5.373 12-12 12S0 18.627 0 12 5.373 0 12 0s12 5.373 12 12z"></path><path id="path1_stroke" d="M10.147 4.066l.97.243-.97-.243zm-5 5l-.391.92a1 1 0 0 0 .783 0l-.392-.92zm-5-5l-.97.243.97-.243zm5-2l-.928.371a1 1 0 0 0 1.857 0l-.929-.37zm-3-2l-.242-.97.242.97zm6 0l.243-.97-.243.97zm1.03 3.757c-.317 1.269-1.34 2.343-2.425 3.144A11.781 11.781 0 0 1 4.9 8.079a6.101 6.101 0 0 1-.142.065l-.004.002.392.92.393.92.002-.001.004-.002.014-.006a5.036 5.036 0 0 0 .197-.09 13.78 13.78 0 0 0 2.182-1.31c1.214-.896 2.691-2.322 3.178-4.268l-1.94-.486zm-4.03 5.243l.393-.92-.004-.002a3.079 3.079 0 0 1-.142-.065 11.785 11.785 0 0 1-1.85-1.113c-1.085-.8-2.108-1.874-2.427-3.143l-1.94.486c.489 1.946 1.966 3.371 3.179 4.267a13.784 13.784 0 0 0 2.181 1.31 8.056 8.056 0 0 0 .211.097l.005.002h.002l.392-.919zm-4.03-5.243c-.206-.822-.12-1.461.1-1.898.212-.421.59-.743 1.173-.889l-.485-1.94C.794-.626-.079.052-.569 1.026c-.482.956-.55 2.106-.254 3.283l1.94-.486zM2.39 1.036c.485-.12.88.08 1.26.507a3.495 3.495 0 0 1 .567.89l.003.008V2.44a.115.115 0 0 1-.001-.002l.928-.372c.929-.37.929-.371.929-.372l-.001-.002-.002-.004a1.532 1.532 0 0 0-.018-.044 5.473 5.473 0 0 0-.219-.443 5.49 5.49 0 0 0-.69-.987C4.525-.483 3.42-1.283 1.904-.904l.485 1.94zm2.757 1.03c.929.372.929.372.928.373a.06.06 0 0 1 0 .001v.002h-.001a.705.705 0 0 1 .027-.061 3.502 3.502 0 0 1 .544-.838c.38-.428.776-.628 1.26-.507l.485-1.94C6.875-1.283 5.77-.483 5.15.214a5.498 5.498 0 0 0-.928 1.473l-.002.004v.002c0 .001-.001.001.927.373zm2.758-1.03c.583.146.96.468 1.172.889.22.437.306 1.076.1 1.898l1.94.486c.295-1.178.228-2.327-.253-3.284C10.374.052 9.5-.626 8.39-.904l-.485 1.94z"></path></defs>
  </symbol><symbol  id='icon-minus'>
    <g class="t-icon"><use xlink:href="#path0_fill"></use><use xlink:href="#path1_fill" transform="translate(7 11)"></use></g><defs><path id="path0_fill" d="M24 12c0 6.627-5.373 12-12 12S0 18.627 0 12 5.373 0 12 0s12 5.373 12 12z"></path><path id="path1_fill" d="M9 0a1 1 0 1 1 0 2H1a1 1 0 0 1 0-2h8z"></path></defs>
  </symbol><symbol  id='icon-more'>
    <g class="t-icon"><use xlink:href="#path0_fill"></use><use xlink:href="#path1_fill" transform="translate(7 11)"></use></g><defs><path id="path0_fill" d="M24 12c0 6.627-5.373 12-12 12S0 18.627 0 12 5.373 0 12 0s12 5.373 12 12z"></path><path id="path1_fill" fill-rule="evenodd" d="M2 1a1.001 1.001 0 0 1-2 0 1.001 1.001 0 0 1 2 0zm4 0a1.001 1.001 0 0 1-2 0 1.001 1.001 0 0 1 2 0zm3 1a1.001 1.001 0 0 0 0-2 1.001 1.001 0 0 0 0 2z"></path></defs>
  </symbol><symbol  id='icon-plus'>
    <use xlink:href="#path0_fill" fill="#FFF"></use><use xlink:href="#path1_fill" transform="translate(7 7)" fill="#E0E0E0"></use><defs><path id="path0_fill" d="M24 12c0 6.627-5.373 12-12 12S0 18.627 0 12 5.373 0 12 0s12 5.373 12 12z"></path><path id="path1_fill" fill-rule="evenodd" d="M5 0c-.55 0-1 .448-1 1v3H1a1.001 1.001 0 0 0 0 2h3v3a1.001 1.001 0 0 0 2 0V6h3a1.001 1.001 0 0 0 0-2H6V1c0-.552-.45-1-1-1z"></path></defs>
  </symbol><symbol  id='icon-profile'>
    <use xlink:href="#path0_fill" fill="#FFF"></use><use xlink:href="#path1_fill" transform="translate(7 6)" fill="#E0E0E0"></use><defs><path id="path0_fill" d="M24 12c0 6.627-5.373 12-12 12S0 18.627 0 12 5.373 0 12 0s12 5.373 12 12z"></path><path id="path1_fill" fill-rule="evenodd" d="M7.005 4a2 2 0 1 1-3.999.001 2 2 0 0 1 4-.001zm.914 2.742A3.979 3.979 0 0 0 9.005 4a4 4 0 1 0-8 0c0 1.062.41 2.026 1.086 2.742a5.991 5.991 0 0 0-1.89 1.66 1 1 0 1 0 1.601 1.2A3.986 3.986 0 0 1 5.002 8c1.312 0 2.472.627 3.202 1.602.332.442.961.531 1.403.2a1 1 0 0 0 .199-1.4 6.082 6.082 0 0 0-1.887-1.66z"></path></defs>
  </symbol><symbol  id='icon-search'>
    <use xlink:href="#path0_fill" fill="#FFF"></use><use xlink:href="#path1_fill" transform="translate(7 6)" fill="#E0E0E0"></use><defs><path id="path0_fill" d="M24 12c0 6.627-5.373 12-12 12S0 18.627 0 12 5.373 0 12 0s12 5.373 12 12z"></path><path id="path1_fill" fill-rule="evenodd" d="M9 5a3 3 0 1 1-6 0 3 3 0 0 1 6 0zm2 0a5 5 0 0 1-7.758 4.171l-1.535 1.536A1 1 0 1 1 .293 9.293l1.535-1.536A5 5 0 1 1 11 5z"></path></defs>
  </symbol><symbol  id='icon-share'>
    <use xlink:href="#path0_fill" fill="#FFF"></use><use xlink:href="#path1_stroke" transform="translate(8 8)" fill="#E0E0E0"></use><defs><path id="path0_fill" d="M24 12c0 6.627-5.373 12-12 12S0 18.627 0 12 5.373 0 12 0s12 5.373 12 12z"></path><path id="path1_stroke" d="M4 0l.707-.707a1 1 0 0 0-1.414 0L4 0zM3 5a1 1 0 0 0 2 0H3zM1 5a1 1 0 0 0-2 0h2zM0 8h-1a1 1 0 0 0 1 1V8zm8 0v1a1 1 0 0 0 1-1H8zm1-3a1 1 0 1 0-2 0h2zM1.293 1.293a1 1 0 0 0 1.414 1.414L1.293 1.293zm4 1.414a1 1 0 0 0 1.414-1.414L5.293 2.707zM3 0v5h2V0H3zm-4 5v3h2V5h-2zm1 4h8V7H0v2zm9-1V5H7v3h2zM2.707 2.707l2-2L3.293-.707l-2 2 1.414 1.414zm4-1.414l-2-2L3.293.707l2 2 1.414-1.414z"></path></defs>
  </symbol><symbol  id='icon-time'>
    <use xlink:href="#path0_fill" fill="#FFF"></use><use xlink:href="#path1_fill" transform="translate(6 6)" fill="#E0E0E0"></use><defs><path id="path0_fill" d="M24 12c0 6.627-5.373 12-12 12S0 18.627 0 12 5.373 0 12 0s12 5.373 12 12z"></path><path id="path1_fill" fill-rule="evenodd" d="M2 6c0-2.21 1.79-4 4-4s4 1.79 4 4-1.79 4-4 4-4-1.79-4-4zm4-6a6 6 0 1 0 .002 12.002A6 6 0 0 0 6 0zm1 4a1.001 1.001 0 0 0-2 0v2a1 1 0 0 0 .293.707l1 1a1 1 0 1 0 1.414-1.414L7 5.586V4z"></path></defs>
  </symbol><symbol  id='icon-views'>
    <use xlink:href="#path0_fill" fill="#FFF"></use><use xlink:href="#path1_fill" transform="translate(5.34 7)" fill="#E0E0E0"></use><defs><path id="path0_fill" d="M24 12c0 6.627-5.373 12-12 12S0 18.627 0 12 5.373 0 12 0s12 5.373 12 12z"></path><path id="path1_fill" fill-rule="evenodd" d="M2.871 3.735a5.02 5.02 0 0 0-.93 1.598.998.998 0 1 1-1.883-.666 7.002 7.002 0 0 1 13.204 0 1.001 1.001 0 0 1-1.887.666 5.006 5.006 0 0 0-.914-1.58A3.999 3.999 0 0 1 6.66 9c-2.212 0-4-1.79-4-4 0-.44.077-.87.21-1.265zM8.661 5a2 2 0 1 1-4 .001 2 2 0 0 1 4-.001z"></path></defs>
  </symbol><symbol  id='icon-Ñomments'>
    <use xlink:href="#path0_fill"></use><use xlink:href="#path1_fill" transform="translate(6 7)"></use><defs><path id="path0_fill" d="M24 12c0 6.627-5.373 12-12 12S0 18.627 0 12 5.373 0 12 0s12 5.373 12 12z"></path><path id="path1_fill" fill-rule="evenodd" d="M0 1a1 1 0 0 1 1-1h10a1 1 0 0 1 1 1v7a1 1 0 0 1-1 1H8.414l-1.707 1.707a1 1 0 0 1-1.414 0L3.586 9H1a1 1 0 0 1-1-1V1zm2 1v5h2a1 1 0 0 1 .707.293L6 8.586l1.293-1.293A1 1 0 0 1 8 7h2V2H2z"></path></defs>
  </symbol></svg>