<?xml version="1.0" encoding="utf-8"?>
<!-- Generated by IcoMoon.io -->
<!DOCTYPE svg PUBLIC "-//W3C//DTD SVG 1.1//EN" "http://www.w3.org/Graphics/SVG/1.1/DTD/svg11.dtd">
<svg version="1.1" xmlns="http://www.w3.org/2000/svg" xmlns:xlink="http://www.w3.org/1999/xlink" width="32" height="32" viewBox="0 0 32 32">
<path d="M16 16l-11.936-4.768 0.736 17.568h-3.2l0.768-18.256-2.368-0.944 16-6.4 16 6.4zM16 8c-0.88 0-1.6 0.352-1.6 0.8s0.72 0.8 1.6 0.8 1.6-0.352 1.6-0.8-0.72-0.8-1.6-0.8zM16 17.6l8.912-3.568c1.126 1.47 1.901 3.265 2.169 5.222-0.474-0.006-0.97-0.054-1.482-0.054-4.080 0-7.648 2.192-9.6 5.456-1.952-3.264-5.52-5.456-9.6-5.456-0.512 0-1.008 0.048-1.488 0.112 0.275-2.015 1.050-3.81 2.196-5.307z"></path>
</svg>
