<svg width="16" height="14" viewBox="0 0 16 14" version="1.1" xmlns="http://www.w3.org/2000/svg" xmlns:xlink="http://www.w3.org/1999/xlink">
<title>cart</title>
<desc>Created using Figma</desc>
<g id="Canvas" transform="translate(1708 5098)">
<g id="cart">
<use xlink:href="#path0_fill" transform="translate(-1707 -5097)" fill="#FFFFFF"/>
<use xlink:href="#path1_stroke" transform="translate(-1707 -5097)" fill="#FFFFFF"/>
</g>
</g>
<defs>
<path id="path0_fill" fill-rule="evenodd" d="M 0 0.655462C 0 0.293486 0.313427 0 0.699998 0L 2.79999 0C 3.08625 0 3.34362 0.163225 3.44992 0.412064L 3.91425 1.49895C 4.24391 1.41526 4.69508 1.30948 5.19735 1.21315C 6.26307 1.00928 7.67639 0.824449 8.85422 0.990554C 9.79877 1.13122 10.8007 0.979993 11.6458 0.785242C 12.0613 0.690348 12.4027 0.589212 12.6565 0.507439C 12.7803 0.467593 12.8731 0.435428 12.9407 0.411264C 12.973 0.399742 12.9956 0.391421 13.0125 0.38502L 13.0289 0.378779L 13.0318 0.377819C 13.2576 0.290125 13.5155 0.31893 13.7125 0.453671C 13.9099 0.588412 14.0179 0.809726 13.9976 1.0376L 13.6476 4.97038C 13.631 5.15696 13.53 5.32803 13.37 5.44037L 12.95 4.91597C 13.37 5.44037 13.3697 5.44053 13.3681 5.44165L 13.3658 5.44325L 13.3594 5.44757L 13.3406 5.46037C 13.3275 5.46917 13.3044 5.48438 13.2783 5.50086C 13.2307 5.53094 13.1518 5.57911 13.0585 5.6316C 12.8821 5.73065 12.5994 5.8742 12.2631 6.01006C 11.6137 6.26946 10.6017 6.54774 9.44997 6.55462C 8.45329 6.5527 7.38433 6.70841 6.52471 6.86955C 6.25281 6.92044 6.00962 6.97085 5.80215 7.01629L 5.91409 7.33058C 6.03628 7.674 5.83804 8.04509 5.4713 8.15967C 5.10455 8.27409 4.70824 8.08846 4.58587 7.74505L 4.23588 6.76185C 4.22887 6.74217 4.22289 6.72217 4.21793 6.702C 3.93082 5.5335 3.39455 4.04927 3.02267 3.02015L 3.0213 3.01647L 2.98781 2.92398C 2.93517 2.77835 2.88629 2.64281 2.84237 2.51975L 2.32609 1.31092L 0.699998 1.31092C 0.313427 1.31092 0 1.01744 0 0.655462ZM 4.3972 2.73483C 4.70362 3.58408 5.11036 4.7233 5.40721 5.75674C 5.64322 5.70441 5.93135 5.64392 6.25025 5.58423C 7.14063 5.41764 8.34665 5.24562 9.44997 5.2437C 10.3983 5.25058 11.1362 5.03727 11.7118 4.80507C 11.9545 4.70841 12.1373 4.61768 12.2811 4.53927L 12.5138 1.92414C 12.3487 1.96895 12.1688 2.01487 11.9791 2.05856C 11.0742 2.26563 9.80117 2.44214 8.64572 2.28676C 7.72356 2.15682 6.51189 2.29972 5.47762 2.49751C 5.06148 2.57704 4.69354 2.66137 4.3972 2.73483ZM 6.99998 11.0168C 6.99998 11.5598 6.52984 12 5.94998 12C 5.37012 12 4.89998 11.5598 4.89998 11.0168C 4.89998 10.4738 5.37012 10.0336 5.94998 10.0336C 6.52984 10.0336 6.99998 10.4738 6.99998 11.0168ZM 11.2 11.0168C 11.2 11.5598 11.6701 12 12.25 12C 12.8298 12 13.3 11.5598 13.3 11.0168C 13.3 10.4738 12.8298 10.0336 12.25 10.0336C 11.6701 10.0336 11.2 10.4738 11.2 11.0168Z"/>
<path id="path1_stroke" d="M 3.44992 0.412064L 2.99011 0.608483L 2.99012 0.608495L 3.44992 0.412064ZM 3.91425 1.49895L 3.45445 1.69538L 3.62255 2.08887L 4.03728 1.98358L 3.91425 1.49895ZM 5.19735 1.21315L 5.1034 0.722054L 5.10316 0.7221L 5.19735 1.21315ZM 8.85422 0.990554L 8.92787 0.495993L 8.92404 0.495454L 8.85422 0.990554ZM 11.6458 0.785242L 11.5345 0.297796L 11.5336 0.298013L 11.6458 0.785242ZM 12.6565 0.507439L 12.5033 0.0315099L 12.5032 0.0315339L 12.6565 0.507439ZM 12.9407 0.411264L 12.7727 -0.0596706L 12.7726 -0.0596202L 12.9407 0.411264ZM 13.0125 0.38502L 13.1894 0.852671L 13.1903 0.852347L 13.0125 0.38502ZM 13.0289 0.378779L 12.872 -0.0959718L 12.8615 -0.0924917L 12.8511 -0.088548L 13.0289 0.378779ZM 13.0318 0.377819L 13.1887 0.85257L 13.2009 0.848541L 13.2129 0.843891L 13.0318 0.377819ZM 13.7125 0.453671L 13.4303 0.866402L 13.4306 0.86663L 13.7125 0.453671ZM 13.9976 1.0376L 13.4995 0.993156L 13.4995 0.993279L 13.9976 1.0376ZM 13.6476 4.97038L 13.1495 4.92605L 13.1495 4.92613L 13.6476 4.97038ZM 13.37 5.44037L 12.9798 5.75296L 13.2733 6.11931L 13.6574 5.84954L 13.37 5.44037ZM 13.3681 5.44165L 13.6461 5.85726L 13.6544 5.8517L 13.6625 5.84582L 13.3681 5.44165ZM 13.3658 5.44325L 13.0878 5.02762L 13.0837 5.03041L 13.3658 5.44325ZM 13.3594 5.44757L 13.6409 5.86084L 13.6415 5.86041L 13.3594 5.44757ZM 13.3406 5.46037L 13.6186 5.87599L 13.6221 5.87364L 13.3406 5.46037ZM 13.2783 5.50086L 13.0116 5.07788L 13.0108 5.07843L 13.2783 5.50086ZM 13.0585 5.6316L 13.3033 6.06754L 13.3036 6.06738L 13.0585 5.6316ZM 12.2631 6.01006L 12.4486 6.47439L 12.4504 6.47366L 12.2631 6.01006ZM 9.44997 6.55462L 9.44901 7.05464L 9.45296 7.05461L 9.44997 6.55462ZM 6.52471 6.86955L 6.61669 7.36102L 6.61684 7.36099L 6.52471 6.86955ZM 5.80215 7.01629L 5.69516 6.52788L 5.14069 6.64933L 5.33114 7.18405L 5.80215 7.01629ZM 5.91409 7.33058L 6.38516 7.16297L 6.38511 7.16282L 5.91409 7.33058ZM 5.4713 8.15967L 5.62021 8.63698L 5.6204 8.63692L 5.4713 8.15967ZM 4.58587 7.74505L 4.11483 7.91273L 4.11488 7.91287L 4.58587 7.74505ZM 4.23588 6.76185L 4.70692 6.59417L 4.70692 6.59417L 4.23588 6.76185ZM 4.21793 6.702L 3.73237 6.82131L 3.73238 6.82135L 4.21793 6.702ZM 3.02267 3.02015L 3.49293 2.85022L 3.49137 2.84603L 3.02267 3.02015ZM 3.0213 3.01647L 2.55117 3.18673L 2.5526 3.19059L 3.0213 3.01647ZM 2.98781 2.92398L 2.51758 3.09394L 2.51769 3.09423L 2.98781 2.92398ZM 2.84237 2.51975L 3.31328 2.35168L 3.30817 2.33736L 3.30219 2.32337L 2.84237 2.51975ZM 2.32609 1.31092L 2.78591 1.11454L 2.65624 0.810924L 2.32609 0.810924L 2.32609 1.31092ZM 5.40721 5.75674L 4.92664 5.89478L 5.05644 6.34665L 5.51544 6.24488L 5.40721 5.75674ZM 4.3972 2.73483L 4.27691 2.24951L 3.73868 2.38292L 3.92688 2.90452L 4.3972 2.73483ZM 6.25025 5.58423L 6.1583 5.09276L 6.15826 5.09277L 6.25025 5.58423ZM 9.44997 5.2437L 9.4536 4.74369L 9.4491 4.7437L 9.44997 5.2437ZM 11.7118 4.80507L 11.5268 4.34055L 11.5247 4.34138L 11.7118 4.80507ZM 12.2811 4.53927L 12.5205 4.97819L 12.7554 4.85007L 12.7791 4.5836L 12.2811 4.53927ZM 12.5138 1.92414L 13.0119 1.96847L 13.0755 1.25361L 12.3829 1.4416L 12.5138 1.92414ZM 11.9791 2.05856L 12.0906 2.54596L 12.0913 2.54581L 11.9791 2.05856ZM 8.64572 2.28676L 8.57596 2.78188L 8.57908 2.7823L 8.64572 2.28676ZM 5.47762 2.49751L 5.57148 2.98862L 5.57154 2.98861L 5.47762 2.49751ZM 0.699998 -0.5C 0.0687535 -0.5 -0.5 -0.0131088 -0.5 0.655462L 0.5 0.655462C 0.5 0.60008 0.5581 0.5 0.699998 0.5L 0.699998 -0.5ZM 2.79999 -0.5L 0.699998 -0.5L 0.699998 0.5L 2.79999 0.5L 2.79999 -0.5ZM 3.90972 0.215646C 3.71906 -0.230685 3.27153 -0.5 2.79999 -0.5L 2.79999 0.5C 2.90096 0.5 2.96818 0.557136 2.99011 0.608483L 3.90972 0.215646ZM 4.37404 1.30252L 3.90971 0.215634L 2.99012 0.608495L 3.45445 1.69538L 4.37404 1.30252ZM 5.10316 0.7221C 4.5909 0.820458 4.12532 0.929527 3.79121 1.01433L 4.03728 1.98358C 4.36249 1.90099 4.79926 1.79851 5.29153 1.7042L 5.10316 0.7221ZM 8.92404 0.495454C 7.67891 0.324455 6.18364 0.515626 5.1034 0.722054L 5.29129 1.70424C 6.34249 1.50293 7.67388 1.32444 8.7844 1.48566L 8.92404 0.495454ZM 11.5336 0.298013C 10.7072 0.488816 9.79828 0.631217 8.92787 0.496008L 8.78057 1.4851C 9.79926 1.63122 10.8943 1.47117 11.7581 1.27247L 11.5336 0.298013ZM 12.5032 0.0315339C 12.2551 0.111519 11.9346 0.206675 11.5345 0.297796L 11.7572 1.27269C 12.188 1.17402 12.5504 1.0669 12.8099 0.983344L 12.5032 0.0315339ZM 12.7726 -0.0596202C 12.7071 -0.0362324 12.6217 -0.00661366 12.5033 0.0315099L 12.8098 0.983368C 12.9388 0.941799 13.039 0.907088 13.1089 0.882148L 12.7726 -0.0596202ZM 12.8356 -0.0826299C 12.8206 -0.0769594 12.8025 -0.0702833 12.7727 -0.0596706L 13.1087 0.882199C 13.1435 0.869768 13.1706 0.859801 13.1894 0.85267L 12.8356 -0.0826299ZM 12.8511 -0.088548L 12.8347 -0.082307L 13.1903 0.852347L 13.2067 0.846106L 12.8511 -0.088548ZM 12.8749 -0.096932L 12.872 -0.0959718L 13.1858 0.85353L 13.1887 0.85257L 12.8749 -0.096932ZM 13.9947 0.0409395C 13.6593 -0.188436 13.2278 -0.234695 12.8508 -0.0882534L 13.2129 0.843891C 13.2874 0.814945 13.3716 0.826296 13.4303 0.866402L 13.9947 0.0409395ZM 14.4956 1.08205C 14.5329 0.664149 14.3331 0.271947 13.9944 0.0407119L 13.4306 0.86663C 13.4866 0.904877 13.5029 0.955303 13.4995 0.993156L 14.4956 1.08205ZM 14.1456 5.0147L 14.4956 1.08192L 13.4995 0.993279L 13.1495 4.92605L 14.1456 5.0147ZM 13.6574 5.84954C 13.9319 5.65673 14.1154 5.35507 14.1456 5.01462L 13.1495 4.92613C 13.1466 4.95886 13.128 4.99933 13.0827 5.03119L 13.6574 5.84954ZM 12.5597 5.22856L 12.9798 5.75296L 13.7603 5.12777L 13.3402 4.60337L 12.5597 5.22856ZM 13.6625 5.84582C 13.6627 5.84568 13.7284 5.78836 13.7837 5.71983C 13.8569 5.6105 13.8742 5.49343 13.8667 5.40066C 13.8604 5.32381 13.8376 5.26709 13.8281 5.2447C 13.8207 5.22809 13.8063 5.19988 13.7995 5.18793C 13.7882 5.16944 13.7701 5.14301 13.7616 5.13155C 13.7525 5.11958 13.7358 5.09817 13.7086 5.06398C 13.6559 4.99759 13.5503 4.86568 13.3402 4.60337L 12.5597 5.22856C 12.7697 5.49066 12.874 5.62103 12.9257 5.6861C 12.9508 5.71764 12.967 5.73878 12.9635 5.73402C 12.9637 5.73434 12.9568 5.72483 12.9584 5.72711C 12.9568 5.72482 12.9472 5.71135 12.9362 5.69256C 12.9307 5.68317 12.9196 5.6635 12.9083 5.63715C 12.8989 5.61511 12.8762 5.55864 12.87 5.48198C 12.8624 5.3894 12.8797 5.27246 12.9529 5.16323C 13.0104 5.07731 13.0867 5.0281 13.0738 5.03748L 13.6625 5.84582ZM 13.6437 5.85886L 13.6461 5.85726L 13.0902 5.02604L 13.0878 5.02764L 13.6437 5.85886ZM 13.6415 5.86041L 13.6478 5.85609L 13.0837 5.03041L 13.0774 5.03473L 13.6415 5.86041ZM 13.6221 5.87364L 13.6409 5.86084L 13.078 5.0343L 13.0592 5.0471L 13.6221 5.87364ZM 13.5449 5.92383C 13.5753 5.90464 13.604 5.88573 13.6186 5.87598L 13.0627 5.04476C 13.0509 5.05261 13.0335 5.06411 13.0116 5.07788L 13.5449 5.92383ZM 13.3036 6.06738C 13.4046 6.01049 13.4947 5.95559 13.5458 5.92329L 13.0108 5.07843C 12.9668 5.10629 12.899 5.14773 12.8133 5.19581L 13.3036 6.06738ZM 12.4504 6.47366C 12.8065 6.32932 13.1178 6.17163 13.3033 6.06754L 12.8136 5.19565C 12.6464 5.28968 12.3924 5.41907 12.0758 5.54645L 12.4504 6.47366ZM 9.45296 7.05461C 10.67 7.04305 11.773 6.74341 12.4486 6.47439L 12.0776 5.54573C 11.4544 5.7955 10.5333 6.05244 9.44698 6.05463L 9.45296 7.05461ZM 6.61684 7.36099C 7.46644 7.20162 8.48894 7.05143 9.44901 7.05462L 9.45093 6.05462C 8.41765 6.05397 7.30221 6.21519 6.43258 6.37811L 6.61684 7.36099ZM 5.90914 7.50471C 6.11386 7.45986 6.34955 7.41099 6.61669 7.36102L 6.43273 6.37808C 6.15608 6.42989 5.90539 6.48183 5.69516 6.52788L 5.90914 7.50471ZM 6.38511 7.16282L 6.27317 6.84854L 5.33114 7.18405L 5.44308 7.49834L 6.38511 7.16282ZM 5.6204 8.63692C 6.23246 8.44571 6.61124 7.79834 6.38516 7.16297L 5.44302 7.4982C 5.45464 7.53084 5.45211 7.56337 5.43501 7.59538C 5.4174 7.62836 5.38172 7.66382 5.3222 7.68242L 5.6204 8.63692ZM 4.11488 7.91287C 4.335 8.53065 5.01967 8.82434 5.62021 8.63698L 5.32238 7.68236C 5.18943 7.72384 5.08147 7.64627 5.05687 7.57723L 4.11488 7.91287ZM 3.76483 6.92954L 4.11483 7.91273L 5.05692 7.57736L 4.70692 6.59417L 3.76483 6.92954ZM 3.73238 6.82135C 3.74044 6.8535 3.75367 6.89769 3.76483 6.92954L 4.70692 6.59417C 4.70407 6.58665 4.70533 6.59083 4.70348 6.58266L 3.73238 6.82135ZM 2.55243 3.19007C 2.9243 4.21919 3.45225 5.67831 3.73237 6.82131L 4.70349 6.5827C 4.40939 5.38869 3.86479 3.87936 3.49291 2.85023L 2.55243 3.19007ZM 2.5526 3.19059L 2.55397 3.19427L 3.49137 2.84603L 3.49001 2.84235L 2.5526 3.19059ZM 2.51769 3.09423L 2.55118 3.18672L 3.49143 2.84622L 3.45793 2.75373L 2.51769 3.09423ZM 2.37147 2.68782C 2.41566 2.81165 2.46488 2.94814 2.51758 3.09394L 3.45803 2.75401C 3.40546 2.60856 3.35692 2.47397 3.31328 2.35168L 2.37147 2.68782ZM 1.86627 1.50731L 2.38256 2.71614L 3.30219 2.32337L 2.78591 1.11454L 1.86627 1.50731ZM 0.699998 1.81092L 2.32609 1.81092L 2.32609 0.810924L 0.699998 0.810924L 0.699998 1.81092ZM -0.5 0.655462C -0.5 1.32403 0.0687535 1.81092 0.699998 1.81092L 0.699998 0.810924C 0.5581 0.810924 0.5 0.710844 0.5 0.655462L -0.5 0.655462ZM 5.88778 5.6187C 5.58633 4.57014 5.17423 3.41517 4.86753 2.56513L 3.92688 2.90452C 4.23302 3.75299 4.63439 4.87645 4.92664 5.89478L 5.88778 5.6187ZM 6.15826 5.09277C 5.83399 5.15349 5.53774 5.21566 5.29898 5.26859L 5.51544 6.24488C 5.7487 6.19316 6.02872 6.13435 6.34224 6.0757L 6.15826 5.09277ZM 9.4491 4.7437C 8.31083 4.7469 7.05933 4.9243 6.1583 5.09276L 6.3422 6.0757C 7.22192 5.91099 8.38248 5.74433 9.45084 5.7437L 9.4491 4.7437ZM 11.5247 4.34138C 10.9731 4.56464 10.33 4.75527 9.4536 4.74371L 9.44634 5.74368C 10.4666 5.74589 11.2994 5.50989 11.8989 5.26876L 11.5247 4.34138ZM 12.0416 4.10034C 11.9064 4.17419 11.7507 4.25183 11.5268 4.34056L 11.8968 5.26958C 12.1583 5.165 12.3682 5.06117 12.5205 4.97819L 12.0416 4.10034ZM 12.0158 1.87981L 11.783 4.49494L 12.7791 4.5836L 13.0119 1.96847L 12.0158 1.87981ZM 12.0913 2.54581C 12.2867 2.50077 12.4761 2.45247 12.6448 2.40668L 12.3829 1.4416C 12.2214 1.48543 12.0508 1.52898 11.8669 1.57132L 12.0913 2.54581ZM 8.57908 2.7823C 9.80219 2.94214 11.1644 2.75743 12.0906 2.54596L 11.8676 1.57116C 10.984 1.77383 9.80014 1.94214 8.71237 1.79122L 8.57908 2.7823ZM 5.57154 2.98861C 6.59534 2.79282 7.73938 2.66398 8.57596 2.78187L 8.71549 1.79165C 7.70774 1.64965 6.42845 1.80662 5.3837 2.00641L 5.57154 2.98861ZM 4.5175 3.22014C 4.80954 3.14773 5.16428 3.06636 5.57148 2.98862L 5.38376 2.0064C 4.95868 2.08772 4.57754 2.17502 4.27691 2.24951L 4.5175 3.22014ZM 5.94998 12.5C 6.77451 12.5 7.49998 11.8664 7.49998 11.0168L 6.49998 11.0168C 6.49998 11.2532 6.28516 11.5 5.94998 11.5L 5.94998 12.5ZM 4.39998 11.0168C 4.39998 11.8664 5.12545 12.5 5.94998 12.5L 5.94998 11.5C 5.6148 11.5 5.39998 11.2532 5.39998 11.0168L 4.39998 11.0168ZM 5.94998 9.53361C 5.12545 9.53361 4.39998 10.1672 4.39998 11.0168L 5.39998 11.0168C 5.39998 10.7804 5.6148 10.5336 5.94998 10.5336L 5.94998 9.53361ZM 7.49998 11.0168C 7.49998 10.1672 6.77451 9.53361 5.94998 9.53361L 5.94998 10.5336C 6.28516 10.5336 6.49998 10.7804 6.49998 11.0168L 7.49998 11.0168ZM 12.25 11.5C 11.9148 11.5 11.7 11.2532 11.7 11.0168L 10.7 11.0168C 10.7 11.8664 11.4254 12.5 12.25 12.5L 12.25 11.5ZM 12.8 11.0168C 12.8 11.2532 12.5851 11.5 12.25 11.5L 12.25 12.5C 13.0745 12.5 13.8 11.8664 13.8 11.0168L 12.8 11.0168ZM 12.25 10.5336C 12.5851 10.5336 12.8 10.7804 12.8 11.0168L 13.8 11.0168C 13.8 10.1672 13.0745 9.53361 12.25 9.53361L 12.25 10.5336ZM 11.7 11.0168C 11.7 10.7804 11.9148 10.5336 12.25 10.5336L 12.25 9.53361C 11.4254 9.53361 10.7 10.1672 10.7 11.0168L 11.7 11.0168Z"/>
</defs>
</svg>
