<svg width="24" height="24" xmlns="http://www.w3.org/2000/svg" xmlns:xlink="http://www.w3.org/1999/xlink"><use xlink:href="#path0_fill" fill="#FFF"/><use xlink:href="#path1_fill" transform="translate(8 6)" fill="#E0E0E0"/><defs><path id="path0_fill" d="M24 12c0 6.627-5.373 12-12 12S0 18.627 0 12 5.373 0 12 0s12 5.373 12 12z"/><path id="path1_fill" fill-rule="evenodd" d="M0 1a1 1 0 0 1 1-1h6a1 1 0 0 1 1 1v2a1 1 0 0 1-2 0V2H2v7a1 1 0 1 1-2 0V1zm7 5a1 1 0 0 1 1 1v1h1a1 1 0 1 1 0 2H8v1a1 1 0 1 1-2 0v-1H5a1 1 0 1 1 0-2h1V7a1 1 0 0 1 1-1z"/></defs></svg>