<svg width="24" height="24" xmlns="http://www.w3.org/2000/svg" xmlns:xlink="http://www.w3.org/1999/xlink"><use xlink:href="#path0_fillArr" class="t-svgBg" fill="#FFF"/><use xlink:href="#path1_strokeArr" class="t-svgFigure" transform="translate(8 8)" fill="#E0E0E0"/><defs><path id="path0_fillArr" d="M24 12c0 6.627-5.373 12-12 12S0 18.627 0 12 5.373 0 12 0s12 5.373 12 12z"/><path id="path1_strokeArr" d="M5 0a1 1 0 0 0-2 0h2zM4 8l-.707.707a1 1 0 0 0 1.414 0L4 8zM.707 3.293A1 1 0 0 0-.707 4.707L.707 3.293zm8 1.414a1 1 0 0 0-1.414-1.414l1.414 1.414zM3 0v8h2V0H3zM-.707 4.707l4 4 1.414-1.414-4-4-1.414 1.414zm8-1.414l-4 4 1.414 1.414 4-4-1.414-1.414z"/></defs></svg>