<svg width="24" height="24" xmlns="http://www.w3.org/2000/svg" xmlns:xlink="http://www.w3.org/1999/xlink"><use xlink:href="#path0_fill" fill="#FFF"/><use xlink:href="#path1_stroke" transform="translate(7 8)" fill="#E0E0E0"/><defs><path id="path0_fill" d="M24 12c0 6.627-5.373 12-12 12S0 18.627 0 12 5.373 0 12 0s12 5.373 12 12z"/><path id="path1_stroke" d="M0 3l-.707-.707a1 1 0 0 0 0 1.414L0 3zM3.707.707A1 1 0 0 0 2.293-.707L3.707.707zm-1.414 6a1 1 0 0 0 1.414-1.414L2.293 6.707zM8 8a1 1 0 1 0 2 0H8zM0 4h6V2H0v2zm6-1v1h-.008H6l.058.003c.068.005.138.012.246.03.242.04.474.092.749.236C7.513 4.5 8 4.931 8 6h2c0-1.931-1.014-3-2.053-3.52a5.194 5.194 0 0 0-1.314-.42A5.192 5.192 0 0 0 6.025 2h-.024L6 3zm-5.293.707l3-3L2.293-.707l-3 3L.707 3.707zm-1.414 0l3 3 1.414-1.414-3-3-1.414 1.414zM8 6v2h2V6H8z"/></defs></svg>