<svg width="24" height="24" xmlns="http://www.w3.org/2000/svg" xmlns:xlink="http://www.w3.org/1999/xlink"><g class="t-icon"><use xlink:href="#path0_fill"/><use xlink:href="#path1_stroke" transform="translate(9 8)"/></g><defs><path id="path0_fill" d="M24 12c0 6.627-5.373 12-12 12S0 18.627 0 12 5.373 0 12 0s12 5.373 12 12z"/><path id="path1_stroke" d="M7 0a1 1 0 0 0-2 0h2zM6 8l-.555.832A1 1 0 0 0 7 8H6zM0 8h-1a1 1 0 0 0 1.555.832L0 8zm1-8a1 1 0 1 0-2 0h2zm2 6l.555-.832a1 1 0 0 0-1.11 0L3 6zm2-6v8h2V0H5zM1 8V0h-2v8h2zm5.555-.832l-3-2-1.11 1.664 3 2 1.11-1.664zm-4.11-2l-3 2 1.11 1.664 3-2-1.11-1.664z"/></defs></svg>