<svg width="24" height="24" xmlns="http://www.w3.org/2000/svg" xmlns:xlink="http://www.w3.org/1999/xlink"><use xlink:href="#path0_fill" fill="#FFF"/><use xlink:href="#path1_stroke" transform="translate(7 9)" fill="#E0E0E0"/><defs><path id="path0_fill" d="M24 12c0 6.627-5.373 12-12 12S0 18.627 0 12 5.373 0 12 0s12 5.373 12 12z"/><path id="path1_stroke" d="M10 0l.707.707A1 1 0 0 0 10-1v1zM0 0v-1A1 1 0 0 0-.707.707L0 0zm4 8a1 1 0 1 0 2 0H4zm6-9H0v2h10v-2zM-.707.707l5 5 1.414-1.414-5-5L-.707.707zM4 5v3h2V5H4zm1.707.707l5-5L9.293-.707l-5 5 1.414 1.414z"/></defs></svg>