<svg width="40" height="40" xmlns="http://www.w3.org/2000/svg" xmlns:xlink="http://www.w3.org/1999/xlink"><use xlink:href="#path0_fillGp" fill="#DD4B39"/><g transform="translate(8.96 12.04)" fill="#FFF"><use xlink:href="#path1_fillGp"/><use xlink:href="#path2_fillGp"/></g><defs><path id="path0_fillGp" d="M20 0C9 0 0 9 0 20s9 20 20 20 20-9 20-20S31 0 20 0z"/><path id="path1_fillGp" d="M13.638 13.86c1.1-1.2 1.8-2.8 1.9-4.5v-1.8l-.1-.6h-7.2v2.5h4.5v.3c-.1.7-.6 1.5-1.1 2-1.8 2-5.2 2-7.1 0-2-2.1-1.9-5.5 0-7.4 1.6-1.7 4.1-1.9 5.9-.8l.8.5 2-2-1.3-.9-1.1-.6c-2.9-1.1-6.2-.6-8.5 1.7-3.1 3.1-3.1 8.4-.1 11.5 3.1 3 8.4 3 11.4.1z"/><path id="path2_fillGp" d="M22.738 9.06h2.3v-2.3h-2.3v-2.3h-2.3v2.3h-2.3v2.3h2.3v2.3h2.3v-2.3z"/></defs></svg>