<svg width="24" height="24" xmlns="http://www.w3.org/2000/svg" xmlns:xlink="http://www.w3.org/1999/xlink"><use xlink:href="#path0_fillQuote" class="t-svgBg" fill="#FFF"/><use xlink:href="#path1_fillQuote" class="t-svgFigure" transform="translate(9 6)" fill="#E0E0E0"/><defs><path id="path0_fillQuote" d="M24 12c0 6.627-5.373 12-12 12S0 18.627 0 12 5.373 0 12 0s12 5.373 12 12z"/><path id="path1_fillQuote" fill-rule="evenodd" d="M2 1a1 1 0 0 0-2 0v5a1 1 0 0 0 2 0V1zm4 0a1 1 0 0 0-2 0v5a1 1 0 0 0 2 0V1z"/></defs></svg>