<svg width="24" height="24" xmlns="http://www.w3.org/2000/svg" xmlns:xlink="http://www.w3.org/1999/xlink"><use xlink:href="#path0_fillH2" class="t-svgBg" fill="#FFF"/><use xlink:href="#path1_fillH2" class="t-svgFigure" transform="translate(8 7)" fill="#E0E0E0"/><defs><path id="path0_fillH2" d="M24 12c0 6.627-5.373 12-12 12S0 18.627 0 12 5.373 0 12 0s12 5.373 12 12z"/><path id="path1_fillH2" fill-rule="evenodd" d="M1 0a1 1 0 0 1 1 1v3h4V1a1 1 0 0 1 2 0v8a1 1 0 1 1-2 0V6H2v3a1 1 0 1 1-2 0V1a1 1 0 0 1 1-1z"/></defs></svg>