<svg width="24" height="24" xmlns="http://www.w3.org/2000/svg" xmlns:xlink="http://www.w3.org/1999/xlink"><use xlink:href="#path0_fillBold" class="t-svgBg" fill="#FFF"/><use xlink:href="#path1_fillBold" class="t-svgFigure" transform="translate(8 6)" fill="#E0E0E0"/><defs><path id="path0_fillBold" d="M24 12c0 6.627-5.373 12-12 12S0 18.627 0 12 5.373 0 12 0s12 5.373 12 12z"/><path id="path1_fillBold" fill-rule="evenodd" d="M0 2a2 2 0 0 1 2-2h2.046C6.168 0 7.62 2.144 6.83 4.114l-.368.921A3 3 0 0 1 9 8v1a3 3 0 0 1-3 3H2a2 2 0 0 1-2-2V2zm4.323 3l.651-1.629A1 1 0 0 0 4.046 2H2v2a1 1 0 0 0 1 1h1.323zM3 7a1 1 0 0 0-1 1v1a1 1 0 0 0 1 1h3a1 1 0 0 0 1-1V8a1 1 0 0 0-1-1H3z"/></defs></svg>