<svg width="24" height="24" xmlns="http://www.w3.org/2000/svg" xmlns:xlink="http://www.w3.org/1999/xlink"><g class="t-icon"><use xlink:href="#path0_fill"/><use xlink:href="#path1_fill" transform="translate(7 11)"/></g><defs><path id="path0_fill" d="M24 12c0 6.627-5.373 12-12 12S0 18.627 0 12 5.373 0 12 0s12 5.373 12 12z"/><path id="path1_fill" fill-rule="evenodd" d="M2 1a1.001 1.001 0 0 1-2 0 1.001 1.001 0 0 1 2 0zm4 0a1.001 1.001 0 0 1-2 0 1.001 1.001 0 0 1 2 0zm3 1a1.001 1.001 0 0 0 0-2 1.001 1.001 0 0 0 0 2z"/></defs></svg>