<svg width="24" height="24" xmlns="http://www.w3.org/2000/svg" xmlns:xlink="http://www.w3.org/1999/xlink"><use xlink:href="#path0_fill" fill="#FFF"/><use xlink:href="#path1_fill" transform="translate(7 6)" fill="#E0E0E0"/><defs><path id="path0_fill" d="M24 12c0 6.627-5.373 12-12 12S0 18.627 0 12 5.373 0 12 0s12 5.373 12 12z"/><path id="path1_fill" fill-rule="evenodd" d="M7.005 4a2 2 0 1 1-3.999.001 2 2 0 0 1 4-.001zm.914 2.742A3.979 3.979 0 0 0 9.005 4c0-2.209-1.789-4-4-4-2.21 0-4 1.791-4 4 0 1.062.41 2.026 1.086 2.742a5.991 5.991 0 0 0-1.89 1.66 1 1 0 1 0 1.601 1.2A3.986 3.986 0 0 1 5.002 8c1.312 0 2.472.627 3.202 1.602.332.442.961.531 1.403.2a1 1 0 0 0 .199-1.4 6.082 6.082 0 0 0-1.887-1.66z"/></defs></svg>