<svg width="24" height="24" xmlns="http://www.w3.org/2000/svg" xmlns:xlink="http://www.w3.org/1999/xlink"><use xlink:href="#path0_fill"/><use xlink:href="#path1_stroke" transform="translate(8 8)"/><defs><path id="path0_fill" d="M24 12c0 6.627-5.373 12-12 12S0 18.627 0 12 5.373 0 12 0s12 5.373 12 12z"/><path id="path1_stroke" d="M4 0l.707-.707a1 1 0 0 0-1.414 0L4 0zM3 5a1 1 0 0 0 2 0H3zM1 5a1 1 0 0 0-2 0h2zM0 8h-1a1 1 0 0 0 1 1V8zm8 0v1a1 1 0 0 0 1-1H8zm1-3a1 1 0 1 0-2 0h2zM1.293 1.293a1 1 0 0 0 1.414 1.414L1.293 1.293zm4 1.414a1 1 0 0 0 1.414-1.414L5.293 2.707zM3 0v5h2V0H3zm-4 5v3h2V5h-2zm1 4h8V7H0v2zm9-1V5H7v3h2zM2.707 2.707l2-2L3.293-.707l-2 2 1.414 1.414zm4-1.414l-2-2L3.293.707l2 2 1.414-1.414z"/></defs></svg>