<svg width="24" height="24" xmlns="http://www.w3.org/2000/svg" xmlns:xlink="http://www.w3.org/1999/xlink"><g class="t-icon"><use xlink:href="#path0_fill"/><use xlink:href="#path1_fill" transform="translate(5.34 7)"/></g><defs><path id="path0_fill" d="M24 12c0 6.627-5.373 12-12 12S0 18.627 0 12 5.373 0 12 0s12 5.373 12 12z"/><path id="path1_fill" fill-rule="evenodd" d="M2.871 3.735a5.02 5.02 0 0 0-.93 1.598.998.998 0 1 1-1.883-.666 7.002 7.002 0 0 1 13.204 0 1.001 1.001 0 0 1-1.887.666 5.006 5.006 0 0 0-.914-1.58A3.999 3.999 0 0 1 6.66 9c-2.212 0-4-1.79-4-4 0-.44.077-.87.21-1.265zM8.661 5a2 2 0 1 1-4 .001 2 2 0 0 1 4-.001z"/></defs></svg>