<svg width="24" height="17" viewBox="0 0 24 17" version="1.1" xmlns="http://www.w3.org/2000/svg" xmlns:xlink="http://www.w3.org/1999/xlink">
<title>path4156</title>
<desc>Created using Figma</desc>
<g id="Canvas" transform="translate(4115 -3867)">
<g id="path4156">
<use xlink:href="#path0_fill" transform="translate(-4115 3867)" fill="#FFFFFF"/>
</g>
</g>
<defs>
<path id="path0_fill" d="M 11.9926 3.00237e-08C 11.9926 3.00237e-08 4.49158 7.10095e-06 2.60893 0.495157C 1.6009 0.780239 0.770861 1.62039 0.489204 2.65569C 1.12023e-05 4.56125 2.96628e-08 8.50751 2.96628e-08 8.50751C 2.96628e-08 8.50751 1.12023e-05 12.4687 0.489204 14.3443C 0.770861 15.3796 1.58607 16.2047 2.60893 16.4898C 4.5064 17 11.9926 17 11.9926 17C 11.9926 17 19.5084 17 21.391 16.5048C 22.4139 16.2198 23.2291 15.4096 23.4959 14.3593C 23.9999 12.4687 24 8.52252 24 8.52252C 24 8.52252 24.0148 4.56125 23.4959 2.65569C 23.2291 1.62039 22.4139 0.795263 21.391 0.525181C 19.5084 2.40516e-05 11.9926 3.00237e-08 11.9926 3.00237e-08ZM 9.60587 4.8615L 15.8469 8.50751L 9.60587 12.1385L 9.60587 4.8615Z"/>
</defs>
</svg>
