<svg width="21" height="17" viewBox="0 0 21 17" version="1.1" xmlns="http://www.w3.org/2000/svg" xmlns:xlink="http://www.w3.org/1999/xlink">
<title>twitter</title>
<desc>Created using Figma</desc>
<g id="Canvas" transform="translate(4151 -3867)">
<g id="twitter">
<use xlink:href="#path0_fill" transform="translate(-4151 3867)" fill="#FFFFFF"/>
</g>
</g>
<defs>
<path id="path0_fill" d="M 21 2.01254C 20.2276 2.35372 19.3967 2.58449 18.5253 2.68755C 19.415 2.15657 20.0978 1.31641 20.42 0.313659C 19.5875 0.805591 18.6651 1.16246 17.6841 1.35482C 16.8982 0.521059 15.7784 -3.90699e-08 14.5385 -3.90699e-08C 12.1596 -3.90699e-08 10.2301 1.92196 10.2301 4.29169C 10.2301 4.62807 10.2683 4.95549 10.3422 5.26979C 6.76159 5.09088 3.58675 3.3824 1.46163 0.785107C 1.09084 1.41883 0.878133 2.15657 0.878133 2.94295C 0.878133 4.43155 1.63931 5.74572 2.79473 6.51515C 2.08882 6.49306 1.42403 6.30007 0.843432 5.97777C 0.84311 5.99601 0.84311 6.01425 0.84311 6.03218C 0.84311 8.11161 2.32884 9.84601 4.29941 10.24C 3.93826 10.3386 3.55687 10.3908 3.16456 10.3908C 2.8863 10.3908 2.61673 10.3642 2.3539 10.3143C 2.90205 12.0189 4.49284 13.2598 6.37859 13.2947C 4.90379 14.4459 3.04631 15.1318 1.02722 15.1318C 0.680207 15.1318 0.336409 15.1116 2.05916e-07 15.0716C 1.90567 16.2898 4.17089 17 6.60383 17C 14.5285 17 18.8623 10.4605 18.8623 4.78874C 18.8623 4.60279 18.8582 4.41747 18.8498 4.23376C 19.6923 3.62884 20.4226 2.87318 21 2.01254Z"/>
</defs>
</svg>
