<svg width="26" height="15" viewBox="0 0 26 15" version="1.1" xmlns="http://www.w3.org/2000/svg" xmlns:xlink="http://www.w3.org/1999/xlink">
<title>vk</title>
<desc>Created using Figma</desc>
<g id="Canvas" transform="translate(4230 -3869)">
<g id="vk">
<g id="vk">
<use xlink:href="#path0_fill" transform="translate(-4230 3869)" fill="#FFFFFF"/>
</g>
</g>
</g>
<defs>
<path id="path0_fill" fill-rule="evenodd" d="M 12.7192 14.9901L 14.2733 14.9901C 14.5366 14.9591 14.7845 14.8483 14.9844 14.6724C 15.1272 14.4714 15.2022 14.2293 15.1983 13.9819C 15.1983 13.9819 15.1683 11.8522 16.1361 11.5414C 17.1039 11.2307 18.3157 13.5777 19.6154 14.4796C 20.1025 14.8731 20.7243 15.0551 21.3441 14.9854L 24.813 14.9854C 24.813 14.9854 26.6296 14.8464 25.7682 13.4025C 25.0848 12.2544 24.2114 11.2333 23.1861 10.3837C 21.0076 8.34158 21.3002 8.6722 23.9238 5.13939C 25.5207 2.98863 26.1601 1.67435 25.9601 1.11241C 25.7853 0.93475 25.571 0.801791 25.3351 0.724581C 25.0992 0.647371 24.8485 0.628137 24.6037 0.668478L 20.6862 0.668478C 20.5117 0.654524 20.3368 0.689707 20.1809 0.770117C 20.0276 0.889016 19.908 1.04655 19.834 1.2269C 19.4319 2.30022 18.9486 3.3407 18.3886 4.33914C 16.6472 7.32637 15.9511 7.48408 15.6666 7.29833C 15.0041 6.86607 15.1706 5.5623 15.1706 4.63471C 15.1706 1.73977 15.6053 0.53296 14.3241 0.219868C 13.7272 0.0740865 13.1132 0.0123643 12.4995 0.0364522C 11.4067 -0.0659602 10.3046 0.0479282 9.25487 0.371741C 8.80969 0.591373 8.46627 1.08204 8.67672 1.11008C 9.1217 1.14895 9.53526 1.35786 9.83303 1.69421C 10.1038 2.24942 10.2368 2.86289 10.2204 3.48164C 10.2204 3.48164 10.4517 6.89061 9.68271 7.31235C 9.15543 7.60207 8.43274 7.00977 6.87981 4.29942C 6.34904 3.35027 5.88162 2.36635 5.48067 1.35424C 5.40906 1.18409 5.29849 1.03355 5.15806 0.91498C 4.97653 0.792982 4.77236 0.709516 4.55794 0.669646L 0.841554 0.669646C 0.565947 0.670657 0.298117 0.762084 0.0783837 0.930168C 0.0294379 1.0342 0.00279839 1.14751 0.000207905 1.26267C -0.00238258 1.37782 0.0191382 1.49224 0.0633555 1.59841C 0.0633555 1.59841 2.97263 8.52733 6.26696 11.9959C 7.08555 12.9106 8.0796 13.6477 9.18875 14.1624C 10.2979 14.6771 11.499 14.9587 12.7192 14.9901Z"/>
</defs>
</svg>
